<?xml version="1.0" encoding="UTF-8"?>
<svg id="Camada_2" data-name="Camada 2" xmlns="http://www.w3.org/2000/svg" viewBox="0 0 64 64.04">
  <defs>
    <style>
      .cls-1 {
        fill: #f4f1f8;
      }
    </style>
  </defs>
  <g id="Camada_5" data-name="Camada 5">
    <g>
      <path class="cls-1" d="M62.35,54.45l-25.11-25.11L7.91,0h-2.29l-.47,1.19c-1.24,3.14-1.76,6.35-1.53,9.29.27,3.35,1.54,6.24,3.68,8.38l22.9,22.9,3.02-3.02,21.17,23.68c2.11,2.11,5.73,2.23,7.96,0,2.2-2.2,2.2-5.77,0-7.96Z"/>
      <path class="cls-1" d="M19.58,36.45L1.65,54.39c-2.2,2.2-2.2,5.77,0,7.96,2.09,2.09,5.69,2.27,7.96,0l17.94-17.94-7.96-7.96Z"/>
      <path class="cls-1" d="M61.3,10.66l-10.17,10.17-2.65-2.65,10.17-10.17-2.65-2.65-10.17,10.17-2.65-2.65,10.17-10.17L50.68.05l-13.27,13.27c-1.62,1.62-2.59,3.78-2.73,6.07-.03.58-.17,1.15-.38,1.69l8.62,8.62c.54-.22,1.11-.35,1.69-.38,2.29-.14,4.45-1.11,6.07-2.73l13.27-13.27-2.65-2.65Z"/>
    </g>
  </g>
</svg>