<?xml version="1.0" encoding="UTF-8"?>
<svg id="Camada_2" data-name="Camada 2" xmlns="http://www.w3.org/2000/svg" viewBox="0 0 64 64">
  <defs>
    <style>
      .cls-1 {
        fill: #f4f1f8;
      }
    </style>
  </defs>
  <g id="Camada_5" data-name="Camada 5">
    <g>
      <path class="cls-1" d="M57.04,41.8c-.06-.1-.13-.2-.19-.29-.65-.9-1.61-1.5-2.7-1.68-1.09-.18-2.2.08-3.1.72l-11.93,8.52h-12.46c-.59,0-1.07-.48-1.07-1.07s.48-1.07,1.07-1.07h6.93c2.06,0,3.73-1.67,3.73-3.73,0-.01,0-.11,0-.12-.07-2.06-1.8-3.66-3.82-3.61h-13.88c-1.23.01-2.43.45-3.37,1.24l-5.22,4.34c-.24.2-.38.5-.38.82v12.8c0,.59.48,1.07,1.07,1.07h26.47c1.73,0,3.42-.61,4.75-1.72l12.93-10.68c1.76-1.25,2.27-3.68,1.16-5.53ZM54.59,45.64l-12.99,10.73c-.95.79-2.16,1.22-3.4,1.23H12.8v-11.23l4.83-4.02c.57-.47,1.29-.74,2.02-.74h13.9c.88,0,1.62.67,1.65,1.6,0,.88-.72,1.6-1.6,1.6h-6.93c-1.76,0-3.2,1.44-3.2,3.2s1.44,3.2,3.2,3.2h12.8c.22,0,.44-.07.62-.2l12.2-8.72c.44-.32.97-.44,1.51-.35.53.09,1,.38,1.32.83.03.04.06.09.09.13.54.9.29,2.09-.63,2.75Z"/>
      <path class="cls-1" d="M11.7,43.73H0v2.13h10.63v16H0v2.13h11.7c.59,0,1.07-.48,1.07-1.07v-18.13c0-.59-.48-1.07-1.07-1.07Z"/>
      <path class="cls-1" d="M5.33,53.33c-1.76,0-3.2,1.44-3.2,3.2s1.44,3.2,3.2,3.2,3.2-1.44,3.2-3.2-1.44-3.2-3.2-3.2ZM5.33,57.6c-.59,0-1.07-.48-1.07-1.07s.48-1.07,1.07-1.07,1.07.48,1.07,1.07-.48,1.07-1.07,1.07Z"/>
      <path class="cls-1" d="M62.93,33.07H1.07c-.59,0-1.07.48-1.07,1.07,0,4.12,3.35,7.47,7.47,7.47h49.07c4.12,0,7.47-3.35,7.47-7.47,0-.59-.48-1.07-1.07-1.07ZM56.53,39.47H7.47c-2.58,0-4.73-1.84-5.23-4.27h59.52c-.49,2.43-2.65,4.27-5.23,4.27Z"/>
      <path class="cls-1" d="M32,5.33c-15.29,0-27.73,12.44-27.73,27.73v1.07c0,.59.48,1.07,1.07,1.07h53.33c.59,0,1.07-.48,1.07-1.07v-1.07c0-15.29-12.44-27.73-27.73-27.73ZM6.4,33.07c0-14.12,11.48-25.6,25.6-25.6s25.6,11.48,25.6,25.6H6.4Z"/>
      <path class="cls-1" d="M14.46,17.5c-.75.84-1.44,1.74-2.05,2.67l1.78,1.18c.56-.85,1.19-1.67,1.87-2.43l-1.59-1.42Z"/>
      <path class="cls-1" d="M32,9.6c-5.99,0-11.69,2.27-16.06,6.37l1.46,1.55c3.97-3.73,9.15-5.79,14.6-5.79v-2.13Z"/>
      <rect class="cls-1" x="28.8" width="6.4" height="2.13"/>
      <rect class="cls-1" x="30.93" y="1.07" width="2.13" height="5.33"/>
    </g>
  </g>
</svg>