<?xml version="1.0" encoding="UTF-8"?>
<svg id="Camada_2" data-name="Camada 2" xmlns="http://www.w3.org/2000/svg" viewBox="0 0 64 69.82">
  <defs>
    <style>
      .cls-1 {
        fill: #f4f1f8;
      }
    </style>
  </defs>
  <g id="Camada_5" data-name="Camada 5">
    <path class="cls-1" d="M64,58.18c0,6.42-5.22,11.64-11.64,11.64s-11.64-5.22-11.64-11.64c0-.95.11-1.88.33-2.76l-21.33-12.16c-2.1,2.03-4.95,3.28-8.09,3.28-6.42,0-11.64-5.22-11.64-11.64s5.22-11.64,11.64-11.64c3.14,0,6,1.25,8.09,3.28l21.33-12.16c-.22-.88-.33-1.81-.33-2.76,0-6.42,5.22-11.64,11.64-11.64s11.64,5.22,11.64,11.64-5.22,11.64-11.64,11.64c-3.38,0-6.42-1.45-8.55-3.75l-21.05,12c.33,1.07.5,2.21.5,3.39s-.18,2.32-.5,3.39l21.05,12c2.13-2.31,5.17-3.75,8.55-3.75,6.42,0,11.64,5.22,11.64,11.64Z"/>
  </g>
</svg>