<?xml version="1.0" encoding="UTF-8"?>
<svg id="Camada_2" data-name="Camada 2" xmlns="http://www.w3.org/2000/svg" xmlns:xlink="http://www.w3.org/1999/xlink" viewBox="0 0 64 64">
  <defs>
    <style>
      .cls-1 {
        fill: none;
      }

      .cls-2 {
        fill: #f4f1f8;
      }

      .cls-3 {
        clip-path: url(#clippath);
      }
    </style>
    <clipPath id="clippath">
      <rect class="cls-1" width="64" height="64"/>
    </clipPath>
  </defs>
  <g id="Camada_5" data-name="Camada 5">
    <g class="cls-3">
      <g>
        <path class="cls-2" d="M41.5,59.5c-12.41,0-22.5-10.09-22.5-22.5s10.09-22.5,22.5-22.5,22.5,10.09,22.5,22.5-10.09,22.5-22.5,22.5ZM41.5,19.5c-9.65,0-17.5,7.85-17.5,17.5s7.85,17.5,17.5,17.5,17.5-7.85,17.5-17.5-7.85-17.5-17.5-17.5Z"/>
        <path class="cls-2" d="M51.5,39.5h-10c-1.38,0-2.5-1.12-2.5-2.5v-10c0-1.38,1.12-2.5,2.5-2.5s2.5,1.12,2.5,2.5v7.5h7.5c1.38,0,2.5,1.12,2.5,2.5s-1.12,2.5-2.5,2.5Z"/>
        <path class="cls-2" d="M41.5,19.5c-1.38,0-2.5-1.12-2.5-2.5V7c0-1.38,1.12-2.5,2.5-2.5s2.5,1.12,2.5,2.5v10c0,1.38-1.12,2.5-2.5,2.5Z"/>
        <path class="cls-2" d="M46.5,9.5h-10c-1.38,0-2.5-1.12-2.5-2.5s1.12-2.5,2.5-2.5h10c1.38,0,2.5,1.12,2.5,2.5s-1.12,2.5-2.5,2.5Z"/>
        <path class="cls-2" d="M27.36,25.36c-.64,0-1.28-.24-1.77-.73l-3.53-3.53c-.98-.98-.98-2.56,0-3.54.98-.98,2.56-.98,3.54,0l3.53,3.53c.98.98.98,2.56,0,3.54-.49.49-1.13.73-1.77.73Z"/>
        <path class="cls-2" d="M55.64,25.36c-.64,0-1.28-.24-1.77-.73-.98-.98-.98-2.56,0-3.54l3.53-3.53c.98-.98,2.56-.98,3.54,0,.98.98.98,2.56,0,3.54l-3.53,3.53c-.49.49-1.13.73-1.77.73Z"/>
        <path class="cls-2" d="M12.5,39.5H2.5C1.12,39.5,0,38.38,0,37s1.12-2.5,2.5-2.5h10c1.38,0,2.5,1.12,2.5,2.5s-1.12,2.5-2.5,2.5Z"/>
        <path class="cls-2" d="M14.21,29.5h-6.71c-1.38,0-2.5-1.12-2.5-2.5s1.12-2.5,2.5-2.5h6.71c1.38,0,2.5,1.12,2.5,2.5s-1.12,2.5-2.5,2.5Z"/>
        <path class="cls-2" d="M14.21,49.5h-6.71c-1.38,0-2.5-1.12-2.5-2.5s1.12-2.5,2.5-2.5h6.71c1.38,0,2.5,1.12,2.5,2.5s-1.12,2.5-2.5,2.5Z"/>
      </g>
    </g>
  </g>
</svg>