<?xml version="1.0" encoding="UTF-8"?>
<svg id="Camada_2" data-name="Camada 2" xmlns="http://www.w3.org/2000/svg" viewBox="0 0 104 43.39">
  <defs>
    <style>
      .cls-1 {
        fill: #179fdb;
      }

      .cls-2 {
        fill: #1268a3;
      }

      .cls-3 {
        fill: #d5aa1b;
      }

      .cls-4 {
        fill: #73972c;
      }
    </style>
  </defs>
  <g id="Camada_1-2" data-name="Camada 1">
    <g>
      <path class="cls-2" d="M29.23,43.25h-14.61c-8.06,0-14.61-6.56-14.61-14.61s6.56-14.61,14.61-14.61,14.61,6.56,14.61,14.61v14.61ZM14.61,19.71c-4.92,0-8.93,4-8.93,8.93s4,8.93,8.93,8.93h8.93v-8.93c0-4.92-4-8.93-8.93-8.93Z"/>
      <polygon class="cls-2" points="39.02 43.39 33.32 43.26 33.32 6.09 38.89 3.19 39.02 43.39"/>
      <path class="cls-2" d="M89.6,43.03c-7.94,0-14.4-6.46-14.4-14.4s6.46-14.4,14.4-14.4,14.4,6.46,14.4,14.4-6.46,14.4-14.4,14.4ZM89.6,19.25c-5.17,0-9.38,4.21-9.38,9.38s4.21,9.38,9.38,9.38,9.38-4.21,9.38-9.38-4.21-9.38-9.38-9.38Z"/>
      <g>
        <path class="cls-2" d="M71.28,14.02l-.04-14.02-5.66,2.5v11.52h-8.79c-8.05,0-14.61,6.56-14.61,14.62s6.56,14.61,14.61,14.61c5.53,0,10.35-3.09,12.83-7.62.01,0,.01-.01.01-.01.92-1.69,1.52-3.57,1.7-5.57l-.04-16.02ZM65.71,28.63c0,4.92-4,8.93-8.93,8.93s-8.93-4.01-8.93-8.93,4.01-8.93,8.93-8.93h8.93v8.93Z"/>
        <polygon class="cls-1" points="65.58 12.56 65.58 6.89 71.27 4.5 71.27 9.73 65.58 12.56"/>
        <polygon class="cls-4" points="65.58 6.32 65.58 3.39 71.25 .92 71.27 3.88 65.58 6.32"/>
        <polygon class="cls-3" points="65.58 3.19 65.58 2.48 71.25 0 71.27 .67 65.58 3.19"/>
      </g>
    </g>
  </g>
</svg>