<?xml version="1.0" encoding="UTF-8"?>
<svg id="Camada_1" xmlns="http://www.w3.org/2000/svg" version="1.1" xmlns:xlink="http://www.w3.org/1999/xlink" viewBox="0 0 846 179.4">
  <!-- Generator: Adobe Illustrator 29.0.0, SVG Export Plug-In . SVG Version: 2.1.0 Build 186)  -->
  <defs>
    <style>
      .st0 {
        fill: #c40711;
      }

      .st0, .st1, .st2, .st3, .st4, .st5, .st6, .st7, .st8, .st9, .st10, .st11, .st12, .st13, .st14, .st15, .st16, .st17, .st18, .st19, .st20, .st21, .st22, .st23, .st24, .st25, .st26, .st27, .st28, .st29, .st30, .st31, .st32, .st33, .st34, .st35, .st36, .st37, .st38, .st39, .st40, .st41, .st42, .st43, .st44, .st45, .st46, .st47, .st48, .st49, .st50, .st51, .st52, .st53, .st54, .st55, .st56, .st57, .st58 {
        fill-rule: evenodd;
      }

      .st1 {
        fill: #d10811;
      }

      .st2 {
        fill: #bb0710;
      }

      .st3 {
        fill: #e30913;
      }

      .st4 {
        fill: #c50711;
      }

      .st5 {
        fill: #dc0812;
      }

      .st6 {
        fill: #e40913;
      }

      .st7 {
        fill: #c80711;
      }

      .st8 {
        fill: #bf0710;
      }

      .st9 {
        fill: #b0060f;
      }

      .st10 {
        fill: #cd0811;
      }

      .st11 {
        fill: #c60711;
      }

      .st12 {
        fill: #d10812;
      }

      .st13 {
        fill: #d30812;
      }

      .st59 {
        fill: #fff;
      }

      .st14 {
        fill: #b3060f;
      }

      .st15 {
        fill: #b90610;
      }

      .st16 {
        fill: #b90710;
      }

      .st17 {
        fill: #d60812;
      }

      .st18 {
        fill: #cb0811;
      }

      .st19 {
        fill: #d50812;
      }

      .st20 {
        fill: #b70610;
      }

      .st60 {
        fill: none;
      }

      .st21 {
        fill: #c20710;
      }

      .st22 {
        fill: #e00913;
      }

      .st23 {
        fill: #d20812;
      }

      .st24 {
        fill: #b7060f;
      }

      .st25 {
        fill: #be0710;
      }

      .st26 {
        fill: #c00710;
      }

      .st27 {
        fill: #cc0811;
      }

      .st28 {
        fill: #d80812;
      }

      .st29 {
        fill: #d90812;
      }

      .st30 {
        fill: #ca0711;
      }

      .st61 {
        clip-path: url(#clippath-1);
      }

      .st31 {
        fill: #e20913;
      }

      .st32 {
        fill: #b5060f;
      }

      .st33 {
        fill: #db0812;
      }

      .st34 {
        fill: #dd0912;
      }

      .st35 {
        fill: #dc0912;
      }

      .st36, .st62 {
        fill: #e50913;
      }

      .st37 {
        fill: #df0913;
      }

      .st38 {
        fill: #d40812;
      }

      .st39 {
        fill: #d70812;
      }

      .st40 {
        fill: #bc0710;
      }

      .st41 {
        fill: #ba0710;
      }

      .st42 {
        fill: #b80610;
      }

      .st43 {
        fill: #cf0811;
      }

      .st44 {
        fill: #c30710;
      }

      .st45 {
        fill: #c70711;
      }

      .st46 {
        fill: #c40710;
      }

      .st47 {
        fill: #c90711;
      }

      .st48 {
        fill: #ce0811;
      }

      .st49 {
        fill: #b6060f;
      }

      .st50 {
        fill: #e10913;
      }

      .st51 {
        fill: #da0812;
      }

      .st52 {
        fill: #d00811;
      }

      .st53 {
        fill: #b2060f;
      }

      .st54 {
        fill: #c10710;
      }

      .st63 {
        clip-path: url(#clippath);
      }

      .st55 {
        fill: #bd0710;
      }

      .st56 {
        fill: #b1060f;
      }

      .st57 {
        fill: #b4060f;
      }

      .st58 {
        fill: #de0912;
      }
    </style>
    <clipPath id="clippath">
      <path class="st60" d="M460.5,15.5c8,.5,14.5,6.7,14.7,14.7,1.9,47.7,2,71.5,0,118.9-.2,8-6.7,14-14.7,14.7-141.6,11.8-288,11.8-439.2,0-8-.5-14.5-6.7-14.7-14.7-2.1-47.7-2.1-71.5,0-118.9.2-8,6.7-14.2,14.7-14.7,141.6-11.8,288-11.8,439.2,0Z"/>
    </clipPath>
    <clipPath id="clippath-1">
      <ellipse class="st60" cx="605.3" cy="93.3" rx="20.3" ry="20.5"/>
    </clipPath>
  </defs>
  <g class="st63">
    <g>
      <polygon class="st9" points="-40.8 37.6 4.9 19.5 117.6 302.7 71.9 321 -40.8 37.6"/>
      <polygon class="st9" points="4.3 19.6 5.9 19 118.6 302.3 117.1 303 4.3 19.6"/>
      <polygon class="st9" points="5.4 19.1 7.1 18.6 119.6 302 118.1 302.5 5.4 19.1"/>
      <polygon class="st56" points="6.4 18.8 8.1 18.1 120.8 301.5 119.1 302.2 6.4 18.8"/>
      <polygon class="st56" points="7.6 18.4 9.1 17.8 121.8 301.1 120.3 301.6 7.6 18.4"/>
      <polygon class="st56" points="8.6 17.9 10.2 17.4 122.9 300.6 121.3 301.3 8.6 17.9"/>
      <polygon class="st56" points="9.7 17.6 11.2 16.9 123.9 300.3 122.4 301 9.7 17.6"/>
      <polygon class="st56" points="10.7 17.1 12.2 16.6 124.9 299.8 123.4 300.5 10.7 17.1"/>
      <polygon class="st53" points="11.7 16.7 13.2 16.1 125.9 299.4 124.4 300.1 11.7 16.7"/>
      <polygon class="st53" points="12.7 16.2 14.3 15.7 127 299.1 125.4 299.6 12.7 16.2"/>
      <polygon class="st53" points="13.8 15.9 15.3 15.2 128 298.6 126.5 299.3 13.8 15.9"/>
      <polygon class="st53" points="14.8 15.5 16.5 14.9 129.2 298.2 127.5 298.7 14.8 15.5"/>
      <polygon class="st53" points="16 15 17.5 14.3 130.2 297.7 128.5 298.4 16 15"/>
      <polygon class="st14" points="17 14.7 18.6 14 131.2 297.4 129.7 298.1 17 14.7"/>
      <polygon class="st14" points="18 14.2 19.6 13.7 132.3 296.9 130.7 297.5 18 14.2"/>
      <polygon class="st14" points="19.1 13.8 20.6 13.1 133.3 296.5 131.8 297.2 19.1 13.8"/>
      <polygon class="st14" points="20.1 13.3 21.6 12.8 134.3 296.2 132.8 296.7 20.1 13.3"/>
      <polygon class="st14" points="21.1 13 22.6 12.3 135.4 295.7 133.8 296.3 21.1 13"/>
      <polygon class="st57" points="22.1 12.6 23.7 11.9 136.4 295.3 134.8 295.8 22.1 12.6"/>
      <polygon class="st57" points="23.2 12.1 24.9 11.4 137.4 294.8 135.9 295.5 23.2 12.1"/>
      <polygon class="st57" points="24.2 11.8 25.9 11.1 138.6 294.5 136.9 295 24.2 11.8"/>
      <polygon class="st57" points="25.4 11.3 26.9 10.8 139.6 294 138.1 294.6 25.4 11.3"/>
      <polygon class="st57" points="26.4 10.9 27.9 10.2 140.6 293.6 139.1 294.3 26.4 10.9"/>
      <polygon class="st32" points="27.4 10.4 29 9.9 141.7 293.3 140.1 293.8 27.4 10.4"/>
      <polygon class="st32" points="28.5 10.1 30 9.4 142.7 292.8 141.2 293.4 28.5 10.1"/>
      <polygon class="st32" points="29.5 9.6 31 9 143.7 292.4 142.2 292.9 29.5 9.6"/>
      <polygon class="st32" points="30.5 9.2 32.1 8.5 144.8 291.9 143.2 292.6 30.5 9.2"/>
      <polygon class="st32" points="31.5 8.9 33.1 8.2 145.8 291.6 144.2 292.1 31.5 8.9"/>
      <polygon class="st49" points="32.6 8.4 34.3 7.8 147 291 145.3 291.7 32.6 8.4"/>
      <polygon class="st49" points="33.8 8 35.3 7.3 148 290.7 146.3 291.4 33.8 8"/>
      <polygon class="st49" points="34.8 7.5 36.3 7 149 290.2 147.5 290.9 34.8 7.5"/>
      <polygon class="st49" points="35.8 7.2 37.4 6.5 150.1 289.8 148.5 290.5 35.8 7.2"/>
      <polygon class="st49" points="36.9 6.6 38.4 6.1 151.1 289.5 149.5 290 36.9 6.6"/>
      <polygon class="st24" points="37.9 6.3 39.4 5.6 152.1 289 150.6 289.7 37.9 6.3"/>
      <polygon class="st20" points="38.9 6 40.4 5.3 153.1 288.7 151.6 289.2 38.9 6"/>
      <polygon class="st20" points="39.9 5.4 41.5 4.9 154.2 288.1 152.6 288.8 39.9 5.4"/>
      <polygon class="st20" points="40.9 5.1 42.7 4.4 155.2 287.8 153.6 288.5 40.9 5.1"/>
      <polygon class="st20" points="42 4.6 43.7 4.1 156.4 287.3 154.7 288 42 4.6"/>
      <polygon class="st42" points="43.2 4.3 44.7 3.6 157.4 286.9 155.9 287.6 43.2 4.3"/>
      <polygon class="st42" points="44.2 3.7 45.7 3.2 158.4 286.6 156.9 287.1 44.2 3.7"/>
      <polygon class="st42" points="45.2 3.4 46.8 2.7 159.5 286.1 157.9 286.8 45.2 3.4"/>
      <polygon class="st42" points="46.2 3.1 47.8 2.4 160.5 285.7 159 286.3 46.2 3.1"/>
      <polygon class="st42" points="47.3 2.5 48.8 1.9 161.5 285.2 160 285.9 47.3 2.5"/>
      <polygon class="st15" points="48.3 2.2 49.8 1.5 162.5 284.9 161 285.6 48.3 2.2"/>
      <polygon class="st15" points="49.3 1.7 50.9 1.2 163.6 284.4 162 285.1 49.3 1.7"/>
      <polygon class="st16" points="50.4 1.3 52.1 .7 164.8 284 163.1 284.7 50.4 1.3"/>
      <polygon class="st16" points="51.6 .8 53.1 .3 165.8 283.7 164.1 284.2 51.6 .8"/>
      <polygon class="st16" points="52.6 .5 54.1 -.2 166.8 283.2 165.3 283.9 52.6 .5"/>
      <polygon class="st41" points="53.6 .1 55.1 -.5 167.8 282.8 166.3 283.4 53.6 .1"/>
      <polygon class="st41" points="54.6 -.4 56.2 -1 168.9 282.3 167.3 283 54.6 -.4"/>
      <polygon class="st41" points="55.7 -.7 57.2 -1.4 169.9 282 168.4 282.5 55.7 -.7"/>
      <polygon class="st41" points="56.7 -1.2 58.2 -1.7 170.9 281.5 169.4 282.2 56.7 -1.2"/>
      <polygon class="st41" points="57.7 -1.6 59.2 -2.2 172 281.1 170.4 281.8 57.7 -1.6"/>
      <polygon class="st2" points="58.7 -2.1 60.4 -2.6 173 280.8 171.4 281.3 58.7 -2.1"/>
      <polygon class="st2" points="59.8 -2.4 61.5 -3.1 174.2 280.3 172.5 281 59.8 -2.4"/>
      <polygon class="st2" points="61 -2.9 62.5 -3.4 175.2 279.9 173.7 280.4 61 -2.9"/>
      <polygon class="st2" points="62 -3.3 63.5 -4 176.2 279.4 174.7 280.1 62 -3.3"/>
      <polygon class="st2" points="63 -3.6 64.6 -4.3 177.2 279.1 175.7 279.6 63 -3.6"/>
      <polygon class="st40" points="64 -4.1 65.6 -4.6 178.3 278.6 176.7 279.2 64 -4.1"/>
      <polygon class="st40" points="65.1 -4.5 66.6 -5.2 179.3 278.2 177.8 278.9 65.1 -4.5"/>
      <polygon class="st40" points="66.1 -5 67.6 -5.5 180.3 277.7 178.8 278.4 66.1 -5"/>
      <polygon class="st40" points="67.1 -5.3 68.6 -6 181.4 277.4 179.8 278 67.1 -5.3"/>
      <polygon class="st40" points="68.1 -5.8 69.9 -6.4 182.5 277 180.8 277.5 68.1 -5.8"/>
      <polygon class="st55" points="69.3 -6.2 70.9 -6.9 183.6 276.5 181.9 277.2 69.3 -6.2"/>
      <polygon class="st55" points="70.4 -6.5 71.9 -7.2 184.6 276.2 183.1 276.7 70.4 -6.5"/>
      <polygon class="st55" points="71.4 -7 72.9 -7.7 185.6 275.7 184.1 276.3 71.4 -7"/>
      <polygon class="st55" points="72.4 -7.4 74 -8.1 186.7 275.3 185.1 276 72.4 -7.4"/>
      <polygon class="st55" points="73.4 -7.9 75 -8.4 187.7 274.8 186.1 275.5 73.4 -7.9"/>
      <polygon class="st25" points="74.5 -8.2 76 -8.9 188.7 274.5 187.2 275.1 74.5 -8.2"/>
      <polygon class="st25" points="75.5 -8.7 77 -9.3 189.7 274.1 188.2 274.6 75.5 -8.7"/>
      <polygon class="st25" points="76.5 -9.1 78.2 -9.8 190.8 273.6 189.2 274.3 76.5 -9.1"/>
      <polygon class="st25" points="77.6 -9.4 79.3 -10.1 192 273.3 190.2 273.8 77.6 -9.4"/>
      <polygon class="st25" points="78.7 -9.9 80.3 -10.6 193 272.7 191.4 273.4 78.7 -9.9"/>
      <polygon class="st8" points="79.8 -10.3 81.3 -11 194 272.4 192.5 273.1 79.8 -10.3"/>
      <polygon class="st8" points="80.8 -10.8 82.3 -11.3 195 271.9 193.5 272.6 80.8 -10.8"/>
      <polygon class="st8" points="81.8 -11.1 83.4 -11.8 196.1 271.6 194.5 272.2 81.8 -11.1"/>
      <polygon class="st8" points="82.9 -11.7 84.4 -12.2 197.1 271.2 195.5 271.7 82.9 -11.7"/>
      <polygon class="st8" points="83.9 -12 85.4 -12.7 198.1 270.7 196.6 271.4 83.9 -12"/>
      <polygon class="st26" points="84.9 -12.3 86.4 -13 199.1 270.4 197.6 270.9 84.9 -12.3"/>
      <polygon class="st26" points="85.9 -12.8 87.6 -13.5 200.3 269.8 198.6 270.5 85.9 -12.8"/>
      <polygon class="st26" points="87.1 -13.2 88.7 -13.9 201.4 269.5 199.6 270 87.1 -13.2"/>
      <polygon class="st26" points="88.1 -13.7 89.7 -14.2 202.4 269 200.9 269.7 88.1 -13.7"/>
      <polygon class="st26" points="89.2 -14 90.7 -14.7 203.4 268.6 201.9 269.3 89.2 -14"/>
      <polygon class="st54" points="90.2 -14.6 91.7 -15.1 204.4 268.3 202.9 268.8 90.2 -14.6"/>
      <polygon class="st54" points="91.2 -14.9 92.8 -15.6 205.5 267.8 203.9 268.5 91.2 -14.9"/>
      <polygon class="st54" points="92.3 -15.4 93.8 -15.9 206.5 267.4 205 268 92.3 -15.4"/>
      <polygon class="st54" points="93.3 -15.8 94.8 -16.4 207.5 266.9 206 267.6 93.3 -15.8"/>
      <polygon class="st54" points="94.3 -16.1 96 -16.8 208.5 266.6 207 267.1 94.3 -16.1"/>
      <polygon class="st21" points="95.5 -16.6 97 -17.1 209.7 266.1 208 266.8 95.5 -16.6"/>
      <polygon class="st21" points="96.5 -17 98.1 -17.6 210.8 265.7 209.2 266.4 96.5 -17"/>
      <polygon class="st21" points="97.6 -17.5 99.1 -18 211.8 265.4 210.3 265.9 97.6 -17.5"/>
      <polygon class="st21" points="98.6 -17.8 100.1 -18.5 212.8 264.9 211.3 265.6 98.6 -17.8"/>
      <polygon class="st21" points="99.6 -18.3 101.1 -18.8 213.9 264.5 212.3 265.1 99.6 -18.3"/>
      <polygon class="st44" points="100.6 -18.7 102.2 -19.3 214.9 264 213.3 264.7 100.6 -18.7"/>
      <polygon class="st44" points="101.7 -19 103.2 -19.7 215.9 263.7 214.4 264.2 101.7 -19"/>
      <polygon class="st44" points="102.7 -19.5 104.4 -20 216.9 263.2 215.4 263.9 102.7 -19.5"/>
      <polygon class="st44" points="103.7 -19.9 105.4 -20.5 218.1 262.8 216.4 263.5 103.7 -19.9"/>
      <polygon class="st44" points="104.9 -20.4 106.4 -20.9 219.1 262.3 217.4 263 104.9 -20.4"/>
      <polygon class="st46" points="105.9 -20.7 107.5 -21.4 220.2 262 218.6 262.7 105.9 -20.7"/>
      <polygon class="st46" points="107 -21.2 108.5 -21.7 221.2 261.6 219.7 262.1 107 -21.2"/>
      <polygon class="st0" points="108 -21.6 109.5 -22.3 222.2 261.1 220.7 261.8 108 -21.6"/>
      <polygon class="st0" points="109 -21.9 110.6 -22.6 223.2 260.8 221.7 261.3 109 -21.9"/>
      <polygon class="st0" points="110 -22.4 111.6 -23.1 224.3 260.3 222.7 260.9 110 -22.4"/>
      <polygon class="st4" points="111.1 -22.8 112.6 -23.5 225.3 259.9 223.8 260.6 111.1 -22.8"/>
      <polygon class="st4" points="112.1 -23.3 113.8 -23.8 226.5 259.4 224.8 260.1 112.1 -23.3"/>
      <polygon class="st4" points="113.3 -23.6 114.8 -24.3 227.5 259.1 225.8 259.8 113.3 -23.6"/>
      <polygon class="st4" points="114.3 -24.1 115.9 -24.6 228.5 258.7 227 259.2 114.3 -24.1"/>
      <polygon class="st4" points="115.3 -24.5 116.9 -25.2 229.6 258.2 228 258.9 115.3 -24.5"/>
      <polygon class="st11" points="116.4 -24.8 117.9 -25.5 230.6 257.9 229.1 258.4 116.4 -24.8"/>
      <polygon class="st11" points="117.4 -25.3 118.9 -26 231.6 257.4 230.1 258 117.4 -25.3"/>
      <polygon class="st11" points="118.4 -25.7 120 -26.4 232.7 257 231.1 257.5 118.4 -25.7"/>
      <polygon class="st11" points="119.4 -26.2 121 -26.7 233.7 256.5 232.1 257.2 119.4 -26.2"/>
      <polygon class="st11" points="120.5 -26.5 122.2 -27.2 234.7 256.2 233.2 256.8 120.5 -26.5"/>
      <polygon class="st45" points="121.5 -27 123.2 -27.6 235.9 255.8 234.2 256.3 121.5 -27"/>
      <polygon class="st45" points="122.7 -27.4 124.2 -28.1 236.9 255.3 235.4 256 122.7 -27.4"/>
      <polygon class="st45" points="123.7 -27.9 125.3 -28.4 238 255 236.4 255.5 123.7 -27.9"/>
      <polygon class="st45" points="124.8 -28.2 126.3 -28.9 239 254.4 237.5 255.1 124.8 -28.2"/>
      <polygon class="st45" points="125.8 -28.6 127.3 -29.3 240 254.1 238.5 254.6 125.8 -28.6"/>
      <polygon class="st7" points="126.8 -29.1 128.3 -29.6 241 253.6 239.5 254.3 126.8 -29.1"/>
      <polygon class="st7" points="127.8 -29.4 129.4 -30.1 242.1 253.3 240.5 253.9 127.8 -29.4"/>
      <polygon class="st7" points="128.9 -30 130.4 -30.5 243.1 252.9 241.5 253.4 128.9 -30"/>
      <polygon class="st7" points="129.9 -30.3 131.6 -31 244.3 252.4 242.6 253.1 129.9 -30.3"/>
      <polygon class="st7" points="131.1 -30.8 132.6 -31.3 245.3 252.1 243.6 252.6 131.1 -30.8"/>
      <polygon class="st47" points="132.1 -31.1 133.6 -31.8 246.3 251.5 244.8 252.2 132.1 -31.1"/>
      <polygon class="st47" points="133.1 -31.5 134.7 -32.2 247.4 251.2 245.8 251.7 133.1 -31.5"/>
      <polygon class="st47" points="134.1 -32 135.7 -32.5 248.4 250.7 246.9 251.4 134.1 -32"/>
      <polygon class="st47" points="135.2 -32.3 136.7 -33 249.4 250.3 247.9 251 135.2 -32.3"/>
      <polygon class="st47" points="136.2 -32.9 137.8 -33.4 250.4 249.8 248.9 250.5 136.2 -32.9"/>
      <polygon class="st30" points="137.2 -33.2 138.8 -33.9 251.5 249.5 249.9 250.2 137.2 -33.2"/>
      <polygon class="st30" points="138.3 -33.7 140 -34.2 252.5 249.1 251 249.7 138.3 -33.7"/>
      <polygon class="st30" points="139.3 -34.1 141 -34.7 253.7 248.6 252 249.3 139.3 -34.1"/>
      <polygon class="st30" points="140.5 -34.4 142 -35.1 254.7 248.3 253.2 248.8 140.5 -34.4"/>
      <polygon class="st30" points="141.5 -34.9 143 -35.6 255.8 247.8 254.2 248.5 141.5 -34.9"/>
      <polygon class="st18" points="142.5 -35.3 144.1 -35.9 256.8 247.4 255.2 248.1 142.5 -35.3"/>
      <polygon class="st18" points="143.6 -35.8 145.1 -36.3 257.8 246.9 256.3 247.6 143.6 -35.8"/>
      <polygon class="st18" points="144.6 -36.1 146.1 -36.8 258.8 246.6 257.3 247.3 144.6 -36.1"/>
      <polygon class="st18" points="145.6 -36.6 147.1 -37.1 259.9 246.2 258.3 246.8 145.6 -36.6"/>
      <polygon class="st18" points="146.6 -37 148.2 -37.6 260.9 245.7 259.3 246.4 146.6 -37"/>
      <polygon class="st27" points="147.7 -37.3 149.4 -38 262.1 245.4 260.4 245.9 147.7 -37.3"/>
      <polygon class="st27" points="148.9 -37.8 150.4 -38.5 263.1 244.9 261.4 245.6 148.9 -37.8"/>
      <polygon class="st27" points="149.9 -38.2 151.4 -38.8 264.1 244.5 262.6 245 149.9 -38.2"/>
      <polygon class="st27" points="150.9 -38.7 152.5 -39.2 265.1 244 263.6 244.7 150.9 -38.7"/>
      <polygon class="st10" points="151.9 -39 153.5 -39.7 266.2 243.7 264.6 244.4 151.9 -39"/>
      <polygon class="st10" points="153 -39.5 154.5 -40 267.2 243.3 265.7 243.8 153 -39.5"/>
      <polygon class="st10" points="154 -39.9 155.5 -40.6 268.2 242.8 266.7 243.5 154 -39.9"/>
      <polygon class="st10" points="155 -40.4 156.6 -40.9 269.3 242.5 267.7 243 155 -40.4"/>
      <polygon class="st10" points="156 -40.7 157.8 -41.4 270.3 242 268.7 242.6 156 -40.7"/>
      <polygon class="st48" points="157.1 -41.1 158.8 -41.8 271.5 241.6 269.8 242.1 157.1 -41.1"/>
      <polygon class="st48" points="158.3 -41.6 159.8 -42.1 272.5 241.1 271 241.8 158.3 -41.6"/>
      <polygon class="st48" points="159.3 -41.9 160.8 -42.6 273.5 240.8 272 241.5 159.3 -41.9"/>
      <polygon class="st48" points="160.3 -42.4 161.9 -42.9 274.6 240.4 273 240.9 160.3 -42.4"/>
      <polygon class="st48" points="161.4 -42.8 162.9 -43.5 275.6 239.9 274 240.6 161.4 -42.8"/>
      <polygon class="st43" points="162.4 -43.3 163.9 -43.8 276.6 239.6 275.1 240.1 162.4 -43.3"/>
      <polygon class="st43" points="163.4 -43.6 164.9 -44.3 277.6 239.1 276.1 239.7 163.4 -43.6"/>
      <polygon class="st43" points="164.4 -44 166 -44.7 278.7 238.7 277.1 239.2 164.4 -44"/>
      <polygon class="st43" points="165.5 -44.5 167.2 -45 279.9 238.2 278.1 238.9 165.5 -44.5"/>
      <polygon class="st52" points="166.6 -44.8 168.2 -45.5 280.9 237.9 279.2 238.5 166.6 -44.8"/>
      <polygon class="st52" points="167.7 -45.3 169.2 -45.9 281.9 237.3 280.4 238 167.7 -45.3"/>
      <polygon class="st52" points="168.7 -45.7 170.2 -46.4 282.9 237 281.4 237.7 168.7 -45.7"/>
      <polygon class="st52" points="169.7 -46.2 171.3 -46.7 284 236.7 282.4 237.2 169.7 -46.2"/>
      <polygon class="st52" points="170.8 -46.5 172.3 -47.2 285 236.2 283.5 236.8 170.8 -46.5"/>
      <polygon class="st1" points="171.8 -46.9 173.3 -47.6 286 235.8 284.5 236.3 171.8 -46.9"/>
      <polygon class="st1" points="172.8 -47.4 174.3 -48.1 287 235.3 285.5 236 172.8 -47.4"/>
      <polygon class="st1" points="173.8 -47.7 175.5 -48.4 288.1 235 286.5 235.6 173.8 -47.7"/>
      <polygon class="st12" points="174.9 -48.2 176.6 -48.8 289.3 234.4 287.6 235.1 174.9 -48.2"/>
      <polygon class="st23" points="176 -48.6 177.6 -49.3 290.3 234.1 288.8 234.8 176 -48.6"/>
      <polygon class="st23" points="177.1 -49.1 178.6 -49.6 291.3 233.8 289.8 234.3 177.1 -49.1"/>
      <polygon class="st23" points="178.1 -49.4 179.6 -50.1 292.3 233.2 290.8 233.9 178.1 -49.4"/>
      <polygon class="st23" points="179.1 -49.8 180.7 -50.5 293.4 232.9 291.8 233.4 179.1 -49.8"/>
      <polygon class="st23" points="180.2 -50.3 181.7 -51 294.4 232.4 292.9 233.1 180.2 -50.3"/>
      <polygon class="st13" points="181.2 -50.6 182.7 -51.3 295.4 232 293.9 232.6 181.2 -50.6"/>
      <polygon class="st13" points="182.2 -51.2 183.8 -51.7 296.5 231.5 294.9 232.2 182.2 -51.2"/>
      <polygon class="st13" points="183.2 -51.5 185 -52.2 297.6 231.2 295.9 231.9 183.2 -51.5"/>
      <polygon class="st13" points="184.4 -52 186 -52.5 298.7 230.8 297 231.4 184.4 -52"/>
      <polygon class="st13" points="185.5 -52.4 187 -53 299.7 230.3 298.2 231 185.5 -52.4"/>
      <polygon class="st38" points="186.5 -52.9 188 -53.4 300.7 230 299.2 230.5 186.5 -52.9"/>
      <polygon class="st38" points="187.5 -53.2 189 -53.9 301.8 229.5 300.2 230.2 187.5 -53.2"/>
      <polygon class="st38" points="188.5 -53.6 190.1 -54.2 302.8 229.1 301.2 229.7 188.5 -53.6"/>
      <polygon class="st38" points="189.6 -54.1 191.1 -54.6 303.8 228.6 302.3 229.3 189.6 -54.1"/>
      <polygon class="st19" points="190.6 -54.4 192.1 -55.1 304.8 228.3 303.3 229 190.6 -54.4"/>
      <polygon class="st19" points="191.6 -54.9 193.3 -55.4 305.9 227.9 304.3 228.5 191.6 -54.9"/>
      <polygon class="st19" points="192.6 -55.3 194.4 -55.9 307 227.4 305.3 228.1 192.6 -55.3"/>
      <polygon class="st19" points="193.8 -55.8 195.4 -56.3 308.1 227.1 306.5 227.6 193.8 -55.8"/>
      <polygon class="st19" points="194.9 -56.1 196.4 -56.8 309.1 226.6 307.6 227.3 194.9 -56.1"/>
      <polygon class="st17" points="195.9 -56.5 197.4 -57.1 310.1 226.2 308.6 226.7 195.9 -56.5"/>
      <polygon class="st17" points="196.9 -57 198.5 -57.5 311.2 225.7 309.6 226.4 196.9 -57"/>
      <polygon class="st17" points="197.9 -57.3 199.5 -58 312.2 225.4 310.6 226.1 197.9 -57.3"/>
      <polygon class="st17" points="199 -57.8 200.5 -58.3 313.2 224.9 311.7 225.5 199 -57.8"/>
      <polygon class="st17" points="200 -58.2 201.5 -58.9 314.2 224.5 312.7 225.2 200 -58.2"/>
      <polygon class="st39" points="201 -58.7 202.7 -59.2 315.4 224.2 313.7 224.7 201 -58.7"/>
      <polygon class="st39" points="202.2 -59 203.8 -59.7 316.5 223.7 314.8 224.4 202.2 -59"/>
      <polygon class="st39" points="203.2 -59.4 204.8 -60 317.5 223.3 315.9 223.8 203.2 -59.4"/>
      <polygon class="st39" points="204.3 -59.9 205.8 -60.6 318.5 222.8 317 223.5 204.3 -59.9"/>
      <polygon class="st28" points="205.3 -60.2 206.8 -60.9 319.5 222.5 318 223.2 205.3 -60.2"/>
      <polygon class="st28" points="206.3 -60.7 207.9 -61.2 320.6 222 319 222.6 206.3 -60.7"/>
      <polygon class="st28" points="207.4 -61.1 208.9 -61.8 321.6 221.6 320 222.3 207.4 -61.1"/>
      <polygon class="st28" points="208.4 -61.6 209.9 -62.1 322.6 221.3 321.1 221.8 208.4 -61.6"/>
      <polygon class="st28" points="209.4 -61.9 211.1 -62.6 323.6 220.8 322.1 221.4 209.4 -61.9"/>
      <polygon class="st29" points="210.4 -62.3 212.1 -63 324.8 220.4 323.1 220.9 210.4 -62.3"/>
      <polygon class="st29" points="211.6 -62.8 213.2 -63.5 325.9 219.9 324.3 220.6 211.6 -62.8"/>
      <polygon class="st29" points="212.6 -63.1 214.2 -63.8 326.9 219.6 325.4 220.1 212.6 -63.1"/>
      <polygon class="st29" points="213.7 -63.6 215.2 -64.2 327.9 219 326.4 219.7 213.7 -63.6"/>
      <polygon class="st51" points="214.7 -64 216.2 -64.7 328.9 218.7 327.4 219.4 214.7 -64"/>
      <polygon class="st51" points="215.7 -64.5 217.3 -65 330 218.4 328.4 218.9 215.7 -64.5"/>
      <polygon class="st51" points="216.8 -64.8 218.3 -65.5 331 217.9 329.5 218.5 216.8 -64.8"/>
      <polygon class="st51" points="217.8 -65.4 219.3 -65.9 332 217.5 330.5 218 217.8 -65.4"/>
      <polygon class="st51" points="218.8 -65.7 220.5 -66.4 333.2 217 331.5 217.7 218.8 -65.7"/>
      <polygon class="st33" points="220 -66 221.5 -66.7 334.2 216.7 332.5 217.2 220 -66"/>
      <polygon class="st33" points="221 -66.5 222.6 -67.1 335.3 216.1 333.7 216.8 221 -66.5"/>
      <polygon class="st33" points="222.1 -66.9 223.6 -67.6 336.3 215.8 334.8 216.5 222.1 -66.9"/>
      <polygon class="st33" points="223.1 -67.4 224.6 -67.9 337.3 215.5 335.8 216 223.1 -67.4"/>
      <polygon class="st33" points="224.1 -67.7 225.6 -68.4 338.4 214.9 336.8 215.6 224.1 -67.7"/>
      <polygon class="st5" points="225.1 -68.3 226.7 -68.8 339.4 214.6 337.8 215.1 225.1 -68.3"/>
      <polygon class="st5" points="226.2 -68.6 227.7 -69.3 340.4 214.1 338.9 214.8 226.2 -68.6"/>
      <polygon class="st5" points="227.2 -68.9 228.9 -69.6 341.4 213.7 339.9 214.3 227.2 -68.9"/>
      <polygon class="st35" points="228.2 -69.5 229.9 -70 342.6 213.2 340.9 213.9 228.2 -69.5"/>
      <polygon class="st34" points="229.4 -69.8 231 -70.5 343.6 212.9 342.1 213.6 229.4 -69.8"/>
      <polygon class="st34" points="230.4 -70.3 232 -70.8 344.7 212.4 343.1 213.1 230.4 -70.3"/>
      <polygon class="st34" points="231.5 -70.7 233 -71.3 345.7 212 344.2 212.7 231.5 -70.7"/>
      <polygon class="st34" points="232.5 -71.2 234 -71.7 346.7 211.7 345.2 212.2 232.5 -71.2"/>
      <polygon class="st34" points="233.5 -71.5 235 -72.2 347.8 211.2 346.2 211.9 233.5 -71.5"/>
      <polygon class="st58" points="234.5 -71.8 236.1 -72.5 348.8 210.8 347.2 211.4 234.5 -71.8"/>
      <polygon class="st58" points="235.6 -72.4 237.3 -73 349.8 210.3 348.3 211 235.6 -72.4"/>
      <polygon class="st58" points="236.6 -72.7 238.3 -73.4 351 210 349.3 210.7 236.6 -72.7"/>
      <polygon class="st58" points="237.8 -73.2 239.3 -73.7 352 209.5 350.3 210.2 237.8 -73.2"/>
      <polygon class="st37" points="238.8 -73.6 240.4 -74.2 353 209.1 351.5 209.8 238.8 -73.6"/>
      <polygon class="st37" points="239.8 -74.1 241.4 -74.6 354.1 208.8 352.5 209.3 239.8 -74.1"/>
      <polygon class="st37" points="240.9 -74.4 242.4 -75.1 355.1 208.3 353.6 209 240.9 -74.4"/>
      <polygon class="st37" points="241.9 -74.8 243.4 -75.4 356.1 207.9 354.6 208.4 241.9 -74.8"/>
      <polygon class="st37" points="242.9 -75.3 244.5 -76 357.2 207.4 355.6 208.1 242.9 -75.3"/>
      <polygon class="st22" points="244 -75.6 245.5 -76.3 358.2 207.1 356.6 207.8 244 -75.6"/>
      <polygon class="st22" points="245 -76.1 246.7 -76.6 359.4 206.6 357.7 207.2 245 -76.1"/>
      <polygon class="st22" points="246.2 -76.5 247.7 -77.2 360.4 206.2 358.7 206.9 246.2 -76.5"/>
      <polygon class="st22" points="247.2 -77 248.7 -77.5 361.4 205.9 359.9 206.4 247.2 -77"/>
      <polygon class="st22" points="248.2 -77.3 249.8 -78 362.5 205.4 360.9 206.1 248.2 -77.3"/>
      <polygon class="st50" points="249.2 -77.8 250.8 -78.3 363.5 205 362 205.5 249.2 -77.8"/>
      <polygon class="st50" points="250.3 -78.2 251.8 -78.9 364.5 204.5 363 205.2 250.3 -78.2"/>
      <polygon class="st50" points="251.3 -78.5 252.8 -79.2 365.5 204.2 364 204.7 251.3 -78.5"/>
      <polygon class="st50" points="252.3 -79 253.9 -79.5 366.6 203.7 365 204.3 252.3 -79"/>
      <polygon class="st31" points="253.4 -79.4 255.1 -80.1 367.6 203.3 366 204 253.4 -79.4"/>
      <polygon class="st31" points="254.4 -79.9 256.1 -80.4 368.8 203 367.1 203.5 254.4 -79.9"/>
      <polygon class="st31" points="255.6 -80.2 257.1 -80.9 369.8 202.5 368.3 203.1 255.6 -80.2"/>
      <polygon class="st31" points="256.6 -80.7 258.1 -81.3 370.8 202.1 369.3 202.6 256.6 -80.7"/>
      <polygon class="st31" points="257.6 -81.1 259.2 -81.8 371.9 201.6 370.3 202.3 257.6 -81.1"/>
      <polygon class="st3" points="258.6 -81.4 260.2 -82.1 372.9 201.3 371.4 201.8 258.6 -81.4"/>
      <polygon class="st3" points="259.7 -81.9 261.2 -82.5 373.9 200.7 372.4 201.4 259.7 -81.9"/>
      <polygon class="st3" points="260.7 -82.3 262.2 -83 374.9 200.4 373.4 201.1 260.7 -82.3"/>
      <polygon class="st3" points="261.7 -82.8 263.3 -83.3 376 199.9 374.4 200.6 261.7 -82.8"/>
      <polygon class="st3" points="262.8 -83.1 264.5 -83.8 377.2 199.6 375.5 200.2 262.8 -83.1"/>
      <polygon class="st6" points="264 -83.6 265.5 -84.2 378.2 199.2 376.5 199.7 264 -83.6"/>
      <polygon class="st6" points="265 -84 266.5 -84.7 379.2 198.7 377.7 199.4 265 -84"/>
      <polygon class="st6" points="266 -84.3 267.5 -85 380.2 198.4 378.7 198.9 266 -84.3"/>
      <polygon class="st6" points="267 -84.8 268.6 -85.5 381.3 197.8 379.7 198.5 267 -84.8"/>
      <polygon class="st36" points="268.1 -85.2 269.6 -85.9 382.3 197.5 380.8 198.2 268.1 -85.2"/>
      <polygon class="st36" points="269.1 -85.7 270.6 -86.2 383.3 197 381.8 197.7 269.1 -85.7"/>
      <rect class="st62" x="321.1" y="-124.6" width="150.4" height="305" transform="translate(17.8 148.5) rotate(-21.7)"/>
    </g>
  </g>
  <path class="st59" d="M77.9,136.6c15.2,0,29.2-6.8,36.9-21.9l-13.8-7.7c-5,9.1-13.3,13.8-23.1,13.8-14.5,0-26.7-12.7-26.7-27.9s12.1-27.5,26.7-27.5,18.1,4.8,23.1,13.8l13.9-7.9c-7.7-14.9-21.7-21.9-36.9-21.9-24.1,0-43.6,19.7-43.6,43.6s19.5,43.9,43.5,43.6h0ZM429.8,37.3v63.6c0,12,6.5,19.5,17.4,19.8l-1,16.1c-21.4,0-33.2-14.5-33.2-35.2V37.3h16.8ZM399.4,93v-41.4h-15.9v7.5c-7.7-6-17.4-9.6-28.4-9.6-25.3,0-44.3,19.7-44.3,43.4s17.6,43.8,41.7,43.8,24.6-6.5,31-16.6v14.5h15.9v-41.6h0ZM207.4,93v-41.4h-15.9v7.5c-7.5-6-17.4-9.6-28.4-9.6-25.1,0-44.1,19.7-44.1,43.4s17.6,43.8,41.6,43.8,24.6-6.5,31-16.6v14.5h15.9v-41.6h-.1ZM163.1,120.9c-15.4,0-27.4-12.7-27.4-27.7s12-27.9,27.4-27.9,27.5,12.7,27.5,27.9-11.8,27.7-27.5,27.7h0ZM261.4,65.6c16.6,0,25.1,13.5,25.1,29.1v40h16.8v-42c0-24.1-14.7-43.1-41.9-43.1s-41.2,19-41.2,43.3v41.9h16.8v-40.3c-.1-15.3,8.2-28.9,24.4-28.9h0ZM355.1,120.9c-15.4,0-27.4-12.7-27.4-27.7s12-27.9,27.4-27.9,27.5,12.7,27.5,27.9-11.9,27.7-27.5,27.7h0Z"/>
  <path class="st59" d="M524.2,137c17.6,0,33-9.9,33-25.8,0-31.5-47.9-19-47.9-36.1s6.8-10.8,14.7-10.8,14.4,2.6,18,9.9l13-7.3c-5.3-9.7-15.9-16.8-31.3-16.8s-31.3,10.6-31.3,25.3c0,31.8,47.9,18.5,47.9,36.1s-7.3,11.3-16.8,11.3-16.1-3.1-20.3-11.5l-13,7.2c6.5,12.3,18.5,18.5,34,18.5h0ZM779.7,93v-41.6h-16.1v7.7c-7.5-6.2-17.4-9.6-28.4-9.6-25.3,0-44.5,19.7-44.5,43.4s17.8,44,41.9,44,24.6-6.5,31-16.6v14.5h16.1v-41.8h0ZM674.7,37.6v63.3c0,12.1,6.5,19.7,17.4,20l-.9,16.1c-21.5,0-33.5-14.5-33.5-35.4V37.6h17ZM605.5,137.1c25,0,44.3-19.7,44.3-44s-19.2-43.4-44.3-43.4-44.6,19.5-44.6,43.4,19.4,44,44.6,44h0ZM605.5,121.2c-15.7,0-27.7-12.7-27.7-27.9s12-27.9,27.7-27.9,27.4,12.7,27.4,27.9-11.9,27.9-27.4,27.9h0ZM735.3,121.1c-15.6,0-27.5-12.7-27.5-27.9s12-27.9,27.5-27.9,27.5,12.7,27.5,27.9-12,27.9-27.5,27.9h0ZM809.5,134.9v-48.9c0-12.3,6.7-20,18-20s9.4,1.2,13.5,3.6v-16.6c-4.3-2-9.8-3.1-15-3.1-21.7,0-33.3,15-33.3,35.4v49.6h16.8Z"/>
  <g class="st61">
    <g>
      <polygon class="st9" points="580.8 74.7 584.8 74 590.8 117.5 586.8 118 580.8 74.7"/>
      <polygon class="st9" points="584.8 74 585 74 590.9 117.5 590.8 117.5 584.8 74"/>
      <polygon class="st56" points="585 74 585.1 74 591.1 117.5 590.9 117.5 585 74"/>
      <polygon class="st56" points="585.1 74 585.3 74 591.3 117.5 591.1 117.5 585.1 74"/>
      <polygon class="st56" points="585.1 74 585.5 74 591.5 117.5 591.3 117.5 585.1 74"/>
      <polygon class="st53" points="585.3 74 585.6 74 591.6 117.3 591.5 117.5 585.3 74"/>
      <polygon class="st53" points="585.5 74 585.8 73.9 591.8 117.3 591.6 117.3 585.5 74"/>
      <polygon class="st53" points="585.6 74 586 73.9 592 117.3 591.8 117.3 585.6 74"/>
      <polygon class="st14" points="585.8 73.9 586.2 73.9 592.1 117.3 592 117.3 585.8 73.9"/>
      <polygon class="st14" points="586 73.9 586.3 73.9 592.3 117.3 592.1 117.3 586 73.9"/>
      <polygon class="st14" points="586.2 73.9 586.5 73.9 592.5 117.3 592.3 117.3 586.2 73.9"/>
      <polygon class="st57" points="586.3 73.9 586.7 73.9 592.7 117.3 592.5 117.3 586.3 73.9"/>
      <polygon class="st57" points="586.5 73.9 586.8 73.9 592.8 117.1 592.7 117.3 586.5 73.9"/>
      <polygon class="st57" points="586.7 73.9 587 73.7 593 117.1 592.8 117.1 586.7 73.9"/>
      <polygon class="st32" points="586.8 73.9 587.2 73.7 593.2 117.1 593 117.1 586.8 73.9"/>
      <polygon class="st32" points="587 73.7 587.3 73.7 593.3 117.1 593.2 117.1 587 73.7"/>
      <polygon class="st32" points="587.2 73.7 587.5 73.7 593.5 117.1 593.3 117.1 587.2 73.7"/>
      <polygon class="st49" points="587.3 73.7 587.7 73.7 593.7 117.1 593.5 117.1 587.3 73.7"/>
      <polygon class="st49" points="587.5 73.7 587.9 73.7 593.8 117.1 593.7 117.1 587.5 73.7"/>
      <polygon class="st49" points="587.7 73.7 588 73.7 594 117 593.8 117.1 587.7 73.7"/>
      <polygon class="st24" points="587.9 73.7 588.2 73.7 594.2 117 594 117.1 587.9 73.7"/>
      <polygon class="st20" points="588 73.7 588.4 73.5 594.4 117 594.2 117 588 73.7"/>
      <polygon class="st20" points="588.2 73.5 588.5 73.5 594.5 117 594.4 117 588.2 73.5"/>
      <polygon class="st42" points="588.4 73.5 588.7 73.5 594.7 117 594.5 117 588.4 73.5"/>
      <polygon class="st42" points="588.5 73.5 588.9 73.5 594.9 117 594.7 117 588.5 73.5"/>
      <polygon class="st42" points="588.7 73.5 589.1 73.5 595 117 594.9 117 588.7 73.5"/>
      <polygon class="st15" points="588.9 73.5 589.2 73.5 595.2 116.8 594.9 117 588.9 73.5"/>
      <polygon class="st16" points="589.1 73.5 589.4 73.5 595.4 116.8 595 117 589.1 73.5"/>
      <polygon class="st16" points="589.2 73.5 589.6 73.3 595.6 116.8 595.2 116.8 589.2 73.5"/>
      <polygon class="st41" points="589.4 73.5 589.7 73.3 595.7 116.8 595.4 116.8 589.4 73.5"/>
      <polygon class="st41" points="589.6 73.3 589.9 73.3 595.9 116.8 595.6 116.8 589.6 73.3"/>
      <polygon class="st41" points="589.7 73.3 590.1 73.3 596.1 116.8 595.7 116.8 589.7 73.3"/>
      <polygon class="st2" points="589.9 73.3 590.2 73.3 596.2 116.8 595.9 116.8 589.9 73.3"/>
      <polygon class="st2" points="590.1 73.3 590.4 73.3 596.4 116.8 596.1 116.8 590.1 73.3"/>
      <polygon class="st2" points="590.2 73.3 590.6 73.3 596.6 116.6 596.2 116.8 590.2 73.3"/>
      <polygon class="st40" points="590.4 73.3 590.8 73.2 596.8 116.6 596.4 116.6 590.4 73.3"/>
      <polygon class="st40" points="590.6 73.3 590.9 73.2 596.9 116.6 596.6 116.6 590.6 73.3"/>
      <polygon class="st40" points="590.8 73.2 591.1 73.2 597.1 116.6 596.8 116.6 590.8 73.2"/>
      <polygon class="st55" points="590.9 73.2 591.3 73.2 597.3 116.6 596.9 116.6 590.9 73.2"/>
      <polygon class="st55" points="591.1 73.2 591.5 73.2 597.4 116.6 597.1 116.6 591.1 73.2"/>
      <polygon class="st55" points="591.3 73.2 591.6 73.2 597.6 116.6 597.3 116.6 591.3 73.2"/>
      <polygon class="st25" points="591.5 73.2 591.8 73.2 597.8 116.4 597.4 116.6 591.5 73.2"/>
      <polygon class="st25" points="591.6 73.2 592 73.2 598 116.4 597.6 116.4 591.6 73.2"/>
      <polygon class="st25" points="591.8 73.2 592.1 73 598.1 116.4 597.8 116.4 591.8 73.2"/>
      <polygon class="st8" points="592 73 592.3 73 598.3 116.4 598 116.4 592 73"/>
      <polygon class="st8" points="592.1 73 592.5 73 598.5 116.4 598.1 116.4 592.1 73"/>
      <polygon class="st8" points="592.3 73 592.7 73 598.6 116.4 598.3 116.4 592.3 73"/>
      <polygon class="st26" points="592.5 73 592.8 73 598.8 116.4 598.5 116.4 592.5 73"/>
      <polygon class="st26" points="592.7 73 593 73 599 116.3 598.6 116.4 592.7 73"/>
      <polygon class="st26" points="592.8 73 593.2 73 599.2 116.3 598.8 116.4 592.8 73"/>
      <polygon class="st54" points="593 73 593.3 72.8 599.3 116.3 599 116.3 593 73"/>
      <polygon class="st54" points="593.2 72.8 593.5 72.8 599.5 116.3 599.2 116.3 593.2 72.8"/>
      <polygon class="st54" points="593.3 72.8 593.7 72.8 599.7 116.3 599.3 116.3 593.3 72.8"/>
      <polygon class="st21" points="593.5 72.8 593.8 72.8 599.8 116.3 599.5 116.3 593.5 72.8"/>
      <polygon class="st21" points="593.7 72.8 594 72.8 600 116.3 599.7 116.3 593.7 72.8"/>
      <polygon class="st21" points="593.8 72.8 594.2 72.8 600.2 116.1 599.8 116.3 593.8 72.8"/>
      <polygon class="st44" points="594 72.8 594.4 72.8 600.3 116.1 600 116.3 594 72.8"/>
      <polygon class="st44" points="594.2 72.8 594.5 72.7 600.5 116.1 600.2 116.1 594.2 72.8"/>
      <polygon class="st44" points="594.4 72.8 594.7 72.7 600.7 116.1 600.3 116.1 594.4 72.8"/>
      <polygon class="st46" points="594.5 72.7 594.9 72.7 600.9 116.1 600.5 116.1 594.5 72.7"/>
      <polygon class="st46" points="594.7 72.7 595 72.7 601 116.1 600.7 116.1 594.7 72.7"/>
      <polygon class="st0" points="594.9 72.7 595.2 72.7 601.2 116.1 600.9 116.1 594.9 72.7"/>
      <polygon class="st4" points="595 72.7 595.2 72.7 601.4 116.1 601 116.1 595 72.7"/>
      <polygon class="st4" points="595.2 72.7 595.4 72.7 601.5 115.9 601.2 116.1 595.2 72.7"/>
      <polygon class="st4" points="595.4 72.7 595.6 72.5 601.7 115.9 601.4 115.9 595.4 72.7"/>
      <polygon class="st11" points="595.6 72.7 595.7 72.5 601.9 115.9 601.5 115.9 595.6 72.7"/>
      <polygon class="st11" points="595.7 72.5 595.9 72.5 602 115.9 601.7 115.9 595.7 72.5"/>
      <polygon class="st11" points="595.9 72.5 596.1 72.5 602.2 115.9 601.9 115.9 595.9 72.5"/>
      <polygon class="st45" points="596.1 72.5 596.2 72.5 602.4 115.9 602 115.9 596.1 72.5"/>
      <polygon class="st45" points="596.2 72.5 596.4 72.5 602.6 115.9 602.2 115.9 596.2 72.5"/>
      <polygon class="st45" points="596.4 72.5 596.6 72.5 602.7 115.8 602.4 115.9 596.4 72.5"/>
      <polygon class="st45" points="596.6 72.5 596.8 72.5 602.9 115.8 602.6 115.8 596.6 72.5"/>
      <polygon class="st7" points="596.8 72.5 596.9 72.3 603.1 115.8 602.7 115.8 596.8 72.5"/>
      <polygon class="st7" points="596.9 72.3 597.1 72.3 603.2 115.8 602.9 115.8 596.9 72.3"/>
      <polygon class="st7" points="597.1 72.3 597.3 72.3 603.4 115.8 603.1 115.8 597.1 72.3"/>
      <polygon class="st47" points="597.3 72.3 597.4 72.3 603.6 115.8 603.2 115.8 597.3 72.3"/>
      <polygon class="st47" points="597.4 72.3 597.6 72.3 603.8 115.8 603.4 115.8 597.4 72.3"/>
      <polygon class="st47" points="597.6 72.3 597.8 72.3 603.9 115.6 603.6 115.8 597.6 72.3"/>
      <polygon class="st30" points="597.8 72.3 598 72.3 604.1 115.6 603.8 115.8 597.8 72.3"/>
      <polygon class="st30" points="598 72.3 598.1 72.1 604.3 115.6 603.9 115.6 598 72.3"/>
      <polygon class="st30" points="598.1 72.1 598.3 72.1 604.5 115.6 604.1 115.6 598.1 72.1"/>
      <polygon class="st18" points="598.3 72.1 598.5 72.1 604.6 115.6 604.3 115.6 598.3 72.1"/>
      <polygon class="st18" points="598.5 72.1 598.6 72.1 604.8 115.6 604.5 115.6 598.5 72.1"/>
      <polygon class="st27" points="598.6 72.1 598.8 72.1 605 115.6 604.6 115.6 598.6 72.1"/>
      <polygon class="st27" points="598.8 72.1 599 72.1 605 115.6 604.8 115.6 598.8 72.1"/>
      <polygon class="st27" points="599 72.1 599.2 72.1 605.1 115.4 605 115.6 599 72.1"/>
      <polygon class="st10" points="599.2 72.1 599.3 72 605.3 115.4 605.1 115.4 599.2 72.1"/>
      <polygon class="st10" points="599.3 72.1 599.5 72 605.5 115.4 605.3 115.4 599.3 72.1"/>
      <polygon class="st10" points="599.5 72 599.7 72 605.6 115.4 605.5 115.4 599.5 72"/>
      <polygon class="st48" points="599.7 72 599.8 72 605.8 115.4 605.6 115.4 599.7 72"/>
      <polygon class="st48" points="599.8 72 600 72 606 115.4 605.8 115.4 599.8 72"/>
      <polygon class="st48" points="600 72 600.2 72 606.2 115.4 606 115.4 600 72"/>
      <polygon class="st43" points="600.2 72 600.3 72 606.3 115.2 606.2 115.4 600.2 72"/>
      <polygon class="st43" points="600.3 72 600.5 71.8 606.5 115.2 606.3 115.2 600.3 72"/>
      <polygon class="st43" points="600.5 72 600.7 71.8 606.7 115.2 606.5 115.2 600.5 72"/>
      <polygon class="st52" points="600.7 71.8 600.9 71.8 606.8 115.2 606.7 115.2 600.7 71.8"/>
      <polygon class="st52" points="600.9 71.8 601 71.8 607 115.2 606.8 115.2 600.9 71.8"/>
      <polygon class="st1" points="601 71.8 601.2 71.8 607.2 115.2 607 115.2 601 71.8"/>
      <polygon class="st1" points="601.2 71.8 601.4 71.8 607.4 115.2 607.2 115.2 601.2 71.8"/>
      <polygon class="st12" points="601.4 71.8 601.5 71.8 607.5 115.1 607.4 115.2 601.4 71.8"/>
      <polygon class="st23" points="601.5 71.8 601.7 71.8 607.7 115.1 607.5 115.2 601.5 71.8"/>
      <polygon class="st23" points="601.7 71.8 601.9 71.6 607.9 115.1 607.7 115.1 601.7 71.8"/>
      <polygon class="st23" points="601.9 71.6 602 71.6 608 115.1 607.9 115.1 601.9 71.6"/>
      <polygon class="st13" points="602 71.6 602.2 71.6 608.2 115.1 608 115.1 602 71.6"/>
      <polygon class="st13" points="602.2 71.6 602.4 71.6 608.4 115.1 608.2 115.1 602.2 71.6"/>
      <polygon class="st13" points="602.4 71.6 602.6 71.6 608.5 115.1 608.4 115.1 602.4 71.6"/>
      <polygon class="st38" points="602.6 71.6 602.7 71.6 608.7 114.9 608.5 115.1 602.6 71.6"/>
      <polygon class="st38" points="602.7 71.6 602.9 71.6 608.9 114.9 608.7 115.1 602.7 71.6"/>
      <polygon class="st19" points="602.9 71.6 603.1 71.5 609.1 114.9 608.9 114.9 602.9 71.6"/>
      <polygon class="st19" points="603.1 71.6 603.2 71.5 609.2 114.9 609.1 114.9 603.1 71.6"/>
      <polygon class="st19" points="603.2 71.5 603.4 71.5 609.4 114.9 609.2 114.9 603.2 71.5"/>
      <polygon class="st17" points="603.4 71.5 603.6 71.5 609.6 114.9 609.4 114.9 603.4 71.5"/>
      <polygon class="st17" points="603.6 71.5 603.8 71.5 609.8 114.9 609.6 114.9 603.6 71.5"/>
      <polygon class="st17" points="603.8 71.5 603.9 71.5 609.9 114.9 609.8 114.9 603.8 71.5"/>
      <polygon class="st39" points="603.9 71.5 604.1 71.5 610.1 114.7 609.9 114.9 603.9 71.5"/>
      <polygon class="st39" points="604.1 71.5 604.3 71.3 610.3 114.7 610.1 114.7 604.1 71.5"/>
      <polygon class="st39" points="604.3 71.5 604.5 71.3 610.4 114.7 610.3 114.7 604.3 71.5"/>
      <polygon class="st28" points="604.5 71.3 604.6 71.3 610.6 114.7 610.4 114.7 604.5 71.3"/>
      <polygon class="st28" points="604.6 71.3 604.8 71.3 610.8 114.7 610.6 114.7 604.6 71.3"/>
      <polygon class="st28" points="604.8 71.3 605 71.3 611 114.7 610.8 114.7 604.8 71.3"/>
      <polygon class="st29" points="605 71.3 605.1 71.3 611.1 114.7 611 114.7 605 71.3"/>
      <polygon class="st29" points="605.1 71.3 605.3 71.3 611.3 114.6 611.1 114.7 605.1 71.3"/>
      <polygon class="st51" points="605.3 71.3 605.5 71.3 611.5 114.6 611.3 114.6 605.3 71.3"/>
      <polygon class="st51" points="605.3 71.3 605.6 71.1 611.6 114.6 611.5 114.6 605.3 71.3"/>
      <polygon class="st51" points="605.5 71.1 605.8 71.1 611.8 114.6 611.6 114.6 605.5 71.1"/>
      <polygon class="st33" points="605.6 71.1 606 71.1 612 114.6 611.8 114.6 605.6 71.1"/>
      <polygon class="st33" points="605.8 71.1 606.2 71.1 612.1 114.6 612 114.6 605.8 71.1"/>
      <polygon class="st33" points="606 71.1 606.3 71.1 612.3 114.6 612.1 114.6 606 71.1"/>
      <polygon class="st5" points="606.2 71.1 606.5 71.1 612.5 114.4 612.3 114.6 606.2 71.1"/>
      <polygon class="st5" points="606.3 71.1 606.7 71.1 612.7 114.4 612.5 114.6 606.3 71.1"/>
      <polygon class="st35" points="606.5 71.1 606.8 70.9 612.8 114.4 612.7 114.4 606.5 71.1"/>
      <polygon class="st34" points="606.7 70.9 607 70.9 613 114.4 612.8 114.4 606.7 70.9"/>
      <polygon class="st34" points="606.8 70.9 607.2 70.9 613.2 114.4 613 114.4 606.8 70.9"/>
      <polygon class="st34" points="607 70.9 607.4 70.9 613.3 114.4 613.2 114.4 607 70.9"/>
      <polygon class="st58" points="607.2 70.9 607.5 70.9 613.5 114.4 613.3 114.4 607.2 70.9"/>
      <polygon class="st58" points="607.4 70.9 607.7 70.9 613.7 114.2 613.5 114.4 607.4 70.9"/>
      <polygon class="st37" points="607.5 70.9 607.9 70.9 613.8 114.2 613.7 114.4 607.5 70.9"/>
      <polygon class="st37" points="607.7 70.9 608 70.8 614 114.2 613.8 114.2 607.7 70.9"/>
      <polygon class="st37" points="607.9 70.9 608.2 70.8 614.2 114.2 614 114.2 607.9 70.9"/>
      <polygon class="st22" points="608 70.8 608.4 70.8 614.4 114.2 614.2 114.2 608 70.8"/>
      <polygon class="st22" points="608.2 70.8 608.5 70.8 614.5 114.2 614.4 114.2 608.2 70.8"/>
      <polygon class="st22" points="608.4 70.8 608.7 70.8 614.7 114.2 614.5 114.2 608.4 70.8"/>
      <polygon class="st50" points="608.5 70.8 608.9 70.8 614.9 114.2 614.7 114.2 608.5 70.8"/>
      <polygon class="st50" points="608.7 70.8 609.1 70.8 615 114 614.9 114.2 608.7 70.8"/>
      <polygon class="st50" points="608.9 70.8 609.2 70.6 615.2 114 615 114 608.9 70.8"/>
      <polygon class="st31" points="609.1 70.8 609.4 70.6 615.4 114 615 114 609.1 70.8"/>
      <polygon class="st31" points="609.2 70.6 609.6 70.6 615.6 114 615.2 114 609.2 70.6"/>
      <polygon class="st31" points="609.4 70.6 609.8 70.6 615.7 114 615.4 114 609.4 70.6"/>
      <polygon class="st3" points="609.6 70.6 609.9 70.6 615.9 114 615.6 114 609.6 70.6"/>
      <polygon class="st3" points="609.8 70.6 610.1 70.6 616.1 114 615.7 114 609.8 70.6"/>
      <polygon class="st6" points="609.9 70.6 610.3 70.6 616.2 113.9 615.9 114 609.9 70.6"/>
      <polygon class="st6" points="610.1 70.6 610.4 70.6 616.4 113.9 616.1 113.9 610.1 70.6"/>
      <polygon class="st6" points="610.3 70.6 610.6 70.4 616.6 113.9 616.2 113.9 610.3 70.6"/>
      <polygon class="st36" points="610.4 70.4 610.8 70.4 616.8 113.9 616.4 113.9 610.4 70.4"/>
      <polygon class="st36" points="610.6 70.4 623.8 68.7 629.9 112 616.6 113.9 610.6 70.4"/>
    </g>
  </g>
</svg>