<?xml version="1.0" encoding="UTF-8"?>
<svg id="Camada_2" data-name="Camada 2" xmlns="http://www.w3.org/2000/svg" viewBox="0 0 138.95 137.66">
  <defs>
    <style>
      .cls-1 {
        fill: #1d1d1b;
      }

      .cls-2 {
        fill: #fff;
      }

      .cls-3 {
        fill: #03a671;
      }

      .cls-4 {
        fill: #d1d0d0;
      }
    </style>
  </defs>
  <g id="Camada_1-2" data-name="Camada 1">
    <g>
      <rect class="cls-3" width="138.95" height="137.66" rx="3.6" ry="3.6"/>
      <path class="cls-4" d="M0,92.65h138.95v41.54c0,1.92-1.56,3.48-3.48,3.48H3.48c-1.92,0-3.48-1.56-3.48-3.48v-41.54h0Z"/>
      <polygon class="cls-2" points="90.84 19.39 100.75 4.5 123.53 4.5 123.53 84.08 108.28 84.08 108.28 19.39 90.84 19.39"/>
      <g>
        <path class="cls-2" d="M22.22,83.01v-26.79h-6.34c-.43,0-.71-.29-.71-.74v-5.41c0-.44.29-.74.71-.74h20.26c.43,0,.76.29.76.74v5.41c0,.44-.33.74-.76.74h-6.34v26.79c0,.44-.29.74-.72.74h-6.1c-.43,0-.76-.29-.76-.74Z"/>
        <path class="cls-2" d="M38.99,83.01v-32.93c0-.44.29-.74.72-.74h6.1c.43,0,.71.29.71.74v32.93c0,.44-.29.74-.71.74h-6.1c-.43,0-.72-.29-.72-.74Z"/>
        <path class="cls-2" d="M53.21,83.01v-32.93c0-.44.29-.74.72-.74h17.21c.43,0,.72.29.72.74v5.41c0,.44-.29.74-.72.74h-10.39v6.73h9.77c.43,0,.72.29.72.74v5.41c0,.44-.29.74-.72.74h-9.77v7.03h10.34c.43,0,.76.29.76.74v5.41c0,.44-.33.74-.76.74h-17.16c-.43,0-.72-.29-.72-.74Z"/>
        <path class="cls-2" d="M93.29,83.26l-6.82-11.35h-1.72v11.11c0,.44-.29.74-.71.74h-6.1c-.43,0-.72-.29-.72-.74v-32.93c0-.44.29-.74.72-.74h10.25c8.06,0,11.87,4.62,11.87,11.3,0,4.87-2.05,8.65-6.29,10.32l7.39,11.89c.33.54.1.88-.48.88h-6.53c-.38,0-.67-.15-.86-.49ZM88,65.03c2.53,0,4.86-.84,4.86-4.37s-2.34-4.42-4.86-4.42h-3.24v8.8h3.24Z"/>
      </g>
      <g>
        <path class="cls-1" d="M10.49,113.48v-16.21h7.04c1.08,0,1.99.16,2.74.47.75.32,1.32.78,1.7,1.38.39.6.58,1.32.58,2.15,0,.93-.23,1.7-.69,2.32-.46.62-1.13,1.04-1.99,1.27l-.02-.46c.71.17,1.33.45,1.88.83.54.39.96.86,1.25,1.44.29.57.44,1.22.44,1.94,0,.8-.13,1.51-.39,2.12-.26.61-.65,1.12-1.16,1.52s-1.11.71-1.79.91c-.69.21-1.46.31-2.3.31h-7.27ZM13.82,103.85h3.29c.42,0,.78-.08,1.09-.23.31-.15.54-.36.71-.62.16-.26.24-.57.24-.93,0-.57-.19-1.01-.56-1.32-.37-.31-.93-.46-1.67-.46h-3.1v3.57ZM13.82,110.47h3.8c.49,0,.91-.07,1.26-.22s.61-.37.8-.68c.19-.31.28-.67.28-1.09s-.1-.74-.3-1.02c-.2-.28-.48-.49-.84-.64-.36-.15-.8-.22-1.31-.22h-3.68v3.87Z"/>
        <path class="cls-1" d="M26.05,113.48v-17.13h3.29v17.13h-3.29Z"/>
        <path class="cls-1" d="M38.13,113.71c-1.25,0-2.37-.27-3.35-.82-.98-.55-1.75-1.3-2.32-2.26-.56-.96-.85-2.05-.85-3.29s.28-2.33.85-3.28c.56-.95,1.33-1.7,2.32-2.26.98-.56,2.1-.83,3.35-.83s2.34.28,3.32.83c.98.56,1.75,1.31,2.3,2.26s.83,2.04.83,3.28-.28,2.33-.83,3.29-1.32,1.71-2.3,2.26c-.98.55-2.09.82-3.32.82ZM38.13,110.84c.6,0,1.14-.15,1.62-.45.48-.3.85-.72,1.12-1.25s.41-1.13.41-1.79-.14-1.28-.41-1.82c-.27-.53-.64-.95-1.12-1.25-.48-.3-1.02-.45-1.62-.45s-1.17.15-1.64.46c-.48.31-.86.73-1.13,1.25-.28.53-.41,1.13-.39,1.81-.02.66.12,1.26.39,1.79s.66.95,1.13,1.25c.48.3,1.03.45,1.64.45Z"/>
        <path class="cls-1" d="M52.77,113.71c-1.25,0-2.37-.27-3.35-.82-.98-.55-1.75-1.3-2.32-2.26-.56-.96-.85-2.05-.85-3.29s.28-2.33.85-3.28c.56-.95,1.33-1.7,2.32-2.26.98-.56,2.1-.83,3.35-.83s2.34.28,3.32.83c.98.56,1.75,1.31,2.3,2.26s.83,2.04.83,3.28-.28,2.33-.83,3.29-1.32,1.71-2.3,2.26c-.98.55-2.09.82-3.32.82ZM52.77,110.84c.6,0,1.14-.15,1.62-.45.48-.3.85-.72,1.12-1.25s.41-1.13.41-1.79-.14-1.28-.41-1.82c-.27-.53-.64-.95-1.12-1.25-.48-.3-1.02-.45-1.62-.45s-1.17.15-1.64.46c-.48.31-.86.73-1.13,1.25-.28.53-.41,1.13-.39,1.81-.02.66.12,1.26.39,1.79s.66.95,1.13,1.25c.48.3,1.03.45,1.64.45Z"/>
        <path class="cls-1" d="M61.68,113.48v-12.25h3.17l.07,2.34-.49.09c.17-.4.39-.76.67-1.09s.61-.6.98-.83.78-.41,1.19-.54c.42-.13.83-.2,1.25-.2.63,0,1.2.1,1.71.3.51.2.94.51,1.3.94.35.42.63.98.83,1.68l-.51-.05.16-.37c.2-.37.46-.71.76-1.01.31-.3.66-.56,1.04-.79.39-.22.79-.4,1.2-.52.42-.12.83-.19,1.23-.19.96,0,1.75.19,2.38.57.63.38,1.11.95,1.42,1.7.32.76.47,1.68.47,2.78v7.43h-3.29v-7.2c0-.56-.08-1.01-.23-1.37-.15-.35-.38-.62-.67-.8-.29-.18-.67-.27-1.13-.27-.36,0-.68.06-.98.17-.3.12-.56.28-.79.49s-.4.45-.52.73c-.12.28-.19.59-.19.93v7.32h-3.29v-7.22c0-.51-.08-.95-.24-1.31-.16-.36-.39-.64-.68-.82-.29-.19-.66-.28-1.09-.28-.35,0-.68.06-.98.17-.3.12-.56.28-.78.49-.22.21-.39.45-.52.73-.13.28-.2.58-.2.9v7.34h-3.29Z"/>
        <path class="cls-1" d="M90.74,113.71c-.54,0-1.06-.08-1.57-.23-.51-.15-.97-.37-1.39-.64-.42-.27-.76-.58-1.04-.93s-.46-.71-.53-1.08l.74-.28-.16,2.87h-3.1v-17.09h3.29v7.76l-.62-.25c.09-.37.27-.73.53-1.08.26-.35.59-.66,1-.93.4-.27.84-.48,1.32-.64s.97-.23,1.48-.23c1.06,0,2.01.27,2.85.82s1.49,1.3,1.98,2.26c.49.96.73,2.05.73,3.29s-.24,2.33-.72,3.29-1.13,1.71-1.96,2.26-1.76.82-2.81.82ZM89.95,110.91c.62,0,1.15-.15,1.61-.45s.81-.72,1.08-1.25.39-1.15.39-1.86-.13-1.31-.38-1.85-.61-.96-1.08-1.25c-.46-.29-1-.44-1.62-.44s-1.16.15-1.62.44c-.46.29-.83.71-1.09,1.25-.26.54-.39,1.16-.39,1.85s.13,1.33.39,1.86c.26.53.62.95,1.09,1.25.46.3,1,.45,1.62.45Z"/>
        <path class="cls-1" d="M104.51,113.71c-1.33,0-2.49-.27-3.47-.81-.99-.54-1.76-1.28-2.32-2.22-.56-.94-.83-2.02-.83-3.24,0-.94.15-1.81.46-2.59s.74-1.47,1.3-2.05c.56-.58,1.22-1.03,1.98-1.34.76-.32,1.59-.47,2.49-.47.83,0,1.61.15,2.32.45s1.32.73,1.84,1.27c.52.55.91,1.19,1.19,1.93.28.74.4,1.55.37,2.43l-.02,1.02h-9.84l-.53-2.01h7.66l-.37.42v-.51c-.03-.42-.17-.79-.41-1.13-.24-.34-.54-.6-.91-.79-.37-.19-.79-.28-1.25-.28-.68,0-1.25.13-1.72.39-.47.26-.83.65-1.08,1.16-.25.51-.37,1.13-.37,1.85s.16,1.38.47,1.92c.32.54.76.96,1.34,1.26.58.3,1.26.45,2.05.45.54,0,1.03-.08,1.48-.25.45-.17.93-.46,1.44-.88l1.57,2.2c-.45.4-.94.74-1.48,1.01-.54.27-1.1.47-1.67.61-.57.14-1.13.21-1.69.21Z"/>
        <path class="cls-1" d="M112.27,113.48v-12.25h3.17l.12,3.94-.56-.81c.19-.63.49-1.21.9-1.72.42-.52.91-.92,1.47-1.22s1.15-.44,1.77-.44c.26,0,.52.02.76.07.25.05.46.1.62.16l-.88,3.61c-.19-.09-.41-.17-.67-.24-.26-.07-.53-.1-.81-.1-.37,0-.71.07-1.03.2s-.59.32-.82.56-.41.52-.54.84c-.13.32-.2.68-.2,1.07v6.34h-3.31Z"/>
        <path class="cls-1" d="M127.64,118.8c-.97,0-1.93-.14-2.87-.43-.94-.29-1.71-.65-2.29-1.1l1.16-2.36c.31.22.66.41,1.06.58s.82.3,1.26.39.89.14,1.35.14c.8,0,1.46-.12,1.98-.37.52-.25.91-.61,1.17-1.1.26-.49.39-1.11.39-1.86v-2.13l.56.12c-.09.51-.35.98-.76,1.4-.42.42-.94.76-1.57,1.02s-1.28.38-1.94.38c-1.14,0-2.15-.26-3.03-.79-.88-.52-1.57-1.25-2.08-2.18-.51-.93-.76-1.99-.76-3.2s.25-2.33.75-3.28c.5-.95,1.19-1.7,2.06-2.25s1.86-.82,2.98-.82c.46,0,.91.05,1.33.16.42.11.82.26,1.18.45s.69.41.97.65c.29.24.52.5.71.78.19.28.3.56.35.83l-.67.19.09-2.8h3.15v11.32c0,1-.15,1.89-.44,2.66-.29.77-.72,1.42-1.29,1.96s-1.25.94-2.06,1.22c-.81.28-1.72.42-2.72.42ZM127.74,110.84c.65,0,1.22-.15,1.7-.44s.86-.7,1.12-1.23.39-1.14.39-1.85-.13-1.31-.39-1.84c-.26-.53-.64-.95-1.12-1.24-.49-.29-1.05-.44-1.7-.44s-1.19.15-1.68.45-.86.71-1.12,1.24c-.26.52-.39,1.13-.39,1.83s.13,1.31.39,1.84c.26.53.64.95,1.12,1.24s1.05.44,1.68.44Z"/>
      </g>
      <g>
        <path class="cls-1" d="M11.06,119.17h1.23l3.47,4.65v-4.65h1.28v6.75h-1.24l-3.47-4.65v4.65h-1.27v-6.75Z"/>
        <path class="cls-1" d="M18.48,119.17h4.98v1.18h-3.63v1.54h3.49v1.18h-3.49v1.68h3.7v1.18h-5.05v-6.75Z"/>
        <path class="cls-1" d="M25.66,119.17l1,4.65,1.37-4.65h1.33l1.37,4.65,1-4.65h1.45l-1.75,6.75h-1.3l-1.44-5.13-1.44,5.13h-1.3l-1.75-6.75h1.45Z"/>
        <path class="cls-1" d="M36.13,119.17h4.98v1.18h-3.63v1.54h3.49v1.18h-3.49v1.68h3.7v1.18h-5.05v-6.75Z"/>
        <path class="cls-1" d="M42.41,119.17h1.23l3.47,4.65v-4.65h1.28v6.75h-1.24l-3.47-4.65v4.65h-1.27v-6.75Z"/>
        <path class="cls-1" d="M49.83,119.17h4.98v1.18h-3.63v1.54h3.49v1.18h-3.49v1.68h3.7v1.18h-5.05v-6.75Z"/>
        <path class="cls-1" d="M56.11,119.17h3.27c1.52,0,2.48.89,2.48,2.08,0,.97-.65,1.74-1.66,1.99l1.35,2.68h-1.53l-1.29-2.57h-1.26v2.57h-1.35v-6.75ZM59.29,122.23c.75,0,1.21-.41,1.21-.98,0-.54-.46-.96-1.21-.96h-1.83v1.94h1.83Z"/>
        <path class="cls-1" d="M66.09,120.22c-1.26,0-2.01,1.15-2.01,2.32,0,1.25.7,2.36,2.01,2.36,1.08,0,1.64-.64,1.78-1.43h-2.1v-1.15h3.49v.53c0,1.84-1.19,3.19-3.17,3.19-2.16,0-3.36-1.66-3.36-3.51s1.3-3.51,3.33-3.51c1.64,0,2.74.85,3.09,2.22h-1.37c-.26-.62-.81-1.03-1.69-1.03Z"/>
        <path class="cls-1" d="M71.86,123.29l-2.43-4.12h1.48l1.62,2.84,1.61-2.84h1.49l-2.42,4.12v2.63h-1.35v-2.63Z"/>
        <path class="cls-1" d="M78.5,119.17h4.82v1.18h-3.47v1.65h3.34v1.18h-3.34v2.75h-1.35v-6.75Z"/>
        <path class="cls-1" d="M84.54,119.17h1.35v6.75h-1.35v-6.75Z"/>
        <path class="cls-1" d="M87.36,119.17h1.23l3.47,4.65v-4.65h1.28v6.75h-1.24l-3.47-4.65v4.65h-1.27v-6.75Z"/>
        <path class="cls-1" d="M96.97,119.17h1.44l2.65,6.75h-1.41l-.54-1.49h-2.84l-.54,1.49h-1.42l2.66-6.75ZM98.68,123.26l-1-2.76-1,2.76h2.01Z"/>
        <path class="cls-1" d="M102.01,119.17h1.23l3.47,4.65v-4.65h1.28v6.75h-1.24l-3.47-4.65v4.65h-1.27v-6.75Z"/>
        <path class="cls-1" d="M109.15,122.54c0-1.86,1.23-3.51,3.31-3.51,1.72,0,2.79,1.03,3.08,2.39h-1.37c-.24-.65-.74-1.21-1.7-1.21-1.24,0-1.97,1.1-1.97,2.32s.72,2.32,1.97,2.32c.95,0,1.46-.56,1.7-1.21h1.37c-.29,1.36-1.36,2.39-3.08,2.39-2.07,0-3.31-1.65-3.31-3.51Z"/>
        <path class="cls-1" d="M116.72,119.17h4.98v1.18h-3.63v1.54h3.49v1.18h-3.49v1.68h3.7v1.18h-5.05v-6.75Z"/>
      </g>
    </g>
  </g>
</svg>