<?xml version="1.0" encoding="UTF-8"?>
<svg id="Camada_1" data-name="Camada 1" xmlns="http://www.w3.org/2000/svg" xmlns:xlink="http://www.w3.org/1999/xlink" viewBox="0 0 64 64">
  <defs>
    <style>
      .cls-1, .cls-2 {
        fill: #f4f1f8;
      }

      .cls-1, .cls-3, .cls-4, .cls-5 {
        fill-rule: evenodd;
      }

      .cls-6 {
        fill: none;
      }

      .cls-3 {
        fill: #ff3a55;
      }

      .cls-4 {
        fill: #ff796c;
      }

      .cls-7 {
        clip-path: url(#clippath);
      }

      .cls-5 {
        fill: #e00047;
      }
    </style>
    <clipPath id="clippath">
      <rect class="cls-6" width="64" height="64"/>
    </clipPath>

    <style>
      #insta { 
        animation: bounce 500ms infinite ease-in-out alternate;
      }

      #insta > #simbolo > path { 
        animation: bounce 750ms infinite ease-in-out alternate;
      }

      @keyframes bounce { 
        0% { 
          transform: rotate(2deg);
        }
        50% { 
          transform: rotate(-2deg);
        }
        100% { 
          transform: rotate(0deg);
        }
      }

    </style>
  </defs>
  <g class="cls-7">
    <g id="insta">
      <g>
        <path class="cls-3" d="M44,56h-24c-6.63,0-12-5.37-12-12v-24c0-6.63,5.37-12,12-12h24c6.63,0,12,5.37,12,12v24c0,6.63-5.37,12-12,12"/>
        <path class="cls-4" d="M30.5,21.5h13.5c3.73,0,6.75-3.02,6.75-6.75,0-3.46-2.62-6.36-6.06-6.71-.23-.01-.46-.03-.69-.03h-24c-6.63,0-12,5.37-12,12v24c0-12.43,10.07-22.5,22.5-22.5"/>
        <path class="cls-5" d="M44,32c-6.63,0-12,5.37-12,12s5.37,12,12,12,12-5.37,12-12v-24c0,6.63-5.37,12-12,12"/>
      </g>
      <g id="simbolo">
        <circle class="cls-2" cx="41.38" cy="22.63" r="1.87"/>
        <path class="cls-1" d="M32,26c3.31,0,6,2.69,6,6s-2.69,6-6,6-6-2.69-6-6c0-3.31,2.69-6,6-6ZM32,23c4.97,0,9,4.03,9,9s-4.03,9-9,9-9-4.03-9-9c0-4.97,4.03-9,9-9Z"/>
        <path class="cls-1" d="M47,24.5c0-4.14-3.36-7.5-7.5-7.5h-15c-4.14,0-7.5,3.36-7.5,7.5v15c0,4.14,3.36,7.5,7.5,7.5h15c4.14,0,7.5-3.36,7.5-7.5v-15ZM50,24.5c0-5.8-4.7-10.5-10.5-10.5h-15c-5.8,0-10.5,4.7-10.5,10.5v15c0,5.8,4.7,10.5,10.5,10.5h15c5.8,0,10.5-4.7,10.5-10.5v-15Z"/>
      </g>
    </g>
  </g>
</svg>