<?xml version="1.0" encoding="UTF-8"?>
<svg id="Camada_2" data-name="Camada 2" xmlns="http://www.w3.org/2000/svg" viewBox="0 0 416.47 160.91">
  <defs>
    <style>
      .cls-1, .cls-2 {
        fill: #06aafc;
      }

      .cls-3 {
        fill: #12a8fa;
      }

      .cls-4 {
        fill: #004496;
      }

      .cls-5 {
        fill: #1a2228;
      }

      .cls-2 {
        fill-rule: evenodd;
      }
    </style>
  </defs>
  <g id="Camada_1-2" data-name="Camada 1">
    <g>
      <g>
        <path class="cls-1" d="M0,32.11v19.62c60.54,0,109.78,48.79,109.78,108.79h19.8c-.01-70.91-58.03-128.41-129.57-128.41Z"/>
        <path class="cls-1" d="M129.56,32.11v19.62c-60.54,0-109.78,48.79-109.78,108.79H0C0,89.61,58.02,32.11,129.56,32.11Z"/>
        <path class="cls-2" d="M0,99.88v-19.62c28.49,0,53.11,18.45,64.78,45.23,11.67-26.77,36.29-45.23,64.78-45.23v19.62c-29.98,0-54.38,27.2-54.38,60.64h-20.81c0-33.44-24.4-60.64-54.38-60.64Z"/>
        <path class="cls-1" d="M64.79,0l-16.2,16.06,16.2,16.06,16.2-16.06L64.79,0Z"/>
      </g>
      <path class="cls-5" d="M160.73,112.75v-32.49h7.05l11.84,19.26-5.06-.04,11.97-19.22h6.77v32.49h-7.66v-10.12c0-2.79.07-5.29.19-7.51.16-2.23.4-4.45.74-6.64l.88,2.42-9,13.98h-3.07l-8.81-13.87.88-2.51c.34,2.07.57,4.21.69,6.41.16,2.16.24,4.75.24,7.75v10.12h-7.66ZM201.48,112.75v-32.49h22.65v6.73h-14.99v19.03h15.45v6.73h-23.11ZM205.19,99.43v-6.41h16.84v6.41h-16.84ZM231.4,112.75v-32.49h7.05l17.03,23.2-1.53-.24c-.16-1.02-.28-1.99-.37-2.92s-.19-1.84-.28-2.74c-.07-.9-.12-1.81-.19-2.74-.03-.93-.07-1.94-.09-3.01v-11.56h7.66v32.49h-7.14l-17.77-23.95,2.36.32c.16,1.49.28,2.75.37,3.81.12,1.02.21,1.94.28,2.74.09.81.16,1.53.19,2.18.03.65.04,1.3.04,1.95.03.62.04,1.31.04,2.09v10.86h-7.66ZM279.61,113.21c-2.14,0-4.06-.25-5.8-.74-1.7-.53-3.21-1.27-4.55-2.23-1.33-.99-2.52-2.15-3.57-3.48l4.78-5.43c1.55,2.07,3.09,3.46,4.64,4.18,1.58.72,3.2,1.06,4.87,1.06.84,0,1.59-.11,2.27-.32s1.21-.53,1.58-.93c.37-.44.56-.96.56-1.58,0-.46-.12-.88-.37-1.25-.21-.37-.53-.69-.93-.97s-.88-.53-1.43-.74c-.56-.25-1.14-.45-1.76-.6-.62-.19-1.25-.34-1.9-.46-1.79-.4-3.36-.9-4.69-1.49-1.33-.58-2.44-1.3-3.34-2.14-.86-.86-1.51-1.84-1.95-2.92-.44-1.11-.65-2.35-.65-3.72,0-1.46.32-2.79.97-3.99.68-1.24,1.58-2.28,2.69-3.16,1.14-.9,2.46-1.58,3.94-2.04,1.49-.49,3.03-.74,4.64-.74,2.14,0,3.96.24,5.48.69,1.55.44,2.87,1.06,3.94,1.9,1.11.84,2.06,1.84,2.83,3.01l-4.87,4.69c-.65-.81-1.37-1.47-2.14-1.99-.74-.53-1.55-.93-2.42-1.21-.84-.28-1.7-.41-2.6-.41s-1.74.12-2.42.37c-.65.21-1.16.54-1.53.97-.37.4-.56.9-.56,1.49,0,.53.16.97.46,1.34.31.37.73.72,1.25,1.02.53.28,1.13.53,1.81.74.68.19,1.39.34,2.14.46,1.7.34,3.24.78,4.59,1.34,1.39.56,2.59,1.24,3.57,2.04,1.02.81,1.79,1.76,2.32,2.88.56,1.09.84,2.35.84,3.81,0,2.26-.56,4.18-1.67,5.76-1.09,1.55-2.59,2.74-4.5,3.57-1.89.81-4.06,1.21-6.54,1.21h.01ZM313.01,113.21c-2.44,0-4.7-.4-6.77-1.21-2.04-.84-3.82-1.99-5.34-3.48-1.51-1.51-2.69-3.29-3.53-5.34-.81-2.07-1.21-4.34-1.21-6.82s.44-4.64,1.3-6.69c.86-2.05,2.06-3.81,3.57-5.29,1.55-1.51,3.36-2.69,5.43-3.53,2.11-.84,4.39-1.25,6.86-1.25,1.55,0,3.07.2,4.55.6,1.48.4,2.87,1.01,4.13,1.81,1.3.77,2.42,1.7,3.34,2.79l-4.83,5.52c-.65-.68-1.34-1.27-2.09-1.76-.72-.53-1.5-.93-2.36-1.21s-1.79-.41-2.79-.41c-1.24,0-2.42.24-3.53.69-1.09.44-2.04,1.06-2.88,1.9s-1.43,1.79-1.9,2.97c-.46,1.18-.69,2.49-.69,3.94s.24,2.72.69,3.9c.46,1.14,1.11,2.14,1.95,2.97.84.84,1.84,1.47,3.01,1.9,1.21.44,2.54.65,3.99.65.99,0,1.94-.13,2.83-.41.9-.28,1.71-.65,2.46-1.11.77-.49,1.46-1.05,2.04-1.67l3.81,6.04c-.77.86-1.81,1.63-3.11,2.32-1.27.68-2.69,1.22-4.27,1.62-1.55.37-3.11.56-4.69.56h.03ZM350.62,112.75v-32.49h7.89v32.49h-7.89ZM330.48,112.75v-32.49h7.89v32.49h-7.89ZM333.55,100.09l.04-7.05h21.21v7.05h-21.25Z"/>
      <path class="cls-5" d="M416.47,152.73c0,4.36-3.35,7.78-7.72,7.78s-7.76-3.43-7.76-7.78,3.44-7.69,7.76-7.69,7.72,3.43,7.72,7.69ZM402.93,152.73c0,3.42,2.47,6.14,5.88,6.14s5.73-2.72,5.73-6.09-2.43-6.19-5.79-6.19-5.83,2.77-5.83,6.14h.01ZM407.57,156.76h-1.75v-7.69c.68-.15,1.65-.24,2.89-.24,1.42,0,2.06.24,2.62.56.41.32.74.94.74,1.69,0,.84-.64,1.5-1.56,1.78v.09c.74.28,1.14.84,1.38,1.88.24,1.18.37,1.63.55,1.93h-1.88c-.24-.28-.37-.99-.59-1.88-.13-.84-.59-1.22-1.56-1.22h-.83v3.09h-.01ZM407.61,152.41h.83c.96,0,1.75-.32,1.75-1.13,0-.71-.5-1.18-1.61-1.18-.46,0-.78.04-.96.09v2.21h0Z"/>
      <g>
        <path class="cls-3" d="M168.58,128.03v32.46h-7.85v-32.46h7.85Z"/>
        <path class="cls-3" d="M202.94,128.03v32.46h-6.65l-12.92-18.73h-.2v18.73h-7.85v-32.46h6.75l12.78,18.7h.27v-18.7h7.83,0Z"/>
        <path class="cls-3" d="M227.23,137.76c-.11-1.16-.57-2.07-1.4-2.72s-2.02-.97-3.54-.97c-1.02,0-1.86.13-2.54.39-.67.27-1.19.63-1.52,1.09s-.52.99-.53,1.58c-.02.48.08.92.29,1.29.21.37.54.69.95.97.41.28.92.53,1.51.74s1.25.39,1.99.56l2.79.64c1.61.35,3.02.82,4.26,1.4s2.26,1.28,3.1,2.07c.84.81,1.48,1.72,1.91,2.78.44,1.04.66,2.22.66,3.52,0,2.05-.53,3.81-1.56,5.27s-2.5,2.6-4.41,3.37c-1.91.77-4.23,1.18-6.93,1.18s-5.08-.4-7.1-1.22-3.58-2.05-4.7-3.71c-1.12-1.66-1.7-3.75-1.72-6.29h7.51c.07,1.05.35,1.91.84,2.62.49.69,1.18,1.22,2.05,1.58s1.88.54,3.03.54c1.05,0,1.96-.15,2.7-.43s1.32-.68,1.72-1.19.6-1.09.62-1.75c-.01-.62-.2-1.14-.57-1.58s-.94-.82-1.7-1.14c-.76-.32-1.75-.62-2.92-.9l-3.39-.8c-2.81-.65-5.03-1.69-6.64-3.14-1.61-1.44-2.42-3.39-2.41-5.86,0-2,.53-3.76,1.61-5.27s2.6-2.69,4.51-3.54c1.93-.84,4.11-1.27,6.57-1.27s4.7.43,6.55,1.28c1.86.85,3.29,2.04,4.32,3.57s1.55,3.3,1.57,5.33h-7.51.02Z"/>
        <path class="cls-3" d="M239.94,134.4v-6.37h27.44v6.37h-9.84v26.09h-7.74v-26.09h-9.85Z"/>
        <path class="cls-3" d="M276.02,160.48h-8.43l10.95-32.46h10.45l10.95,32.46h-8.43l-7.63-24.28h-.26l-7.61,24.28h.01ZM274.9,147.7h17.63v5.96h-17.63v-5.96Z"/>
        <path class="cls-3" d="M305.27,160.48v-32.46h7.85v26.09h13.5v6.37h-21.35Z"/>
        <path class="cls-4" d="M339.94,160.48h-8.43l10.95-32.46h10.45l10.95,32.46h-8.43l-7.63-24.28h-.26l-7.61,24.28h.01ZM338.82,147.7h17.63v5.96h-17.63v-5.96Z"/>
        <path class="cls-4" d="M369.19,160.48v-32.46h13.4c2.43,0,4.54.44,6.3,1.31,1.77.87,3.14,2.12,4.1,3.74.96,1.62,1.44,3.54,1.44,5.76s-.49,4.17-1.48,5.73c-.99,1.57-2.37,2.77-4.19,3.58-1.8.82-3.94,1.23-6.42,1.23h-8.48v-6.18h7.02c1.19,0,2.17-.16,2.97-.47s1.4-.78,1.81-1.42.62-1.46.62-2.46-.2-1.84-.62-2.5c-.41-.66-1.02-1.15-1.83-1.49-.81-.34-1.79-.5-2.97-.5h-3.86v26.14h-7.85.01ZM387.47,145.64l8.09,14.84h-8.56l-7.93-14.84h8.4Z"/>
      </g>
    </g>
  </g>
</svg>