<?xml version="1.0" encoding="UTF-8"?>
<svg id="Camada_1" data-name="Camada 1" xmlns="http://www.w3.org/2000/svg"
  xmlns:xlink="http://www.w3.org/1999/xlink" viewBox="0 0 64 64">
  <defs>
    <style>
      .cls-1 {
      fill: #0f4b9b;
      }

      .cls-1, .cls-2, .cls-3, .cls-4 {
      fill-rule: evenodd;
      }

      .cls-2 {
      fill: #417dcd;
      }

      .cls-5, .cls-3 {
      fill: #fff;
      }

      .cls-6 {
      fill: none;
      }

      .cls-4 {
      fill: #2864b4;
      }

      .cls-7 {
      clip-path: url(#clippath);
      }
    </style>
    <clipPath id="clippath">
      <rect class="cls-6" width="64" height="64" />
    </clipPath>
    <style>

      #linkedin {
      animation: bounce 500ms infinite ease-in-out alternate;
      }

      #simbolo {
      animation: bounce 750ms infinite ease-in-out alternate;
      }


      @keyframes bounce {
      0% {
      transform: rotate(2deg);
      }
      50% {
      transform: rotate(-2deg);
      }
      100% {
      transform: rotate(0deg);
      }
      }
    </style>
  </defs>
  <g class="cls-7">
    <g id="linkedin">
      <g id="base">
        <path class="cls-4"
          d="M44,56h-24c-6.63,0-12-5.37-12-12v-24c0-6.63,5.37-12,12-12h24c6.63,0,12,5.37,12,12v24c0,6.63-5.37,12-12,12" />
        <path class="cls-2"
          d="M30.5,21.5h13.5c3.73,0,6.75-3.02,6.75-6.75,0-3.46-2.62-6.36-6.06-6.71-.23-.01-.46-.03-.69-.03h-24c-6.63,0-12,5.37-12,12v24c0-12.43,10.07-22.5,22.5-22.5" />
        <path class="cls-1"
          d="M44,32c-6.63,0-12,5.37-12,12s5.37,12,12,12,12-5.37,12-12v-24c0,6.63-5.37,12-12,12" />
      </g>
      <g id="simbolo">
        <rect class="cls-5" x="17" y="26.75" width="6" height="20.25" rx="1.5" ry="1.5" />
        <circle class="cls-5" cx="20" cy="20" r="3.75" />
        <path class="cls-3"
          d="M33.5,29.48c1.23-2.15,3.52-3.48,6-3.48,3.82,0,7.5,2.25,7.5,8.25v11.25c0,.83-.67,1.5-1.5,1.5h-3c-.83,0-1.5-.67-1.5-1.5h0v-10.5c0-2.07-1.68-3.75-3.75-3.75s-3.75,1.68-3.75,3.75v10.5c0,.83-.67,1.5-1.5,1.5h-3c-.83,0-1.5-.67-1.5-1.5h0v-17.25c0-.83.67-1.5,1.5-1.5h3c.83,0,1.5.67,1.5,1.5h0v1.23Z" />
      </g>
    </g>
  </g>
</svg>