<?xml version="1.0" encoding="UTF-8"?>
<svg id="Camada_1" data-name="Camada 1" xmlns="http://www.w3.org/2000/svg" xmlns:xlink="http://www.w3.org/1999/xlink" viewBox="0 0 64 64">
  <defs>
    <style>
      .cls-1 {
        fill: #f4f1f8;
      }

      .cls-1, .cls-2, .cls-3, .cls-4 {
        fill-rule: evenodd;
      }

      .cls-2 {
        fill: #00b950;
      }

      .cls-3 {
        fill: #00d264;
      }

      .cls-4 {
        fill: #00eb78;
      }

      .cls-5 {
        fill: none;
      }

      .cls-6 {
        clip-path: url(#clippath);
      }
    </style>
    <clipPath id="clippath">
      <rect class="cls-5" width="64" height="64"/>
    </clipPath>

    <style>

      #wpp { 
        animation: bounce 500ms infinite ease-in-out alternate;
      }

      #wpp > #simbolo > path { 
        animation: bounce 750ms infinite ease-in-out alternate;
      }


      @keyframes bounce { 
        0% { 
          transform: rotate(2deg);
        }
        50% { 
          transform: rotate(-2deg);
        }
        100% { 
          transform: rotate(0deg);
        }
      }

    </style>

  </defs>
  <g class="cls-6">
    <g id="wpp">
      <path class="cls-3" d="M44,56h-24c-6.63,0-12-5.37-12-12v-24c0-6.63,5.37-12,12-12h24c6.63,0,12,5.37,12,12v24c0,6.63-5.37,12-12,12"/>
      <path class="cls-4" d="M30.5,21.5h13.5c3.73,0,6.75-3.02,6.75-6.75,0-3.46-2.62-6.36-6.06-6.71-.23-.01-.46-.03-.69-.03h-24c-6.63,0-12,5.37-12,12v24c0-12.43,10.07-22.5,22.5-22.5"/>
      <path class="cls-2" d="M44,32c-6.63,0-12,5.37-12,12s5.37,12,12,12,12-5.37,12-12v-24c0,6.63-5.37,12-12,12"/>
      <g id="simbolo">
        <path class="cls-1" d="M24.25,43.32c.4-.11.84-.06,1.19.16,6.75,4.02,15.49,1.81,19.52-4.94,4.02-6.75,1.81-15.49-4.94-19.52s-15.49-1.81-19.52,4.94c-2.68,4.49-2.67,10.09,0,14.59.22.36.28.79.16,1.19-.42,1.48-1.43,5.01-1.43,5.01,0,0,3.53-1.01,5-1.43h0ZM17.91,40.05c-4.86-8.19-2.16-18.78,6.04-23.64,8.19-4.86,18.78-2.16,23.64,6.04s2.16,18.78-6.04,23.64c-5.43,3.22-12.18,3.22-17.6,0,0,0-4.78,1.37-7.15,2.04-.4.11-.81-.12-.93-.52-.04-.13-.04-.28,0-.41.68-2.37,2.04-7.15,2.04-7.15Z"/>
        <path class="cls-1" d="M24.49,26.59c.48,6.94,5.98,12.48,12.92,13.01h0c1.08.08,2.15-.31,2.92-1.08l.52-.52c.25-.25.39-.58.39-.93v-1.11c0-.28-.16-.54-.41-.67-.79-.39-2.5-1.25-3.34-1.67-.29-.14-.64-.09-.87.14-.42.42-1.08,1.08-1.45,1.45-.18.18-.43.25-.68.21h0c-2.97-.6-5.29-2.92-5.88-5.89h0c-.05-.25.03-.51.21-.68.37-.37,1.04-1.04,1.46-1.46.23-.23.28-.58.14-.87-.42-.84-1.28-2.55-1.67-3.34-.13-.25-.39-.41-.67-.41h-.95c-.45,0-.89.19-1.19.53-.15.17-.32.36-.5.55-.66.73-1,1.71-.93,2.69,0,.02,0,.03,0,.05h0Z"/>
      </g>
    </g>
  </g>
</svg>