<?xml version="1.0" encoding="UTF-8"?>
<svg id="Camada_2" data-name="Camada 2" xmlns="http://www.w3.org/2000/svg" viewBox="0 0 64 64">
  <defs>
    <style>
      .cls-1 {
        fill: #db8415;
      }

      .cls-2 {
        fill: #aab2bd;
      }

      .cls-3 {
        fill: #1a2228;
      }

      .cls-4 {
        fill: #f4f1f8;
      }

      .cls-5 {
        fill: #f76861;
      }

      .cls-6 {
        fill: #00d19f;
      }

      .cls-7 {
        fill: #ffa51e;
      }
    </style>
  </defs>
  <g id="local_icon">
    <g>
      <g>
        <path class="cls-4" d="M61.76,42.15l-1.89-1.89v-4.13h-20.65v4.13l-1.89,1.89c-.77.77-1.21,1.83-1.21,2.92v13.77c0,2.28,1.85,4.13,4.13,4.13h18.58c2.28,0,4.13-1.85,4.13-4.13v-13.77c0-1.09-.43-2.15-1.21-2.92Z"/>
        <path class="cls-2" d="M62.97,30.97v4.13c0,.57-.46,1.03-1.03,1.03h-24.77c-.57,0-1.03-.46-1.03-1.03v-4.13c0-.29.11-.54.3-.73.2-.19.44-.3.73-.3h24.77c.57,0,1.03.46,1.03,1.03Z"/>
        <path class="cls-5" d="M61.94,6.19l-2.89,14.45-3.72-3.72-13.01,13.01h-5.16c-.29,0-.54.11-.73.3l-4.43-4.43-9.88,9.88c-1.99-1.03-4.24-1.62-6.64-1.62l6.19-6.19c2.28,0,4.35-.93,5.84-2.42,1.49-1.5,2.42-3.56,2.42-5.84l2.06-2.06,7.23,7.23,11.97-11.97-3.72-3.72,14.45-2.89Z"/>
        <path class="cls-6" d="M15.48,21.68h-6.19c-2.28,0-4.35-.93-5.84-2.42-1.49-1.5-2.42-3.56-2.42-5.84h6.19c2.28,0,4.35.93,5.84,2.42,1.49,1.5,2.42,3.56,2.42,5.84Z"/>
        <path class="cls-6" d="M15.48,9.29h-6.19c-2.28,0-4.35-.93-5.84-2.42C1.96,5.38,1.03,3.31,1.03,1.03h6.19c2.28,0,4.35.93,5.84,2.42,1.49,1.5,2.42,3.56,2.42,5.84Z"/>
        <path class="cls-6" d="M23.74,7.23h6.19c0,2.28-.93,4.35-2.42,5.84-1.5,1.49-3.56,2.42-5.84,2.42h-6.19c0-2.28.93-4.35,2.42-5.84,1.5-1.49,3.56-2.42,5.84-2.42Z"/>
        <path class="cls-6" d="M23.74,19.61h6.19c0,2.28-.93,4.35-2.42,5.84-1.5,1.49-3.56,2.42-5.84,2.42h-6.19c0-2.28.93-4.35,2.42-5.84,1.5-1.49,3.56-2.42,5.84-2.42Z"/>
        <path class="cls-7" d="M54.71,56.77h2.06c1.14,0,2.06.93,2.06,2.06v2.06c0,1.14-.93,2.06-2.06,2.06h-12.39c-1.14,0-2.06-.93-2.06-2.06v-2.06c0-1.14.93-2.06,2.06-2.06h10.32Z"/>
        <path class="cls-7" d="M58.84,48.52c0,1.14-.93,2.06-2.06,2.06h-12.39c-1.14,0-2.06-.93-2.06-2.06v-2.06c0-1.14.93-2.06,2.06-2.06h12.39c1.14,0,2.06.93,2.06,2.06v2.06Z"/>
        <path class="cls-1" d="M52.65,50.58h2.06c1.14,0,2.06.93,2.06,2.06v2.06c0,1.14-.93,2.06-2.06,2.06h-12.39c-1.14,0-2.06-.93-2.06-2.06v-2.06c0-1.14.93-2.06,2.06-2.06h10.32Z"/>
        <path class="cls-1" d="M22.12,35.69c4.65,2.39,7.81,7.25,7.81,12.83,0,7.98-6.47,14.45-14.45,14.45S1.03,56.5,1.03,48.52s6.47-14.45,14.45-14.45c2.39,0,4.65.59,6.64,1.62Z"/>
        <path class="cls-7" d="M25.81,48.52c0,2.48-.88,4.76-2.33,6.54l-1.45,1.45c-1.79,1.46-4.07,2.33-6.54,2.33-5.7,0-10.32-4.62-10.32-10.32,0-2.48.88-4.76,2.33-6.54l1.45-1.45c1.79-1.46,4.07-2.33,6.54-2.33,5.7,0,10.32,4.62,10.32,10.32Z"/>
        <g>
          <path class="cls-4" d="M7.66,47.97h-1.48c0-3.38,2.15-6.39,5.35-7.46l.48,1.39c-2.61.87-4.36,3.32-4.36,6.07Z"/>
          <path class="cls-4" d="M20.68,56.52l-.7-1.29c2.06-1.12,3.34-3.29,3.34-5.62h1.48c0,2.88-1.58,5.54-4.11,6.92Z"/>
          <path class="cls-4" d="M18.7,49.57c-.32-.43-.75-.78-1.26-.98-.37-.17-1.01-.36-1.98-.58s-1.49-.46-1.6-.55c-.16-.14-.25-.33-.23-.54,0-.27.14-.53.37-.69.26-.21.7-.31,1.33-.31s1.03.11,1.32.34.44.58.49,1.05l.04.3,1.69-.14v-.28c-.01-.54-.18-1.07-.48-1.53-.31-.47-.75-.82-1.27-1.03-.26-.11-.53-.18-.8-.23v-1.28h-1.83v1.24c-.31.05-.62.14-.91.26-.5.2-.92.54-1.23.98-.27.41-.42.9-.42,1.39-.01.44.11.87.34,1.24.26.39.63.71,1.05.92.34.18.92.37,1.75.57.52.11,1.02.25,1.51.42.25.07.47.22.65.41.11.16.17.34.17.53,0,.21-.06.41-.18.57-.16.2-.37.36-.62.44-.74.25-1.54.23-2.26-.06-.3-.11-.55-.31-.75-.57-.17-.28-.28-.6-.31-.94l-.04-.3-1.66.15v.28c0,.62.18,1.21.52,1.72.34.5.82.91,1.39,1.14.32.14.65.22.98.28v.97h1.82v-.94c.38-.06.75-.16,1.1-.32.52-.22.96-.6,1.28-1.07.28-.43.44-.95.44-1.46.01-.5-.14-1-.41-1.42h0Z"/>
        </g>
      </g>
      <path class="cls-3" d="M61.94,37.16c1.14,0,2.06-.93,2.06-2.06v-4.13c0-1.14-.93-2.06-2.06-2.06h-17.12l10.51-10.51,4.35,4.35,3.57-17.86-17.86,3.57,4.35,4.35-10.51,10.52-7.23-7.23-2.49,2.49h-5.77c-2.92,0-5.52,1.35-7.23,3.46v-5.53h5.16c5.12,0,9.29-4.17,9.29-9.29v-1.03h-7.23c-2.92,0-5.52,1.35-7.23,3.46v-.37C16.52,4.17,12.35,0,7.23,0H0v1.03c0,5.12,4.17,9.29,9.29,9.29h5.16v5.53c-1.7-2.11-4.31-3.46-7.23-3.46H0v1.03c0,5.12,4.17,9.29,9.29,9.29h5.16v10.38c-8.06.53-14.45,7.24-14.45,15.43s6.95,15.48,15.48,15.48,15.48-6.95,15.48-15.48c0-5.48-2.87-10.29-7.17-13.04l8.21-8.21,3.17,3.17c-.05.17-.08.34-.08.53v4.13c0,1.14.93,2.06,2.06,2.06h1.03v2.67l-1.58,1.58c-.97.97-1.51,2.27-1.51,3.65v13.77c0,2.85,2.32,5.16,5.16,5.16h18.58c2.85,0,5.16-2.32,5.16-5.16v-13.77c0-1.38-.54-2.68-1.51-3.65l-1.58-1.58v-2.67h1.03ZM23.74,20.65h5.09c-.5,3.5-3.52,6.19-7.15,6.19h-5.09c.5-3.5,3.52-6.19,7.15-6.19ZM23.74,8.26h5.09c-.5,3.5-3.52,6.19-7.15,6.19h-5.09c.5-3.5,3.52-6.19,7.15-6.19ZM9.29,8.26c-3.63,0-6.65-2.7-7.15-6.19h5.09c3.63,0,6.65,2.7,7.15,6.19h-5.09ZM9.29,20.65c-3.63,0-6.65-2.7-7.15-6.19h5.09c3.63,0,6.65,2.7,7.15,6.19h-5.09ZM19.19,28.9l-2.67,2.67v-2.67h2.67ZM28.9,48.52c0,7.4-6.02,13.42-13.42,13.42s-13.42-6.02-13.42-13.42,6.02-13.42,13.42-13.42,13.42,6.02,13.42,13.42ZM21.9,34.44c-1.29-.59-2.67-1-4.12-1.22l4.34-4.34c4.76-.23,8.59-4.05,8.82-8.82l1.05-1.05,7.23,7.23,13.43-13.43-3.08-3.08,11.04-2.21-2.21,11.04-3.08-3.08-13.43,13.43h-4.73c-.18,0-.36.03-.53.08l-4.63-4.63-10.1,10.1ZM37.16,30.97h24.77v4.13s-24.77,0-24.77,0v-4.13ZM43.35,48.52v-2.06c0-.57.46-1.03,1.03-1.03h1.03v2.06h2.06v-2.06h2.06v2.06h2.06v-2.06h2.06v2.06h2.06v-2.06h1.03c.57,0,1.03.46,1.03,1.03v2.06c0,.57-.46,1.03-1.03,1.03h-12.39c-.57,0-1.03-.46-1.03-1.03ZM42.32,51.61h1.03v2.06h2.06v-2.06h2.06v2.06h2.06v-2.06h2.06v2.06h2.06v-2.06h1.03c.57,0,1.03.46,1.03,1.03v2.06c0,.57-.46,1.03-1.03,1.03h-12.39c-.57,0-1.03-.46-1.03-1.03v-2.06c0-.57.46-1.03,1.03-1.03ZM44.39,61.94c-.57,0-1.03-.46-1.03-1.03v-2.06c0-.57.46-1.03,1.03-1.03h1.03v2.06h2.06v-2.06h2.06v2.06h2.06v-2.06h2.06v2.06h2.06v-2.06h1.03c.57,0,1.03.46,1.03,1.03v2.06c0,.57-.46,1.03-1.03,1.03h-12.39ZM61.03,42.87c.59.59.91,1.36.91,2.19v13.77c0,1.4-.94,2.57-2.21,2.95.09-.28.15-.58.15-.89v-2.06c0-1.43-.98-2.62-2.29-2.98.14-.36.23-.74.23-1.15v-2.06c0-.41-.08-.79-.23-1.15,1.32-.36,2.29-1.55,2.29-2.98v-2.06c0-1.71-1.39-3.1-3.1-3.1h-12.39c-1.71,0-3.1,1.39-3.1,3.1v2.06c0,.41.08.79.23,1.15-1.32.36-2.29,1.55-2.29,2.98v2.06c0,1.43.98,2.62,2.29,2.98-.14.36-.23.74-.23,1.15v2.06c0,.36.07.71.19,1.03h-1.22c-1.71,0-3.1-1.39-3.1-3.1v-13.77c0-.83.32-1.61.91-2.19l2.19-2.19v-3.52h18.58v3.52l2.19,2.19Z"/>
    </g>
  </g>
</svg>