<?xml version="1.0" encoding="UTF-8"?>
<svg id="Camada_2" data-name="Camada 2" xmlns="http://www.w3.org/2000/svg" viewBox="0 0 64 66.21">
  <defs>
    <style>
      .cls-1 {
        fill: #db8415;
      }

      .cls-2 {
        fill: #06aafc;
      }

      .cls-3 {
        fill: #1a2228;
      }

      .cls-4 {
        fill: #f4f1f8;
      }

      .cls-5 {
        fill: #e5e5e5;
      }

      .cls-6 {
        fill: #0990c6;
      }

      .cls-7 {
        fill: #00d19f;
      }

      .cls-8 {
        fill: #cddff9;
      }

      .cls-9 {
        fill: #02a57a;
      }

      .cls-10 {
        fill: #ffa51e;
      }

      .cls-11 {
        fill: #84d2f6;
      }

      .cls-12 {
        fill: #b5b5b5;
      }
    </style>
  </defs>
  <g id="local_icon">
    <g id="FLAT">
      <g id="_25-_Waffle_copy_4" data-name=" 25- Waffle copy 4">
        <path class="cls-7" d="M9.93,36.41c0-2.21.97-4.74,3.31-5.52,2.16-.64,4.46-.64,6.62,0-.65,2.37-2.25,4.36-4.41,5.52-2.21,1.1-5.52,0-5.52,0Z"/>
        <path class="cls-9" d="M13.24,33.72c1.77-.54,3.65-.64,5.47-.28.51-.78.9-1.64,1.15-2.54-2.16-.64-4.46-.64-6.62,0-2.34.78-3.31,3.31-3.31,5.52,0,0,.19.06.5.14.46-1.32,1.49-2.37,2.81-2.84Z"/>
        <path class="cls-7" d="M9.93,39.23c0-2.21-.97-4.74-3.31-5.52-2.16-.64-4.46-.64-6.62,0,.65,2.37,2.25,4.36,4.41,5.52,2.21,1.1,5.52,0,5.52,0Z"/>
        <path class="cls-9" d="M6.62,35.8c1.54.58,2.68,1.91,3.03,3.52.18-.05.28-.08.28-.08,0-2.21-.97-4.74-3.31-5.52-2.16-.64-4.46-.64-6.62,0,.18.66.43,1.29.76,1.89,1.94-.45,3.96-.38,5.86.2Z"/>
        <path class="cls-11" d="M64,54.07H24.28l1.5-5.52.61-2.21,1.2-4.41.61-2.21,1.5-5.52h28.89l1.5,5.52.61,2.21,1.2,4.41.61,2.21,1.5,5.52Z"/>
        <path class="cls-6" d="M64,54.07H24.28l1.5-5.52.61-2.21,1.2-4.41.61-2.21,1.5-5.52h28.89l1.5,5.52.61,2.21,1.2,4.41.61,2.21,1.5,5.52Z"/>
        <path class="cls-2" d="M34.68,38.62h25.11l-1.2-4.41h-28.89l-1.5,5.52-.61,2.21-1.2,4.41-.61,2.21-1.5,5.52,8.24-.09,2.16-15.36Z"/>
        <path class="cls-12" d="M47.45,65.1h-6.62v-6.62h6.62v6.62Z"/>
        <path class="cls-4" d="M44.14,65.1h-3.31v-6.62h3.31v6.62Z"/>
        <path class="cls-3" d="M52.97,66.21H15.96c-3.94,0-7.13-3.2-7.13-7.13V23.17c0-.61.49-1.1,1.1-1.1s1.1.49,1.1,1.1v35.9c0,2.72,2.21,4.92,4.93,4.93h37c.61,0,1.1.49,1.1,1.1s-.49,1.1-1.1,1.1Z"/>
        <path class="cls-5" d="M17.66,10.83c0,2.21-.94,4.32-2.6,5.78-.45.41-.71,1-.71,1.61v2.54H5.52v-2.54c0-.62-.27-1.22-.73-1.63-3.18-2.83-3.47-7.71-.64-10.89,1.26-1.42,3-2.32,4.89-2.54.3-.03.6-.05.89-.06,4.26,0,7.72,3.45,7.72,7.71,0,0,0,0,0,.01Z"/>
        <path class="cls-1" d="M13.24,20.76v2.21c0,1.22-.99,2.2-2.21,2.21h-2.21c-1.22,0-2.2-.99-2.21-2.21v-2.21h6.62Z"/>
        <path class="cls-8" d="M62.5,48.55H25.78l.61-2.21h35.51l.61,2.21Z"/>
        <path class="cls-8" d="M60.69,41.93H27.59l.61-2.21h31.89l.61,2.21Z"/>
        <path class="cls-8" d="M43.03,34.21h2.21v19.86h-2.21v-19.86Z"/>
        <path class="cls-8" d="M37.21,34.21l-.78,5.52-.32,2.21-.63,4.41-.31,2.21-.79,5.52h-2.23l.79-5.52.31-2.21.63-4.41.32-2.21.78-5.52h2.23Z"/>
        <path class="cls-8" d="M56.13,54.07h-2.23l-.79-5.52-.31-2.21-.63-4.41-.32-2.21-.78-5.52h2.23l.78,5.52.32,2.21.63,4.41.31,2.21.79,5.52Z"/>
        <path class="cls-6" d="M64,58.48H24.28v-4.41h39.72v4.41Z"/>
        <path class="cls-2" d="M44.14,58.48h-19.86v-4.41h19.86v4.41Z"/>
        <g>
          <circle class="cls-1" cx="48.55" cy="11.03" r="3.31"/>
          <path class="cls-10" d="M48.55,4.41c-.61,0-1.1-.49-1.1-1.1V1.1c0-.61.49-1.1,1.1-1.1s1.1.49,1.1,1.1v2.21c0,.61-.49,1.1-1.1,1.1Z"/>
          <path class="cls-10" d="M58.48,12.14h-2.21c-.61,0-1.1-.49-1.1-1.1s.49-1.1,1.1-1.1h2.21c.61,0,1.1.49,1.1,1.1s-.49,1.1-1.1,1.1Z"/>
          <path class="cls-10" d="M40.83,12.14h-2.21c-.61,0-1.1-.49-1.1-1.1s.49-1.1,1.1-1.1h2.21c.61,0,1.1.49,1.1,1.1s-.49,1.1-1.1,1.1Z"/>
          <path class="cls-10" d="M54.07,6.62c-.61,0-1.1-.49-1.1-1.1,0-.26.09-.51.26-.71l1.37-1.64c.39-.46,1.09-.52,1.56-.13.46.39.52,1.08.14,1.54l-1.37,1.64c-.21.25-.52.39-.85.39Z"/>
          <path class="cls-10" d="M43.03,6.62c-.26,0-.51-.09-.71-.26l-1.64-1.37c-.46-.4-.52-1.09-.12-1.56.39-.46,1.07-.51,1.54-.13l1.64,1.37c.47.39.53,1.09.14,1.55-.21.25-.52.39-.85.39h0Z"/>
          <path class="cls-10" d="M48.55,22.07c-.61,0-1.1-.49-1.1-1.1v-2.21c0-.61.49-1.1,1.1-1.1s1.1.49,1.1,1.1v2.21c0,.61-.49,1.1-1.1,1.1Z"/>
          <path class="cls-10" d="M55.44,19.29c-.33,0-.64-.14-.85-.39l-1.37-1.64c-.39-.47-.32-1.17.16-1.55.46-.38,1.14-.32,1.54.13l1.37,1.64c.39.47.33,1.16-.14,1.55-.2.17-.45.26-.71.26h0Z"/>
          <path class="cls-10" d="M41.4,19.03c-.61,0-1.1-.49-1.1-1.1,0-.33.14-.64.39-.85l1.64-1.37c.46-.4,1.16-.35,1.56.11.4.46.35,1.16-.11,1.56,0,0-.02.02-.03.02l-1.64,1.37c-.2.17-.45.26-.71.26Z"/>
        </g>
        <path class="cls-4" d="M9.93,3.1v17.66h-4.41v-2.54c0-.62-.27-1.22-.73-1.63-3.18-2.83-3.47-7.71-.64-10.89,1.26-1.42,3-2.32,4.89-2.54.3-.03.6-.05.89-.06Z"/>
        <path class="cls-10" d="M8.83,15.24c-.61,0-1.1-.49-1.1-1.1,0-.29.12-.57.32-.78l1.43-1.43h-1.75c-.61,0-1.1-.49-1.1-1.1,0-.29.12-.57.32-.78l3.31-3.31c.42-.44,1.12-.45,1.56-.03.44.42.45,1.12.03,1.56,0,0-.02.02-.03.03l-1.43,1.43h1.75c.61,0,1.1.49,1.1,1.1,0,.29-.12.57-.32.78l-3.31,3.31c-.21.21-.49.32-.78.32Z"/>
        <path class="cls-10" d="M9.93,20.76v4.41h-1.1c-1.22,0-2.2-.99-2.21-2.21v-2.21h3.31Z"/>
      </g>
    </g>
  </g>
</svg>