<?xml version="1.0" encoding="UTF-8"?>
<svg id="Camada_2" data-name="Camada 2" xmlns="http://www.w3.org/2000/svg" viewBox="0 0 64 64.32">
  <defs>
    <style>
      .cls-1 {
        fill: #ffe5a4;
      }

      .cls-2 {
        fill: #db8415;
      }

      .cls-3 {
        fill: #fff4d2;
      }

      .cls-4 {
        fill: #1a2228;
      }

      .cls-5 {
        fill: #f4f1f8;
      }

      .cls-6 {
        fill: #00d19f;
      }

      .cls-7 {
        fill: #ffa51e;
      }

      .cls-8 {
        fill: #fcd770;
      }
    </style>
  </defs>
  <g id="local_icon">
    <g>
      <g>
        <path class="cls-3" d="M52.75,60.17v2.07c0,.57-.47,1.04-1.04,1.04H12.29c-.57,0-1.04-.47-1.04-1.04v-2.07c0-.57.47-1.04,1.04-1.04h39.42c.57,0,1.04.47,1.04,1.04Z"/>
        <path class="cls-3" d="M52.75,8.3v2.07c0,.57-.47,1.04-1.04,1.04h-9.34c0-1.47-.31-2.88-.87-4.15h10.21c.57,0,1.04.47,1.04,1.04Z"/>
        <path class="cls-3" d="M12.29,7.26h10.21c-.56,1.27-.87,2.68-.87,4.15h-9.34c-.57,0-1.04-.47-1.04-1.04v-2.07c0-.57.47-1.04,1.04-1.04Z"/>
        <path class="cls-1" d="M44.23,32.27c1.98-.99,3.59-2.5,4.7-4.3,1.12-1.8,1.74-3.92,1.74-6.12v-10.44h-8.3c0,5.73-4.65,10.37-10.37,10.37s-10.37-4.65-10.37-10.37h-8.3v10.44c0,4.41,2.49,8.44,6.44,10.43,1.14.56,1.86,1.72,1.86,3s-.72,2.44-1.86,3c-1.98.99-3.59,2.5-4.7,4.3-1.12,1.8-1.74,3.92-1.74,6.12v10.44h37.34v-10.44c0-4.41-2.49-8.44-6.44-10.43-1.14-.56-1.86-1.72-1.86-3s.72-2.44,1.86-3h0Z"/>
        <path class="cls-6" d="M38.22,25.93h4.15c0,1.72-.7,3.28-1.83,4.4-1.12,1.13-2.68,1.83-4.4,1.83h-4.15c0-1.72.7-3.28,1.83-4.4,1.12-1.13,2.68-1.83,4.4-1.83Z"/>
        <path class="cls-6" d="M25.78,44.61c3.43,0,6.22,2.79,6.22,6.22h-6.22c-3.43,0-6.22-2.79-6.22-6.22h6.22Z"/>
        <path class="cls-6" d="M38.22,48.76h6.22c0,3.43-2.79,6.22-6.22,6.22h-6.22c0-3.43,2.79-6.22,6.22-6.22Z"/>
        <path class="cls-6" d="M32,39.42h-2.07c-1.14,0-2.18-.47-2.94-1.21-.75-.76-1.21-1.79-1.21-2.94h2.07c1.14,0,2.18.47,2.94,1.21.75.76,1.21,1.79,1.21,2.94Z"/>
        <path class="cls-8" d="M41.5,7.26c.56,1.27.87,2.68.87,4.15,0,5.73-4.65,10.37-10.37,10.37s-10.37-4.65-10.37-10.37c0-1.47.31-2.88.87-4.15,1.6-3.66,5.25-6.22,9.5-6.22s7.9,2.56,9.5,6.22Z"/>
        <g>
          <path class="cls-2" d="M36.69,2.25c3.32,1.71,5.58,5.18,5.58,9.16,0,5.7-4.62,10.32-10.32,10.32s-10.32-4.62-10.32-10.32S26.25,1.09,31.95,1.09c1.71,0,3.32.42,4.74,1.16Z"/>
          <path class="cls-7" d="M39.32,11.41c0,1.77-.63,3.4-1.67,4.67l-1.03,1.03c-1.28,1.04-2.91,1.67-4.67,1.67-4.07,0-7.37-3.3-7.37-7.37,0-1.77.63-3.4,1.67-4.67l1.03-1.03c1.28-1.04,2.91-1.67,4.67-1.67,4.07,0,7.37,3.3,7.37,7.37Z"/>
          <g>
            <path class="cls-5" d="M26.36,11.02h-1.05c0-2.42,1.54-4.56,3.82-5.33l.34.99c-1.86.62-3.11,2.37-3.11,4.33Z"/>
            <path class="cls-5" d="M35.66,17.13l-.5-.92c1.47-.8,2.38-2.35,2.38-4.02h1.05c0,2.06-1.13,3.96-2.94,4.94Z"/>
            <path class="cls-5" d="M34.24,12.16c-.23-.31-.54-.55-.9-.7-.26-.12-.72-.25-1.42-.41s-1.06-.33-1.14-.4c-.11-.1-.18-.24-.17-.39,0-.19.1-.38.26-.49.18-.15.5-.22.95-.22s.74.08.94.25.32.41.35.75l.03.21,1.2-.1v-.2c0-.39-.13-.76-.34-1.09-.22-.33-.54-.59-.91-.74-.18-.08-.38-.13-.57-.17v-.91h-1.31v.89c-.22.04-.44.1-.65.18-.36.14-.66.39-.88.7-.19.29-.3.64-.3.99,0,.32.08.62.25.89.18.28.45.51.75.66.25.13.66.26,1.25.4.37.08.73.18,1.08.3.18.05.33.16.47.29.08.11.12.25.12.38,0,.15-.04.29-.13.4-.11.14-.26.25-.44.32-.53.18-1.1.17-1.62-.04-.21-.08-.4-.22-.54-.4-.12-.2-.2-.43-.22-.67l-.03-.21-1.19.11v.2c0,.44.13.86.37,1.23.25.36.59.65.99.82.23.1.47.16.7.2v.69h1.3v-.67c.27-.04.54-.11.78-.23.37-.16.69-.43.91-.76.2-.31.32-.68.32-1.05,0-.36-.1-.71-.29-1.01h0Z"/>
          </g>
        </g>
      </g>
      <g>
        <path class="cls-4" d="M51.71,58.09v-9.39c0-4.84-2.69-9.19-7.02-11.35-.79-.4-1.28-1.19-1.28-2.07s.49-1.68,1.28-2.07c4.33-2.16,7.02-6.51,7.02-11.35v-9.39c1.14,0,2.07-.93,2.07-2.07v-2.07c0-1.14-.93-2.07-2.07-2.07h-9.56c-1.89-3.69-5.73-6.22-10.15-6.22s-8.26,2.54-10.15,6.22h-9.56c-1.14,0-2.07.93-2.07,2.07v2.07c0,1.14.93,2.07,2.07,2.07v9.39c0,4.84,2.69,9.19,7.02,11.35.79.4,1.28,1.19,1.28,2.07s-.49,1.68-1.28,2.07c-4.33,2.16-7.02,6.51-7.02,11.35v9.39c-1.14,0-2.07.93-2.07,2.07v2.07c0,1.14.93,2.07,2.07,2.07h39.42c1.14,0,2.07-.93,2.07-2.07v-2.07c0-1.14-.93-2.07-2.07-2.07ZM49.63,21.84c0,4.05-2.25,7.69-5.87,9.5-1.5.75-2.43,2.26-2.43,3.93s.93,3.18,2.43,3.93c3.62,1.81,5.87,5.45,5.87,9.5v9.39h-16.6v-2.07h5.19c4,0,7.26-3.26,7.26-7.26v-1.04h-7.26c-2.03,0-3.87.84-5.19,2.19v-16.71h3.11c4,0,7.26-3.26,7.26-7.26v-1.04h-5.19c-2.03,0-3.87.84-5.19,2.19v-4.32c5.46-.5,9.83-4.86,10.32-10.32h6.28v9.39ZM33.14,53.94c.48-2.36,2.58-4.15,5.08-4.15h5.08c-.48,2.36-2.58,4.15-5.08,4.15h-5.08ZM33.14,31.12c.48-2.36,2.58-4.15,5.08-4.15h3.01c-.48,2.36-2.58,4.15-5.08,4.15h-3.01ZM51.71,8.3v2.07h-8.35c-.06-.71-.2-1.41-.39-2.07h8.74ZM32,2.07c5.15,0,9.34,4.19,9.34,9.34s-4.19,9.34-9.34,9.34-9.34-4.19-9.34-9.34,4.19-9.34,9.34-9.34ZM12.29,8.3h8.74c-.19.67-.32,1.36-.39,2.07h-8.35v-2.07ZM14.37,48.7c0-4.05,2.25-7.69,5.87-9.5,1.5-.75,2.43-2.26,2.43-3.93s-.93-3.18-2.43-3.93c-3.62-1.81-5.87-5.45-5.87-9.5v-9.39h6.28c.5,5.46,4.86,9.83,10.32,10.32v12.53c-.87-.66-1.94-1.06-3.11-1.06h-3.11v1.04c0,2.86,2.33,5.19,5.19,5.19h1.04v5.3c-1.32-1.35-3.16-2.19-5.19-2.19h-7.26v1.04c0,4,3.26,7.26,7.26,7.26h5.19v6.22H14.37v-9.39ZM30.79,38.38h-.86c-1.35,0-2.51-.87-2.93-2.07h.86c1.35,0,2.51.87,2.93,2.07ZM30.86,49.79h-5.08c-2.51,0-4.6-1.79-5.08-4.15h5.08c2.51,0,4.6,1.79,5.08,4.15ZM12.29,62.24v-2.07h39.42v2.07s-39.42,0-39.42,0Z"/>
        <path class="cls-4" d="M64,31.61l-6.07-9.71-6.07,9.71,1.76,1.1,3.27-5.23v22.32h2.07v-22.32l3.27,5.23,1.76-1.1Z"/>
        <path class="cls-4" d="M56.9,56.02h2.07v2.07h-2.07v-2.07Z"/>
        <path class="cls-4" d="M56.9,51.87h2.07v2.07h-2.07v-2.07Z"/>
        <path class="cls-4" d="M10.37,32.71l1.76-1.1-6.07-9.71L0,31.61l1.76,1.1,3.27-5.23v22.32h2.07v-22.32l3.27,5.23Z"/>
        <path class="cls-4" d="M5.03,56.02h2.07v2.07h-2.07v-2.07Z"/>
        <path class="cls-4" d="M5.03,51.87h2.07v2.07h-2.07v-2.07Z"/>
      </g>
    </g>
  </g>
</svg>