<?xml version="1.0" encoding="UTF-8"?>
<svg id="Camada_2" data-name="Camada 2" xmlns="http://www.w3.org/2000/svg" xmlns:xlink="http://www.w3.org/1999/xlink" viewBox="0 0 356.41 159.81">
  <defs>
    <style>
      .cls-1, .cls-2 {
        fill: #f50;
      }

      .cls-3 {
        fill: #1a2228;
      }

      .cls-4 {
        fill: none;
      }

      .cls-2 {
        fill-rule: evenodd;
      }

      .cls-5 {
        clip-path: url(#clippath);
      }
    </style>
    <clipPath id="clippath">
      <rect class="cls-4" y="0" width="129.01" height="159.81"/>
    </clipPath>
  </defs>
  <g id="Camada_1-2" data-name="Camada 1">
    <g>
      <g class="cls-5">
        <g>
          <path class="cls-1" d="M0,31.96v19.53c60.27,0,109.3,48.58,109.3,108.32h19.71C129.01,89.21,71.24,31.96,0,31.96Z"/>
          <path class="cls-1" d="M129.01,31.96v19.53c-60.27,0-109.3,48.58-109.3,108.32H0C0,89.21,57.77,31.96,129.01,31.96Z"/>
          <path class="cls-2" d="M0,99.44v-19.53c28.37,0,52.89,18.38,64.5,45.04,11.62-26.66,36.14-45.04,64.5-45.04v19.53c-29.85,0-54.15,27.08-54.15,60.37h-20.71c0-33.29-24.3-60.37-54.15-60.37Z"/>
          <path class="cls-1" d="M64.52,0l-16.13,15.98,16.13,15.98,16.13-15.98L64.52,0Z"/>
        </g>
      </g>
      <g>
        <g>
          <path class="cls-3" d="M159.49,114.82v-32.35h7.02l11.78,19.18-5.04-.05,11.92-19.13h6.75v32.35h-7.62v-10.07c0-2.77.06-5.27.18-7.49.15-2.22.4-4.42.74-6.61l.88,2.4-8.97,13.91h-3.05l-8.78-13.82.88-2.5c.34,2.06.57,4.19.69,6.38.15,2.16.23,4.73.23,7.72v10.07h-7.62ZM200.06,114.82v-32.35h22.55v6.7h-14.93v18.95h15.39v6.7h-23.01ZM203.76,101.56v-6.38h16.78v6.38h-16.78ZM229.85,114.82v-32.35h7.02l16.96,23.11-1.52-.23c-.15-1.02-.28-1.99-.37-2.91-.09-.92-.19-1.83-.28-2.73-.06-.89-.12-1.8-.19-2.73-.03-.92-.06-1.93-.09-3v-11.51h7.63v32.35h-7.12l-17.7-23.84,2.36.32c.15,1.48.28,2.74.37,3.79.12,1.02.22,1.93.28,2.73.09.8.15,1.52.18,2.17.03.65.05,1.29.05,1.94.03.62.05,1.31.05,2.08v10.81h-7.62ZM277.84,115.28c-2.13,0-4.05-.25-5.78-.74-1.69-.52-3.21-1.26-4.53-2.22-1.33-.99-2.51-2.14-3.56-3.47l4.76-5.41c1.54,2.06,3.08,3.45,4.62,4.16,1.57.71,3.19,1.06,4.85,1.06.83,0,1.59-.11,2.26-.32.68-.22,1.2-.52,1.57-.92.37-.43.56-.96.56-1.57,0-.46-.12-.88-.37-1.25-.22-.37-.52-.69-.92-.97-.4-.28-.88-.52-1.43-.74-.56-.25-1.14-.45-1.76-.6-.62-.18-1.25-.34-1.89-.46-1.79-.4-3.34-.89-4.67-1.48-1.33-.59-2.43-1.29-3.33-2.13-.86-.86-1.51-1.83-1.94-2.91-.43-1.11-.65-2.34-.65-3.7,0-1.45.32-2.77.97-3.97.68-1.23,1.57-2.28,2.68-3.14,1.14-.89,2.45-1.57,3.93-2.03,1.48-.49,3.02-.74,4.62-.74,2.12,0,3.94.23,5.45.69,1.54.43,2.85,1.06,3.93,1.89,1.11.83,2.05,1.83,2.82,3l-4.85,4.67c-.65-.8-1.36-1.46-2.13-1.99-.74-.52-1.54-.92-2.4-1.2-.83-.28-1.69-.42-2.59-.42s-1.73.12-2.4.37c-.65.22-1.15.54-1.52.97-.37.4-.56.89-.56,1.48,0,.52.15.97.46,1.34s.72.71,1.25,1.02c.52.28,1.12.52,1.8.74.68.18,1.39.34,2.13.46,1.69.34,3.22.79,4.58,1.34,1.39.55,2.57,1.23,3.56,2.03,1.02.8,1.79,1.76,2.31,2.86.56,1.08.83,2.34.83,3.79,0,2.25-.56,4.16-1.66,5.73-1.08,1.54-2.57,2.73-4.48,3.56-1.88.8-4.05,1.2-6.52,1.2ZM311.1,115.28c-2.43,0-4.68-.4-6.75-1.2-2.03-.83-3.8-1.99-5.31-3.47-1.51-1.51-2.68-3.28-3.51-5.31-.8-2.06-1.2-4.33-1.2-6.79s.43-4.62,1.29-6.65c.86-2.03,2.05-3.79,3.56-5.27,1.54-1.51,3.34-2.68,5.41-3.51,2.1-.83,4.37-1.25,6.84-1.25,1.54,0,3.05.2,4.53.6,1.48.4,2.85,1,4.11,1.8,1.29.77,2.41,1.69,3.33,2.77l-4.81,5.5c-.65-.68-1.34-1.26-2.08-1.76-.71-.52-1.49-.92-2.36-1.2-.86-.28-1.79-.42-2.77-.42-1.23,0-2.4.23-3.51.69-1.08.43-2.03,1.06-2.86,1.89-.8.8-1.43,1.79-1.89,2.96-.46,1.17-.69,2.48-.69,3.93s.23,2.71.69,3.88c.46,1.14,1.11,2.13,1.94,2.96.83.83,1.83,1.46,3,1.89,1.2.43,2.53.65,3.98.65.98,0,1.92-.14,2.82-.42.89-.28,1.71-.65,2.45-1.11.77-.49,1.45-1.05,2.03-1.66l3.79,6.01c-.77.86-1.8,1.63-3.1,2.31-1.26.68-2.68,1.22-4.25,1.62-1.54.37-3.1.55-4.67.55ZM348.55,114.82v-32.35h7.86v32.35h-7.86ZM328.49,114.82v-32.35h7.86v32.35h-7.86ZM331.55,102.2l.04-7.02h21.12v7.02h-21.16Z"/>
          <g>
            <path class="cls-1" d="M159.49,159.61v-32.35h7.02l11.78,19.18-5.04-.05,11.92-19.13h6.75v32.35h-7.62v-10.07c0-2.77.06-5.27.18-7.49.15-2.22.4-4.42.74-6.61l.88,2.4-8.97,13.91h-3.05l-8.78-13.82.88-2.5c.34,2.06.57,4.19.69,6.38.15,2.16.23,4.73.23,7.72v10.07h-7.62Z"/>
            <path class="cls-1" d="M215.43,159.61v-32.35h7.02l16.96,23.11-1.52-.23c-.15-1.02-.28-1.99-.37-2.91-.09-.92-.19-1.83-.28-2.73-.06-.89-.12-1.8-.19-2.73-.03-.92-.06-1.93-.09-3v-11.51h7.63v32.35h-7.12l-17.7-23.84,2.36.32c.15,1.48.28,2.74.37,3.79.12,1.02.22,1.93.28,2.73.09.8.15,1.52.18,2.17.03.65.05,1.29.05,1.94.03.62.05,1.31.05,2.08v10.81h-7.62Z"/>
            <path class="cls-1" d="M207.43,127.26v32.35h-7.5v-32.35h7.5Z"/>
            <path class="cls-1" d="M260.44,127.26v32.35h-7.86v-32.35h7.86ZM263.75,159.61h-7.94v-7.47h7.62c1.44,0,2.67-.25,3.69-.76,1.02-.51,1.79-1.39,2.32-2.66.53-1.27.8-3.02.8-5.27s-.27-4.02-.82-5.29c-.54-1.27-1.34-2.16-2.38-2.67-1.04-.51-2.32-.77-3.84-.77h-7.51v-7.47h7.94c2.98,0,5.56.65,7.72,1.94,2.17,1.3,3.84,3.15,5.02,5.57,1.18,2.42,1.77,5.31,1.77,8.68s-.59,6.25-1.76,8.66c-1.17,2.42-2.84,4.27-4.99,5.56-2.15,1.29-4.7,1.93-7.64,1.93Z"/>
          </g>
        </g>
        <path class="cls-3" d="M302.2,151.35c0,4.34-3.34,7.75-7.68,7.75s-7.72-3.41-7.72-7.75,3.43-7.66,7.72-7.66,7.68,3.41,7.68,7.66ZM288.72,151.35c0,3.41,2.47,6.11,5.85,6.11s5.71-2.71,5.71-6.07-2.42-6.16-5.76-6.16-5.8,2.75-5.8,6.11h0ZM293.34,155.36h-1.74v-7.66c.68-.14,1.65-.23,2.88-.23,1.42,0,2.06.23,2.61.56.41.33.73.93.73,1.68,0,.84-.64,1.49-1.56,1.77v.09c.73.28,1.14.84,1.37,1.87.23,1.17.37,1.63.55,1.91h-1.87c-.23-.28-.37-.98-.59-1.87-.14-.84-.59-1.21-1.56-1.21h-.82v3.08h0ZM293.39,151.02h.82c.96,0,1.74-.33,1.74-1.12,0-.7-.5-1.17-1.6-1.17-.46,0-.78.05-.96.09v2.19h0Z"/>
      </g>
    </g>
  </g>
</svg>