<?xml version="1.0" encoding="UTF-8"?>
<svg id="Camada_2" data-name="Camada 2" xmlns="http://www.w3.org/2000/svg" viewBox="0 0 879.43 1092.05">
  <defs>
    <style>
      .cls-1 {
        fill-rule: evenodd;
      }

      .cls-1, .cls-2, .cls-3 {
        fill: none;
        stroke-miterlimit: 10;
        stroke-width: 10px;
      }

      .cls-1, .cls-3 {
        stroke: #f4f1f8;
      }

      .cls-2 {
        stroke: #8b0625;
      }

      .cls-4 {
        opacity: .35;
      }
    </style>
  </defs>
  <g id="Camada_1-2" data-name="Camada 1">
    <g class="cls-4">
      <g>
        <path class="cls-2" d="M434.78,12.05l-108.7,108.02,108.7,108.02,108.7-108.02L434.78,12.05Z"/>
        <path class="cls-2" d="M869.43,228.13c-158.33,0-306.84,42.01-434.71,115.67C306.84,270.15,158.33,228.13,0,228.13v131.98c111.46,0,217.19,24.73,312.02,69.02-54.97,45.58-104.22,97.96-146.34,155.63-51.63-21.17-107.46-32.73-165.68-32.73v132.09c32.51,0,64.69,4.76,95.69,13.83C34.45,816.1,0,950.14,0,1092.05h132.84c0-120.74,29.59-234.8,81.97-335.35,101.42,73.66,172.27,196.35,172.37,335.03v.32h95.04v-.32c.11-138.79,70.96-261.48,172.37-335.03,52.38,100.55,81.98,214.6,81.98,335.35h132.84c0-142.02-34.45-276.06-95.69-394.21,31-8.96,63.18-13.72,95.69-13.72v-132.09c-58.32,0-114.05,11.56-165.68,32.73-42.23-57.68-91.37-109.95-146.35-155.63,94.83-44.28,200.56-69.02,312.02-69.02v-131.98ZM588.84,652.8c-65.56,52.49-118.8,123.02-154.12,205.1-35.32-82.08-88.56-152.5-154.12-204.99,43.53-57.68,95.58-108.76,154.12-151.42,58.54,42.66,110.49,93.64,154.12,151.31Z"/>
      </g>
      <g>
        <path class="cls-3" d="M439.78,7.05l-108.7,108.02,108.7,108.02,108.7-108.02L439.78,7.05Z"/>
        <path class="cls-1" d="M874.43,223.13c-158.33,0-306.84,42.01-434.71,115.67C311.84,265.15,163.33,223.13,5,223.13v131.98c111.46,0,217.19,24.73,312.02,69.02-54.97,45.58-104.22,97.96-146.34,155.63-51.63-21.17-107.46-32.73-165.68-32.73v132.09c32.51,0,64.69,4.76,95.69,13.83C39.45,811.1,5,945.14,5,1087.05h132.84c0-120.74,29.59-234.8,81.97-335.35,101.42,73.66,172.27,196.35,172.37,335.03v.32h95.04v-.32c.11-138.79,70.96-261.48,172.37-335.03,52.38,100.55,81.98,214.6,81.98,335.35h132.84c0-142.02-34.45-276.06-95.69-394.21,31-8.96,63.18-13.72,95.69-13.72v-132.09c-58.32,0-114.05,11.56-165.68,32.73-42.23-57.68-91.37-109.95-146.35-155.63,94.83-44.28,200.56-69.02,312.02-69.02v-131.98ZM593.84,647.8c-65.56,52.49-118.8,123.02-154.12,205.1-35.32-82.08-88.56-152.5-154.12-204.99,43.53-57.68,95.58-108.76,154.12-151.42,58.54,42.66,110.49,93.64,154.12,151.31Z"/>
      </g>
    </g>
  </g>
</svg>