<?xml version="1.0" encoding="UTF-8"?>
<svg id="Camada_1" data-name="Camada 1" xmlns="http://www.w3.org/2000/svg" xmlns:xlink="http://www.w3.org/1999/xlink" viewBox="0 0 160 201.34">
  <defs>
    <style>
      .cls-1, .cls-2 {
        fill: #8b0625;
      }

      .cls-3 {
        fill: none;
      }

      .cls-2 {
        fill-rule: evenodd;
      }

      .cls-4 {
        clip-path: url(#clippath);
      }
    </style>
    <clipPath id="clippath">
      <rect class="cls-3" width="160" height="201.34"/>
    </clipPath>
  </defs>
  <g class="cls-4">
    <g>
      <path class="cls-1" d="M0,42.34v24.29c74.76,0,135.56,60.42,135.56,134.71h24.44C160,113.54,88.36,42.34,0,42.34Z"/>
      <path class="cls-1" d="M160,42.34v24.29c-74.76,0-135.56,60.42-135.56,134.71H0C0,113.54,71.64,42.34,160,42.34Z"/>
      <path class="cls-2" d="M0,126.26v-24.29c35.27,0,65.68,22.98,80,56.27,14.32-33.29,44.73-56.27,80-56.27v24.29c-37,0-71.21,33.64-71.25,75.01v.07h-17.5v-.07c-.04-41.37-34.25-75.01-71.25-75.01Z"/>
      <path class="cls-1" d="M80.02,2.58l-20,19.88,20,19.88,20-19.88L80.02,2.58Z"/>
    </g>
  </g>
</svg>