<?xml version="1.0" encoding="UTF-8"?>
<svg id="Camada_2" data-name="Camada 2" xmlns="http://www.w3.org/2000/svg" viewBox="0 0 129.64 114.81">
  <defs>
    <style>
      .cls-1 {
        fill: #f76861;
      }
    </style>
  </defs>
  <g id="Camada_1-2" data-name="Camada 1">
    <g>
      <path class="cls-1" d="M59.85,15.01V0C40.28,9.03,25.42,20.14,15.25,33.35S0,61.27,0,77.47c0,11.41,2.86,20.49,8.56,27.23,5.71,6.74,13.35,10.11,22.92,10.11,7.61,0,14.08-2.71,19.41-8.15,5.32-5.44,7.99-12.07,7.99-19.9s-2.37-14.43-7.1-20.14c-4.73-5.71-11.99-10.57-21.77-14.59,1.52-6.85,4.81-13.4,9.87-19.66,5.05-6.24,11.71-12.03,19.97-17.36ZM30.58,73.95l9.39,9.39-9.39,9.39-9.39-9.39,9.39-9.39Z"/>
      <path class="cls-1" d="M129.64,15.01V0c-19.57,9.03-34.43,20.14-44.6,33.35s-15.25,27.92-15.25,44.12c0,11.41,2.86,20.49,8.56,27.23,5.71,6.74,13.35,10.11,22.92,10.11,7.61,0,14.08-2.71,19.41-8.15,5.32-5.44,7.99-12.07,7.99-19.9s-2.37-14.43-7.1-20.14c-4.73-5.71-11.99-10.57-21.77-14.59,1.52-6.85,4.81-13.4,9.87-19.66,5.05-6.24,11.71-12.03,19.97-17.36ZM100.37,73.95l9.39,9.39-9.39,9.39-9.39-9.39,9.39-9.39Z"/>
    </g>
  </g>
</svg>