<?xml version="1.0" encoding="UTF-8"?>
<svg id="Camada_2" xmlns="http://www.w3.org/2000/svg" version="1.1" viewBox="0 0 129.6 114.8">
  <!-- Generator: Adobe Illustrator 29.0.0, SVG Export Plug-In . SVG Version: 2.1.0 Build 186)  -->
  <defs>
    <style>
      .st0 {
        fill: #db8415;
      }
    </style>
  </defs>
  <g id="Camada_1-2">
    <g>
      <path class="st0" d="M59.8,15V0C40.3,9,25.4,20.1,15.2,33.3S0,61.3,0,77.5s2.9,20.5,8.6,27.2c5.7,6.7,13.3,10.1,22.9,10.1s14.1-2.7,19.4-8.2c5.3-5.4,8-12.1,8-19.9s-2.4-14.4-7.1-20.1-12-10.6-21.8-14.6c1.5-6.8,4.8-13.4,9.9-19.7,5-6.2,11.7-12,20-17.4ZM30.6,73.9l9.4,9.4-9.4,9.4-9.4-9.4s9.4-9.4,9.4-9.4Z"/>
      <path class="st0" d="M129.6,15V0c-19.6,9-34.4,20.1-44.6,33.3s-15.2,27.9-15.2,44.1,2.9,20.5,8.6,27.2c5.7,6.7,13.3,10.1,22.9,10.1s14.1-2.7,19.4-8.2c5.3-5.4,8-12.1,8-19.9s-2.4-14.4-7.1-20.1c-4.7-5.7-12-10.6-21.8-14.6,1.5-6.8,4.8-13.4,9.9-19.7,5.1-6.2,11.7-12,20-17.4ZM100.4,73.9l9.4,9.4-9.4,9.4-9.4-9.4,9.4-9.4Z"/>
    </g>
  </g>
</svg>