<?xml version="1.0" encoding="UTF-8"?>
<svg id="Camada_2" data-name="Camada 2" xmlns="http://www.w3.org/2000/svg" xmlns:xlink="http://www.w3.org/1999/xlink" viewBox="0 0 39.77 39.78">
  <defs>
    <style>
      .cls-1 {
        fill: url(#Gradiente_sem_nome_5);
      }

      .cls-2 {
        fill: url(#Gradiente_sem_nome_6-3);
      }

      .cls-3 {
        fill: #fff;
      }

      .cls-4 {
        fill: #000002;
      }

      .cls-5 {
        fill: url(#Gradiente_sem_nome_6-4);
      }

      .cls-6 {
        fill: url(#Gradiente_sem_nome);
      }

      .cls-7 {
        fill: url(#Gradiente_sem_nome_6-2);
      }

      .cls-8 {
        fill: url(#Gradiente_sem_nome_6);
      }

      .cls-9 {
        fill: #d1d3d4;
      }
    </style>
    <linearGradient id="Gradiente_sem_nome" data-name="Gradiente sem nome" x1="37.05" y1="18.22" x2="22.2" y2="23.92" gradientTransform="translate(0 43.28) scale(1 -1)" gradientUnits="userSpaceOnUse">
      <stop offset=".15" stop-color="#0066b3"/>
      <stop offset=".34" stop-color="#005291"/>
      <stop offset=".74" stop-color="#00213b"/>
      <stop offset="1" stop-color="#000002"/>
    </linearGradient>
    <linearGradient id="Gradiente_sem_nome_6" data-name="Gradiente sem nome 6" x1="20.68" y1="28.95" x2="14.76" y2="6.87" gradientTransform="translate(0 43.28) scale(1 -1)" gradientUnits="userSpaceOnUse">
      <stop offset=".41" stop-color="#0066b3"/>
      <stop offset=".54" stop-color="#005291"/>
      <stop offset=".82" stop-color="#00213b"/>
      <stop offset="1" stop-color="#000002"/>
    </linearGradient>
    <linearGradient id="Gradiente_sem_nome_6-2" data-name="Gradiente sem nome 6" x1="20.5" y1="33.43" x2="22.16" y2="41.21" xlink:href="#Gradiente_sem_nome_6"/>
    <linearGradient id="Gradiente_sem_nome_6-3" data-name="Gradiente sem nome 6" x1="20.36" y1="22.32" x2="2.26" y2="26.84" xlink:href="#Gradiente_sem_nome_6"/>
    <linearGradient id="Gradiente_sem_nome_5" data-name="Gradiente sem nome 5" x1="14.72" y1="31.85" x2="11.17" y2="6.57" gradientTransform="translate(0 43.28) scale(1 -1)" gradientUnits="userSpaceOnUse">
      <stop offset=".13" stop-color="#0066b3"/>
      <stop offset=".23" stop-color="#075cac"/>
      <stop offset=".49" stop-color="#17479e"/>
      <stop offset=".99" stop-color="#000002"/>
    </linearGradient>
    <linearGradient id="Gradiente_sem_nome_6-4" data-name="Gradiente sem nome 6" x1="17.07" y1="29.33" x2="25.45" y2="6.35" xlink:href="#Gradiente_sem_nome_6"/>
  </defs>
  <g id="Layer_1" data-name="Layer 1">
    <g>
      <circle class="cls-3" cx="20.01" cy="19.99" r="19.17"/>
      <path class="cls-4" d="M22.68,13.51c.11.11.1.33.07.46.77,0,.62.56,1.25.27-.76-.85-1.1-1.1-1.51-1.42-.6.07-1.14.13-1.81.22-.28.36-.28.67-.23.67.18,0,.32-.38.67-.21.21.29.39.52.8.6.27.05.71-.12.75-.6h.01Z"/>
      <path class="cls-6" d="M28.88,14.8c.25-.77-.38-1.46-.38-1.46-.1.48-.49.56-.49.56,0,0-.74-.71-.82-.86.76-.34,1.26-.27,1.89.11,0-.01.13-.25.15-.29-.55-1.47-2.05-2.61-3.4-3.01,3.2-1.68,9.67.44,10.88,3.99-.02,0-1.79-1.82-4.4-1.08,2.65.48,4.96,3.08,5.33,5.45.04.29.13,1.17.11,2.06-.36-1.14-2.06-2.53-4.34-2.57,4.3,2.55,3.8,6.92,2.96,9.08-.26.72-1.35,2.89-2.73,4.5,1.26-3.59-1.19-6.31-2.86-6.81,1.91,2.02,2.93,7.95-1.73,10.76,0-.02.62-1.56-.43-3.91-1.57-3.52-5.43-4.97-7.97-7.24.83.31,2.75.26,3.41.46.42.13,1.17.69,1.21,1.43.96.08,2.22-.04,2.92-.99.16.07.27.19.39.36.56-.89.93-1.7.79-2.78-.16-1.32-.71-1.43-1.07-1.5-.62-.12-1.56.3-2.44.65-.73.29-1.03.43-1.41.56-.3.1-.95.22-1.32-.08-.18-.14-.54-1-.25-.98.28.08,1.26.45,2.05.41.81-.03,1.6-.48,2.45-1.05.29-.2.63-.25.9-.24.05-.28.11-.91-.03-1.25-.2-.49-.66-.5-1.53-1.14-.28-.21-.38-.75-.23-.84.21-.12,1.43.48,2.57.44.74-.03,1.22-.4,1.32-.36.08.03-.11.64-.34.79-.47.31-.91.71-1.19,1.15-.14.22-.35.98-.4,1.24.93.11,1.1,1.85,1.1,1.84,1.04.14,1.18-3.57.88-4.23.13-.24.29-.72.21-.89-.39-.78-1.32-1.81-1.76-2.3v.02Z"/>
      <path class="cls-8" d="M17.04,13.35c-2.59,2.16-4.29,7.49-3.82,12.83.26,2.88,1.92,9.3,6.73,11.62h.01c3.18-13.04-7.24-12.13-2.93-24.45h.01Z"/>
      <path class="cls-7" d="M29.44,4.76c-2.21.31-3.72,2.62-4.31,4.21h-.02c.13-3.22,1.6-4.43,2.69-5.13h0c-2.18-1.08-4.61-1.74-7.19-1.85h-.18c3.97,2.54,4.27,7.44,4.27,7.49h-.02c-1.29-3.61-4.38-6.25-7.92-7.23-2.47.44-4.77,1.38-6.79,2.73,4.49-.81,9.47.49,13.2,3.99.61.58,1.17,1.18,1.68,1.81.37-1.04,1.74-3.39,4.37-3.32,1.75.05,2.51.92,2.95,1.9,0-.05.28-1.21.11-2.36h0c-.86-.84-1.8-1.58-2.81-2.23h-.03Z"/>
      <path class="cls-2" d="M6.79,7.66c-2.2,2.35-3.78,5.29-4.46,8.57,5.1-6.97,13.01-7.75,16.15-7.21-3.85.32-8.26,2.07-10.81,4.27-2.79,2.41-4.57,5.21-5.66,7.95v.03c.27,3.48,1.54,6.7,3.54,9.36h0c-.33-3.8.99-8.87,4.12-13.06,4.32-5.78,9.24-8.42,13.45-7.64-4.75-4.23-11.1-4.31-16.33-2.28h0Z"/>
      <path class="cls-1" d="M12.26,29.25c-1.43-7.15.96-14.17,5.25-17.43-3.4,1.65-6.98,5.56-8.65,9.61-1.76,4.27-2.08,8.5-.83,11.88q.83,2.25,0,0c2.29,2.02,5.1,3.46,8.21,4.11-1.85-1.94-3.3-4.74-3.99-8.18h0Z"/>
      <path class="cls-5" d="M25.93,29.58c-.93-1.01-2.81-2.68-4.67-3.97-.6-.42-4.26-3.13-3.64-7.86.23,1.61,1.66,1.3,2.13,3.13h0c.24-3.57-2.46-3.25-2.26-7.05,0-.05,0-.04-.01-.02h0c-.61,2.26-.7,4.16-.47,5.83h0c.44,3.58,2.33,5.99,3.79,8.6,1.2,2.21,2.1,4.53,1.65,7.66-.08.56-.21,1.15-.38,1.77,1.7-.21,3.34-.66,4.87-1.32v-.03h0c1-2.25.73-4.84-1.01-6.74Z"/>
      <path class="cls-9" d="M19.05,39.77C8.09,39.31-.45,30.02.02,19.06.48,8.1,9.77-.44,20.72.02c10.96.46,19.5,9.75,19.03,20.7-.46,10.96-9.75,19.5-20.7,19.04h0ZM20.68,1.02C10.27.58,1.45,8.69,1.01,19.1c-.44,10.41,7.68,19.23,18.08,19.67,10.41.44,19.23-7.68,19.67-18.08.44-10.41-7.67-19.23-18.08-19.67Z"/>
    </g>
  </g>
</svg>