<?xml version="1.0" encoding="UTF-8"?>
<svg id="Camada_2" data-name="Camada 2" xmlns="http://www.w3.org/2000/svg" viewBox="0 0 218.85 25.01">
  <g id="Layer_1" data-name="Layer 1">
    <g>
      <path d="M45.11,6.97c0,4.11-3.16,6.86-8.14,6.86s-8.13-2.75-8.13-6.86S32.11.11,36.97.11s8.14,2.75,8.14,6.86M36.97,2.41c-3.27,0-5.69,1.69-5.69,4.56s2.44,4.58,5.69,4.58,5.71-1.69,5.71-4.58-2.46-4.56-5.71-4.56Z"/>
      <path d="M24.37,13.63l-2.33-3.76h-5.74v3.76h-2.49V.43h8.02c3.01,0,4.51,2.38,4.51,4.73,0,1.53-.65,3.07-1.92,3.95l2.76,4.52h-2.83.02ZM16.31,2.52v5.28h4.95c1.68,0,2.51-1.29,2.51-2.62s-.85-2.66-2.51-2.66h-4.95Z"/>
      <path d="M52.17,13.63v-4.71L45.18.39h3l5.23,6.48L58.65.39h3.03l-7.06,8.61v4.62h-2.46,0Z"/>
      <path d="M71.51,11.1h-8.83l-1.62,2.53h-2.77L67.1.18l8.81,13.45h-2.77l-1.64-2.53h.01ZM64.03,8.98h6.15l-3.07-4.84-3.07,4.84h-.01Z"/>
      <path d="M78.03,13.63V.4h2.49v11.14h9.11v2.09s-11.6,0-11.6,0Z"/>
      <path d="M100.85,9.86v3.74h-2.49V.4h7.44c3.43,0,5.11,2.38,5.11,4.73s-1.68,4.73-5.11,4.73h-4.95ZM100.88,2.51v5.27h4.76c2.09,0,3.1-1.3,3.1-2.62s-1.03-2.64-3.1-2.64h-4.76Z"/>
      <path d="M129.6,13.62V.4h12.33v2.1h-9.84v4.17h8.14v2.07h-8.14v2.81h9.84v2.07h-12.33Z"/>
      <path d="M164.5,13.59V2.49h-5.46V.39h13.42v2.1h-5.48v11.1h-2.49.01Z"/>
      <path d="M174.9,13.59V.4h2.49v13.19h-2.49Z"/>
      <path d="M124.25,13.6l-2.33-3.76h-5.74v3.76h-2.49V.39h8.03c3.01,0,4.52,2.38,4.52,4.73,0,1.53-.66,3.08-1.92,3.95l2.76,4.52h-2.84.01ZM116.18,2.49v5.28h4.95c1.68,0,2.51-1.29,2.51-2.62s-.85-2.66-2.51-2.66h-4.95Z"/>
      <path d="M199.13,13.61V.39h12.33v2.1h-9.84v4.17h8.14v2.07h-8.14v2.81h9.84v2.07h-12.33Z"/>
      <path d="M156.57,3.02c-1.67-.54-3.42-.66-5.36-.66-1.52,0-4.16.07-4.16,1.56,0,3.31,10.52-.47,10.52,5.79,0,3.52-3.63,4.13-6.74,4.13-2.22,0-4.55-.24-6.36-.69l.09-2.29c1.81.52,4.14.8,6.29.8s4.42-.31,4.42-1.84c0-3.54-10.54.33-10.54-5.74,0-3.5,3.8-3.9,6.47-3.9,2.35,0,4.08.26,5.46.69l-.08,2.15h0Z"/>
      <path d="M187.36,8.71v-2.04h8.81s.03,1.44,0,1.7c-.26,2.61-3.42,5.38-7.77,5.38-5.06,0-8.38-2.83-8.38-6.8s3.29-6.71,8.49-6.71c1.73,0,4.16.3,5.95,1.24v2.41c-.93-.51-2.91-1.38-5.66-1.38-3.61,0-6.23,1.47-6.23,4.42,0,2.78,2.35,4.51,6,4.51,2.11,0,4.48-1.34,4.89-2.72h-6.11.01Z"/>
      <path d="M218.07,4.5c-.52.52-1.14.78-1.87.78s-1.36-.26-1.87-.78c-.51-.51-.77-1.14-.77-1.87s.26-1.34.78-1.86c.51-.51,1.13-.77,1.86-.77s1.36.26,1.87.77c.52.51.78,1.13.78,1.86s-.26,1.35-.78,1.87ZM214.59,1.03c-.44.44-.66.98-.66,1.61s.22,1.17.66,1.61c.44.45.98.67,1.61.67s1.17-.22,1.61-.67c.44-.44.66-.98.66-1.61s-.22-1.16-.66-1.61-.98-.67-1.61-.67-1.16.22-1.61.67ZM216.15,1.18c.36,0,.62.04.79.11.3.12.45.37.45.73,0,.26-.09.45-.28.57-.1.07-.24.11-.42.14.22.04.39.13.5.28.11.16.16.3.16.45v.42c0,.08.01.13.03.15l.02.04h-.48v-.38c-.01-.33-.1-.55-.28-.66-.11-.06-.3-.09-.57-.09h-.4v1.14h-.51V1.19h1.02-.03ZM216.7,1.64c-.13-.07-.33-.11-.62-.11h-.44v1.05h.46c.22,0,.38-.02.49-.06.2-.08.3-.23.3-.45s-.06-.35-.19-.42h0Z"/>
      <path d="M0,23.37v-.21h1.47v.21h-.62v1.64h-.25v-1.64h-.61,0Z"/>
      <path d="M2.02,23.16l.58,1.55.58-1.55h.34v1.85h-.23v-1.54h0l-.58,1.54h-.21l-.57-1.54h0v1.54h-.23v-1.85h.34-.02Z"/>
    </g>
  </g>
</svg>