<?xml version="1.0" encoding="UTF-8"?>
<svg id="Camada_2" data-name="Camada 2" xmlns="http://www.w3.org/2000/svg" xmlns:xlink="http://www.w3.org/1999/xlink" viewBox="0 0 192.32 192.32">
  <defs>
    <style>
      .cls-1 {
        fill: none;
      }

      .cls-2 {
        fill: #f4f1f8;
      }

      .cls-3 {
        fill: #ffa51e;
      }

      .cls-4 {
        fill: #1f2226;
      }

      .cls-5 {
        clip-path: url(#clippath);
      }
    </style>
    <clipPath id="clippath">
      <rect class="cls-1" x="62.66" y="53.13" width="67" height="83"/>
    </clipPath>
  </defs>
  <g id="Camada_1-2" data-name="Camada 1">
    <g>
      <circle class="cls-2" cx="96.16" cy="96.16" r="96.16"/>
      <g>
        <path d="M100.11,23.38c-.63-.04-1.18-.21-1.65-.51-.47-.3-.82-.69-1.06-1.18s-.34-1.03-.31-1.62l.24-3.94,1.08.07-.24,3.88c-.02.41.05.78.22,1.11.17.33.41.6.72.81.31.2.66.32,1.06.34.41.03.79-.04,1.13-.21.34-.17.62-.4.83-.71.21-.31.33-.67.35-1.08l.24-3.88,1.03.06-.24,3.94c-.04.59-.2,1.12-.5,1.57-.3.46-.7.8-1.2,1.04-.5.24-1.06.34-1.7.3h0Z"/>
        <path d="M106.39,23.88l1.39-6.86,1.04.21,2.05,4.54-.43-.1,3.66-3.37,1.02.21-1.39,6.86-1.06-.21.58-2.87c.11-.56.23-1.08.35-1.55.12-.47.27-.94.45-1.4l.04.42-3.33,2.97-.65-.13-1.87-4.01.19-.38c-.02.49-.06.97-.13,1.44-.07.48-.16,1-.28,1.59l-.58,2.87-1.06-.21v-.02Z"/>
        <path d="M115.99,26l5.24-5.58,1.12.39.6,7.63-1.1-.39-.4-4.97c-.01-.1-.03-.22-.03-.38s-.01-.32-.02-.5c0-.17,0-.35,0-.51v-.43l.27.08c-.1.11-.2.23-.3.36-.1.13-.21.25-.32.38-.11.13-.21.25-.32.37-.1.12-.2.22-.29.32l-3.38,3.6-1.06-.37ZM117.83,24.87l.73-.85,3.52,1.23-.06,1.08-4.19-1.47h0Z"/>
        <path d="M130.65,32.36c-.3-.17-.54-.36-.72-.58-.19-.22-.33-.44-.43-.67-.1-.23-.17-.45-.21-.67-.04-.21-.05-.39-.05-.55l.97-.3c.02.23.05.43.09.62.04.19.09.35.16.51.07.15.16.29.27.42.11.12.25.24.43.33.28.16.57.24.84.23.28,0,.54-.09.77-.25.23-.16.43-.36.58-.63l1.67-2.95-1.33-.76.51-.9,3.33,1.89-.51.9-1.06-.6-1.72,3.03c-.17.3-.38.56-.64.76-.26.2-.54.36-.86.45-.32.09-.66.12-1.01.08-.35-.04-.71-.17-1.08-.38v.02Z"/>
        <path d="M138.37,37.35c-.45-.33-.81-.71-1.08-1.14-.27-.43-.45-.88-.53-1.35-.08-.47-.08-.94.03-1.4.11-.46.31-.9.61-1.31.3-.41.66-.73,1.07-.97.41-.24.86-.38,1.33-.44.48-.05.96-.01,1.44.12.49.13.96.37,1.41.7.46.34.82.72,1.09,1.14.27.42.45.87.53,1.35.08.48.07.94-.03,1.41-.11.46-.31.9-.61,1.31-.3.41-.66.73-1.07.97-.41.24-.86.39-1.34.44-.48.05-.96.02-1.44-.12-.49-.13-.96-.37-1.41-.71ZM139,36.51c.33.24.66.41,1.01.51.35.1.69.12,1.02.09.33-.03.65-.14.94-.31.29-.17.55-.4.76-.69.21-.29.36-.6.43-.93.07-.33.08-.66.02-.99-.06-.33-.19-.65-.39-.96-.2-.31-.46-.58-.78-.82-.33-.24-.67-.41-1.02-.51-.35-.1-.69-.13-1.03-.1-.34.03-.65.13-.94.3-.29.17-.55.4-.76.7-.21.29-.36.6-.44.93s-.09.66-.02.99c.07.33.2.65.39.96.2.31.46.58.78.82h.03Z"/>
        <path d="M143.55,41.35l4.86-5.04,2.59,2.5c.29.28.49.61.6.99.11.38.12.75.04,1.13-.08.38-.26.72-.55,1.02-.28.29-.61.48-1,.57-.39.09-.78.08-1.18-.02-.4-.1-.75-.3-1.05-.6l-1.73-1.67-1.81,1.87-.78-.75h0ZM146.86,39.48l1.73,1.67c.16.16.35.26.56.32.21.05.42.05.62,0,.21-.05.38-.15.53-.31.15-.16.24-.34.27-.55.03-.21,0-.42-.07-.63-.07-.21-.21-.41-.39-.59l-1.63-1.58-1.61,1.67h0ZM147.06,44.72l.67-3.75.99.6-.71,4.07-.95-.93h0Z"/>
        <path d="M149.9,47.73l5.48-4.35.64.81-1.34,7.53-.13-.02c.12-.14.27-.29.42-.44.15-.15.32-.3.49-.46.17-.16.36-.32.55-.49.19-.16.38-.32.58-.48s.39-.32.59-.48l1.8-1.43.67.85-5.48,4.35-.65-.82,1.22-7.34.14-.05c-.18.17-.35.33-.51.48-.16.15-.31.29-.45.43-.14.13-.28.26-.4.37-.12.11-.24.22-.35.32-.11.1-.22.19-.32.27l-2.28,1.81-.67-.85h0Z"/>
        <path d="M155.55,55.06l7.6-.94.61,1.02-4.42,6.25-.6-1,2.87-4.08c.05-.08.12-.19.22-.31.1-.12.2-.25.31-.39s.21-.27.32-.4c.1-.13.2-.24.27-.33l.15.24c-.15.03-.3.05-.46.08s-.32.06-.49.09c-.17.03-.32.05-.48.08-.15.02-.3.04-.43.06l-4.91.61-.58-.96.02-.02ZM157.69,55.36l1.1-.18,1.92,3.2-.74.79-2.28-3.81Z"/>
        <path d="M160.4,63.51l6.42-2.8,1.28,2.92c.23.53.36,1.04.37,1.52.02.48-.06.93-.22,1.35-.16.42-.41.78-.74,1.1-.32.32-.71.57-1.17.77-.46.2-.92.31-1.37.34-.46.02-.89-.04-1.3-.2-.41-.16-.79-.41-1.13-.76-.34-.35-.63-.78-.86-1.32l-1.27-2.92h0ZM161.68,64.13l.09-.07.84,1.92c.17.4.38.72.62.97.24.25.5.42.79.53.29.1.59.14.9.12s.64-.11.97-.25c.32-.14.6-.32.83-.53.23-.21.41-.46.52-.75.12-.29.17-.6.16-.94,0-.34-.11-.71-.28-1.11l-.85-1.94.11.02-4.69,2.05v-.02Z"/>
        <path d="M163.7,71.35l7.59,1.01.33,1.14-5.85,4.93-.33-1.12,3.81-3.22c.07-.07.17-.15.29-.25.12-.1.26-.2.4-.3.14-.11.28-.21.41-.31.13-.1.25-.18.35-.25l.09.27c-.15-.01-.3-.02-.47-.04-.16,0-.33-.02-.5-.04-.17-.02-.33-.03-.48-.05-.15-.02-.3-.04-.43-.05l-4.9-.65-.32-1.08h.01ZM165.7,72.18l1.11.1,1.05,3.58-.91.58-1.25-4.26Z"/>
        <path d="M167,85.04l6.97-.67.3,3.18c.06.58.02,1.1-.12,1.56s-.34.87-.63,1.21c-.29.34-.64.61-1.04.81-.41.2-.86.32-1.35.37-.5.05-.97.01-1.41-.11-.44-.12-.83-.32-1.17-.6-.34-.28-.62-.64-.84-1.07-.22-.43-.36-.94-.41-1.52l-.3-3.18v.02ZM168.03,86.03l.11-.04.2,2.08c.04.43.14.8.29,1.11.15.31.34.56.58.75.24.19.51.32.82.39.31.07.64.09,1,.06.35-.03.67-.12.96-.25.29-.13.53-.31.73-.55.2-.23.35-.52.44-.85.09-.33.12-.71.08-1.14l-.2-2.11.09.05-5.1.49h0Z"/>
        <path d="M167.67,94.51l7,.18-.13,5.19-1.04-.03.1-4.11-4.92-.12-.1,4.11-1.04-.03.13-5.19ZM170.72,95.14l1.04.03-.1,4.09-1.04-.03.1-4.09Z"/>
        <path d="M166.08,109.55c.09-.44.22-.83.39-1.19.17-.35.39-.66.65-.93.26-.27.56-.49.91-.67l.72.86c-.53.29-.92.6-1.19.94-.27.34-.45.75-.54,1.23-.06.3-.08.59-.05.87s.1.52.22.72.29.32.5.36c.14.03.28.01.4-.05.12-.06.23-.15.33-.27.1-.12.2-.26.29-.42.09-.16.17-.33.24-.51.07-.18.14-.35.2-.52.15-.39.3-.72.48-1.02.17-.29.36-.53.57-.72.21-.18.44-.31.69-.38s.52-.07.81,0c.3.06.56.18.78.37.22.19.39.42.51.71.12.28.2.6.22.95.02.35,0,.72-.08,1.12-.08.41-.21.78-.37,1.1-.16.32-.36.6-.59.83-.23.23-.5.41-.8.53l-.61-.88c.25-.11.47-.26.66-.44s.35-.38.48-.61c.13-.23.22-.48.28-.75.06-.31.08-.6.05-.85s-.1-.47-.21-.64c-.11-.17-.27-.27-.46-.31-.16-.03-.3-.02-.44.04s-.26.15-.38.29c-.12.14-.22.3-.33.51-.1.21-.21.46-.31.73-.13.37-.28.71-.45,1.02-.17.31-.34.58-.53.79-.19.22-.41.38-.65.47-.24.09-.51.11-.81.05-.44-.09-.8-.29-1.07-.59-.27-.3-.46-.69-.56-1.16-.09-.47-.08-1,.04-1.59h0Z"/>
        <path d="M164.87,115.1l6.66,2.17-1.61,4.93-.99-.32,1.27-3.91-4.68-1.53-1.27,3.91-.99-.32,1.61-4.93ZM167.62,116.57l.99.32-1.27,3.89-.99-.32,1.27-3.89Z"/>
        <path d="M160.12,127.22l3.76-.59-.25,1.13-4.08.66.57-1.2ZM162.17,122.8l6.35,2.95-1.52,3.26c-.17.37-.42.67-.74.89-.32.22-.67.36-1.06.41-.39.05-.77,0-1.14-.19-.36-.17-.65-.42-.87-.76-.21-.34-.34-.71-.37-1.12-.03-.41.04-.8.22-1.19l1.02-2.19-2.36-1.1.46-.98v.02ZM165.01,125.31l-1.01,2.18c-.1.21-.13.42-.12.63.02.21.08.41.2.59.12.18.27.31.46.4.2.09.4.12.61.08.21-.04.4-.13.58-.28.18-.15.32-.33.43-.56l.96-2.06-2.1-.98h0Z"/>
        <path d="M157.17,132.51l7.55,1.11-.65,1.04-4.52-.71c-.15-.03-.31-.06-.5-.08-.19-.03-.38-.06-.58-.09s-.38-.06-.57-.09c-.18-.03-.35-.06-.5-.1l.14-.25c.12.15.25.32.4.51.14.2.29.4.45.61.16.21.3.41.45.6l2.72,3.63-.67,1.08-4.36-6.25.63-1.01h.01Z"/>
        <path d="M153.55,137.95l.82.64-.94,1.2,3.87,3.04.94-1.2.82.64-2.55,3.24-.82-.64.94-1.2-3.87-3.04-.94,1.2-.82-.64,2.55-3.24Z"/>
        <path d="M145.53,147.05l3.74.71-.62.98-4.06-.75.94-.94ZM148.95,143.58l4.98,4.92-2.53,2.56c-.29.29-.62.49-.99.59-.37.1-.75.12-1.13.03-.38-.08-.72-.27-1.01-.56-.28-.28-.47-.62-.56-1.01s-.08-.78.03-1.18c.11-.39.31-.74.61-1.05l1.69-1.72-1.85-1.83.76-.77v.02ZM150.77,146.91l-1.68,1.71c-.16.16-.27.35-.32.55-.06.21-.06.42,0,.62.06.2.15.39.3.54.16.15.34.25.55.28.21.03.42,0,.64-.07.22-.08.41-.21.59-.39l1.59-1.62-1.65-1.63h-.02Z"/>
        <path d="M139.06,152.6l4.03,5.72-4.24,2.99-.6-.85,3.36-2.37-2.83-4.02-3.36,2.37-.6-.85,4.24-2.99ZM140.38,155.42l.6.85-3.34,2.35-.6-.85,3.34-2.35Z"/>
        <path d="M126.98,159.94l2.55,5.38,2.13-1.01.45.94-5.29,2.51-.45-.94,2.18-1.03-2.55-5.38.98-.46h0Z"/>
        <path d="M116.94,163.93l3.02,2.31-.99.6-3.3-2.49,1.26-.42h.01ZM121.55,162.37l2.25,6.63-3.41,1.16c-.38.13-.77.16-1.15.09-.38-.07-.73-.23-1.03-.48-.3-.25-.52-.56-.65-.96-.13-.38-.14-.76-.05-1.15.1-.39.28-.74.56-1.04.28-.3.61-.52,1.02-.66l2.28-.77-.83-2.46,1.02-.35h-.01ZM121.7,166.16l-2.27.77c-.21.07-.39.19-.54.35-.15.16-.24.34-.29.55-.05.21-.04.41.03.61.07.21.19.37.36.49.17.12.37.2.6.22.23.02.46,0,.7-.08l2.15-.73-.75-2.2v.02Z"/>
        <path d="M113.75,164.9l-1.64,7.47-1.17.24-4.43-6.24,1.15-.23,2.89,4.06c.06.08.14.18.22.31.08.13.17.27.27.42.1.15.19.29.27.43.09.14.16.26.22.37l-.27.07c.02-.15.05-.3.07-.46.03-.16.05-.33.08-.49.03-.17.06-.33.09-.48.03-.15.06-.29.09-.42l1.05-4.83,1.1-.22h.01ZM112.75,166.82l-.19,1.1-3.65.75-.5-.96,4.35-.89h0Z"/>
        <path d="M104.17,166.68l.49,6.98-1.03.07-5.45-5.36.09-.1c.05.18.09.38.12.59.04.21.07.43.1.67.03.24.06.48.09.73.03.25.05.5.07.75.02.25.04.5.06.76l.16,2.29-1.08.08-.49-6.98,1.05-.07,5.36,5.16-.04.14c-.04-.25-.07-.47-.11-.69-.04-.22-.07-.42-.1-.61-.03-.2-.06-.38-.08-.54-.02-.17-.05-.32-.06-.47-.02-.15-.03-.29-.04-.41l-.2-2.9,1.08-.08h0Z"/>
        <path d="M91.49,166.88c.45.03.86.1,1.23.22.37.12.71.29,1.01.51.3.22.57.49.8.81l-.75.84c-.36-.48-.73-.83-1.1-1.04-.37-.21-.8-.33-1.3-.36-.31-.02-.6,0-.87.08-.27.07-.5.18-.68.32-.18.15-.27.33-.29.55,0,.15.03.28.1.39.07.11.18.21.31.29.13.08.29.16.46.22.17.06.35.12.54.17.19.05.37.09.54.13.4.09.76.2,1.07.33.31.13.58.28.79.47.21.18.37.39.47.63.1.24.14.5.12.8-.02.31-.1.58-.26.82-.15.24-.36.44-.62.61-.26.16-.57.28-.91.35-.34.07-.72.1-1.12.08-.42-.02-.8-.09-1.14-.2-.34-.11-.64-.27-.91-.47-.27-.2-.48-.44-.64-.71l.78-.73c.15.23.32.42.53.59s.43.29.67.39c.25.09.51.15.79.17.32.02.6,0,.85-.07.25-.07.45-.17.6-.3.15-.14.23-.3.24-.5,0-.16-.02-.3-.1-.43-.08-.13-.19-.24-.34-.33-.15-.09-.33-.18-.56-.25-.22-.07-.48-.14-.77-.2-.38-.08-.74-.18-1.07-.3-.33-.12-.62-.25-.86-.41-.25-.16-.43-.35-.56-.57s-.18-.48-.17-.79c.03-.45.17-.83.43-1.15.26-.32.62-.56,1.07-.72.45-.16.98-.22,1.58-.19l.04-.05Z"/>
        <path d="M84.34,172.25l-.17,1.03-4.65-.79.17-1.03,4.65.79ZM84.93,169.28l-.17,1.03-4.29-.73.17-1.02,4.29.73h0ZM85.82,166.47l-1.18,6.89-1.06-.18,1.18-6.9,1.06.18Z"/>
        <path d="M74.9,163.95c.54.16,1,.4,1.4.71.4.31.72.67.96,1.09.24.41.39.86.45,1.33.06.47.01.95-.14,1.44-.15.49-.37.91-.68,1.27-.31.36-.68.65-1.11.86-.43.21-.9.34-1.4.38-.5.04-1.02-.02-1.56-.18-.54-.16-1.01-.4-1.41-.71-.4-.31-.72-.67-.96-1.09s-.39-.86-.44-1.33c-.05-.47-.01-.95.14-1.44.15-.49.37-.91.68-1.27.31-.36.68-.65,1.11-.87.43-.22.9-.34,1.4-.38.5-.04,1.02.03,1.57.19h-.01ZM74.59,164.95c-.39-.12-.76-.16-1.12-.14-.36.03-.69.12-.99.26-.3.15-.56.35-.78.61-.22.26-.38.56-.49.9-.1.34-.13.68-.09,1.02.04.34.15.65.32.94.17.29.4.55.69.77.29.22.62.39,1.01.51.39.12.77.16,1.13.14.36-.03.7-.11,1-.26.3-.14.57-.35.78-.6.22-.26.38-.56.48-.91.1-.34.14-.69.1-1.02-.04-.34-.14-.65-.32-.94-.17-.29-.41-.54-.69-.77-.28-.23-.63-.39-1.02-.51h-.01Z"/>
        <path d="M68.7,161.94l-2.88,6.38-3.28-1.48c-.37-.17-.67-.41-.9-.73-.23-.32-.37-.67-.42-1.05-.05-.39,0-.77.18-1.14.17-.36.42-.66.75-.87.34-.22.71-.34,1.12-.38.41-.04.81.04,1.19.21l2.2.99,1.07-2.37.98.44h-.01ZM66.22,164.81l-2.19-.99c-.21-.09-.42-.13-.63-.11-.21.02-.41.09-.59.21-.18.12-.31.27-.4.47-.09.2-.12.4-.07.61.04.21.14.4.28.57.15.18.34.32.57.42l2.07.94.96-2.11h0ZM64.27,159.93l.63,3.75-1.13-.24-.71-4.07,1.21.56Z"/>
        <path d="M60.54,158.07l-3.73,5.92-.9-.56-.31-4.97.37.24-4.62,1.86-.88-.55,3.73-5.92.91.58-1.56,2.48c-.31.49-.6.93-.88,1.32-.28.4-.58.78-.92,1.15l.11-.4,4.16-1.6.56.35.33,4.41-.31.29c.19-.45.4-.88.63-1.3.23-.42.51-.88.82-1.38l1.56-2.48.91.58.02-.02Z"/>
        <path d="M52.29,152.69l-6.87,3.37-.91-.76,2.13-7.35.9.75-1.38,4.79c-.02.1-.06.22-.11.37-.05.15-.1.31-.16.47-.06.16-.11.33-.17.48-.06.16-.11.29-.15.4l-.22-.17c.13-.07.27-.15.41-.23.14-.08.29-.16.43-.24.15-.08.29-.16.43-.23.14-.07.27-.14.38-.19l4.44-2.18.86.72h0ZM50.18,153.1l-.98.53-2.86-2.4.44-.99,3.4,2.85h0Z"/>
        <path d="M44.96,146.28l-5.12,4.77-2.45-2.63c-.28-.3-.46-.64-.55-1.02-.09-.38-.08-.76.02-1.13.1-.37.3-.71.61-.99.29-.27.64-.44,1.03-.52.39-.07.79-.04,1.18.08.39.12.73.34,1.02.66l1.64,1.76,1.9-1.77.74.79h-.02ZM41.56,147.97l-1.64-1.76c-.15-.17-.33-.28-.54-.34-.21-.06-.41-.08-.62-.04-.21.04-.39.13-.55.28-.16.15-.26.33-.3.53-.04.2-.03.42.04.64.07.22.19.42.36.61l1.55,1.66,1.7-1.58ZM41.64,142.72l-.87,3.71-.95-.66.92-4.03.9.98Z"/>
        <path d="M26.45,114.55c.16.56.22,1.1.2,1.61-.03.52-.14.99-.34,1.41-.2.42-.5.79-.88,1.1-.38.31-.85.54-1.39.7-.5.14-.99.17-1.46.09-.48-.08-.92-.26-1.34-.53-.42-.27-.78-.63-1.09-1.07-.31-.44-.55-.95-.71-1.53-.13-.46-.2-.89-.2-1.3s.04-.79.12-1.13c.08-.34.2-.64.35-.89l1.36.69c-.1.22-.17.45-.22.68-.05.24-.08.48-.08.75s.04.53.12.81c.09.33.23.62.41.87.18.25.39.45.63.61.24.16.5.26.78.3.28.04.56.02.85-.06.34-.1.62-.24.84-.43s.39-.42.5-.68c.11-.26.17-.54.18-.84,0-.3-.03-.61-.12-.92-.08-.28-.18-.53-.31-.75-.13-.22-.28-.4-.44-.55-.16-.14-.33-.24-.51-.3-.18-.06-.37-.06-.55,0l-.21.06.3-.32.65,2.32-1.26.35-1.03-3.65c.08-.04.18-.07.29-.11.11-.04.22-.07.32-.1.1-.03.17-.05.21-.06.47-.13.92-.16,1.34-.09.42.08.81.24,1.15.5.35.26.65.6.92,1.01.27.41.48.9.63,1.45h0Z"/>
        <path d="M24.85,108.37l-6.93.99-.51-3.61c-.07-.51-.04-.96.09-1.37.13-.4.35-.73.65-.99.3-.26.68-.42,1.12-.48.43-.06.85,0,1.23.16.38.17.7.43.95.78.25.35.41.76.48,1.23l.29,2.02,2.4-.34.23,1.6h0ZM20.93,107.29l-.26-1.84c-.03-.19-.09-.36-.19-.49-.1-.14-.23-.24-.38-.31-.15-.07-.32-.09-.51-.06-.18.03-.34.1-.46.21-.12.11-.2.26-.25.42-.05.17-.06.36-.03.57l.25,1.76,1.83-.26ZM24.2,103.83l-2.83,2.55-.5-1.71,3.05-2.78.28,1.94Z"/>
        <path d="M23.76,96.09c0,.67-.12,1.27-.38,1.78-.26.51-.62.92-1.09,1.2-.47.29-1,.44-1.6.45l-3.94.05-.02-1.72,3.88-.05c.33,0,.62-.08.87-.23.25-.15.45-.35.58-.6.14-.26.2-.54.2-.86s-.08-.62-.22-.88c-.14-.26-.34-.46-.6-.61-.26-.15-.54-.22-.87-.21l-3.88.05-.02-1.66,3.94-.05c.6,0,1.14.13,1.62.4.48.28.85.67,1.12,1.18.27.51.41,1.09.42,1.76h0Z"/>
        <path d="M23.84,89.78l-6.95-.8.42-3.69c.05-.46.2-.85.44-1.19.24-.34.54-.59.91-.77.37-.17.77-.23,1.2-.18.46.05.86.21,1.2.47.34.26.59.6.76,1,.17.4.23.84.17,1.32l-.21,1.89,2.26.26-.19,1.69h-.01ZM20.29,87.69l.19-1.64c.02-.19,0-.37-.06-.54-.06-.17-.16-.3-.28-.41-.12-.11-.27-.17-.45-.19-.17-.02-.32,0-.45.09-.13.08-.24.19-.32.34-.08.15-.14.32-.16.51l-.19,1.64,1.72.2Z"/>
        <path d="M25.95,77.66c-.14.58-.37,1.09-.66,1.53-.3.44-.65.79-1.05,1.07-.41.27-.85.45-1.33.54-.48.09-.97.07-1.46-.06-.5-.13-.95-.34-1.32-.64-.37-.3-.68-.67-.91-1.1-.23-.43-.37-.91-.43-1.44s-.02-1.07.13-1.65c.14-.58.37-1.09.66-1.53.29-.44.65-.79,1.05-1.07.41-.27.85-.45,1.32-.54.47-.09.96-.06,1.47.06.5.13.95.34,1.33.63.38.3.68.66.92,1.1.23.43.38.91.43,1.44.05.53,0,1.08-.13,1.65h-.02ZM24.4,77.27c.08-.33.11-.65.08-.95-.03-.3-.11-.58-.24-.82-.13-.24-.3-.45-.51-.62s-.46-.29-.73-.36c-.28-.07-.55-.08-.82-.03-.27.05-.51.15-.74.31-.23.16-.43.36-.6.62-.17.26-.3.55-.38.87-.08.33-.11.65-.08.95.03.3.11.58.23.83.12.25.29.46.51.63.22.17.46.29.74.36.28.07.55.08.82.03.27-.05.52-.15.74-.31.23-.16.42-.37.59-.62.17-.25.3-.54.38-.87v-.02Z"/>
        <path d="M29.35,66.89l-6.28-3.08.67-1.36,4.91-.83-.46.91-2.33-4.4.66-1.35,6.28,3.09-.73,1.48-2.01-.99c-.51-.25-.98-.5-1.4-.73-.42-.24-.84-.5-1.25-.79l.57.09,1.71,3.42-.29.59-3.76.73-.4-.41c.47.14.92.3,1.36.49.44.19.93.41,1.46.67l2.01.99-.73,1.48h.01Z"/>
        <path d="M34.35,57.32l-5.81-3.9,3.16-4.7,1.2.81-2.24,3.33,3.4,2.29,2.29-3.41,1.2.81-3.21,4.78h0ZM32.45,55.01l-1.15-.77,2.43-3.61,1.15.77-2.43,3.61Z"/>
        <path d="M39.19,50.37l-5.26-4.62,1.04-1.19,6.69-.04-.22.17c-.21-.13-.4-.26-.57-.39-.17-.13-.35-.25-.51-.38-.16-.13-.33-.25-.48-.37-.16-.12-.31-.26-.47-.4s-.33-.29-.5-.44l-1.3-1.14,1.09-1.24,5.26,4.62-1.06,1.2-6.92.05.35-.29c.16.11.31.21.46.31.14.1.28.19.42.29.14.1.27.2.41.3.14.1.28.22.43.34.15.13.31.27.49.42l1.76,1.54-1.09,1.24-.02.02Z"/>
        <path d="M48.28,41.12c-.39.34-.78.62-1.18.82-.39.2-.78.35-1.16.43-.38.08-.76.12-1.13.1l-.18-1.55c.61.02,1.15-.06,1.6-.24.45-.18.84-.42,1.18-.71.16-.13.29-.29.41-.45.12-.16.19-.33.22-.49.03-.16,0-.3-.12-.43-.07-.08-.16-.13-.26-.14-.1-.01-.21,0-.34.03-.13.03-.25.08-.39.16-.13.07-.28.16-.42.25-.15.1-.3.19-.46.3-.36.24-.71.42-1.04.56-.33.14-.64.21-.94.24-.3.03-.57,0-.81-.12-.25-.1-.48-.27-.68-.51-.22-.25-.37-.54-.43-.85s-.04-.63.04-.96c.09-.33.24-.66.45-.98.21-.32.48-.62.8-.9.36-.32.71-.56,1.05-.74.34-.17.67-.29.99-.35.32-.06.62-.07.9-.04l.04,1.44c-.24,0-.48.02-.72.08-.24.06-.48.15-.7.27-.23.12-.43.26-.62.42-.2.17-.35.34-.46.5-.11.16-.18.32-.2.47-.02.15.01.27.11.38.08.09.18.14.31.14s.27-.03.42-.09c.15-.06.31-.14.48-.24.16-.1.33-.2.48-.31.33-.21.65-.4.97-.57.32-.16.64-.28.94-.34.3-.06.59-.05.87.03.27.08.53.27.79.55.32.37.49.77.52,1.2.03.43-.08.88-.31,1.33s-.58.88-1.04,1.28l.02.03Z"/>
        <path d="M55.5,35.54c-.47.33-.96.55-1.46.69-.5.13-.99.17-1.48.11-.49-.06-.94-.21-1.35-.47-.42-.25-.78-.6-1.08-1.05-.3-.43-.48-.89-.56-1.37-.08-.48-.06-.96.06-1.44.11-.47.32-.92.63-1.34.31-.42.69-.79,1.16-1.11.32-.22.67-.4,1.03-.54.36-.13.72-.22,1.08-.26.36-.04.68-.04.99.01l-.1,1.62c-.23-.03-.46-.04-.69-.03-.24.01-.48.06-.72.14-.24.08-.49.21-.74.38-.24.16-.44.36-.6.58-.16.22-.28.47-.36.73-.08.26-.09.53-.05.81.04.28.16.56.34.83.18.26.4.46.65.6.25.14.52.22.8.24.29.02.57-.02.86-.11.29-.09.57-.23.84-.41.26-.18.46-.37.62-.58.16-.21.28-.42.37-.64.09-.22.17-.42.22-.61l1.41.62c-.05.25-.16.53-.33.84s-.37.62-.63.92c-.26.3-.56.58-.9.81v.03Z"/>
        <path d="M59.96,32.55l-3.18-6.24,1.51-.77,3.18,6.23-1.51.77h0ZM59.32,29.84l-.67-1.36,4.76-2.43.69,1.36-4.77,2.44h0ZM64.52,30.23l-3.18-6.23,1.51-.77,3.18,6.23-1.51.77Z"/>
        <path class="cls-4" d="M83.65,20.86l-3.27-2.72-2.72,3.27,3.27,2.72,2.72-3.27Z"/>
        <path class="cls-4" d="M31.69,135.53l1.37-4.03-4.03-1.37-1.37,4.03,4.03,1.37Z"/>
        <g class="cls-5">
          <g>
            <path class="cls-3" d="M62.66,69.73v10.14c31.3,0,56.76,25.23,56.76,56.26h10.24c0-36.67-30-66.4-67-66.4Z"/>
            <path class="cls-3" d="M129.66,69.73v10.14c-31.3,0-56.76,25.23-56.76,56.26h-10.24c0-36.67,30-66.4,67-66.4Z"/>
            <path class="cls-3" d="M62.66,94.63v10.14c15.5,0,29.84,14.06,29.84,31.36h7.33c0-22.92-16.61-41.5-37.16-41.5Z"/>
            <path class="cls-3" d="M129.66,94.63v10.14c-15.5,0-29.84,14.06-29.84,31.36h-7.33c0-22.92,16.61-41.5,37.16-41.5Z"/>
            <path class="cls-3" d="M96.17,53.13l-8.38,8.3,8.38,8.3,8.38-8.3-8.38-8.3Z"/>
          </g>
        </g>
      </g>
    </g>
  </g>
</svg>