<?xml version="1.0" encoding="UTF-8"?>
<svg id="Camada_2" data-name="Camada 2" xmlns="http://www.w3.org/2000/svg" xmlns:xlink="http://www.w3.org/1999/xlink" viewBox="0 0 384 159.01">
  <defs>
    <style>
      .cls-1, .cls-2 {
        fill: #8b0625;
      }

      .cls-3 {
        fill: none;
      }

      .cls-4 {
        fill: #f4f1f8;
      }

      .cls-2 {
        fill-rule: evenodd;
      }

      .cls-5 {
        clip-path: url(#clippath);
      }
    </style>
    <clipPath id="clippath">
      <rect class="cls-3" y="0" width="128" height="159"/>
    </clipPath>
  </defs>
  <g id="Camada_1-2" data-name="Camada 1">
    <g>
      <g class="cls-5">
        <g>
          <path class="cls-1" d="M0,31.81v19.43c59.8,0,108.44,48.34,108.44,107.77h19.56C128,88.76,70.68,31.81,0,31.81Z"/>
          <path class="cls-1" d="M128,31.81v19.43c-59.8,0-108.44,48.34-108.44,107.77H0C0,88.76,57.32,31.81,128,31.81Z"/>
          <path class="cls-2" d="M0,98.94v-19.43c28.22,0,52.54,18.38,64,45.01,11.46-26.63,35.78-45.01,64-45.01v19.43c-29.6,0-56.97,26.91-57,60.01v.06h-14v-.06c-.03-33.1-27.4-60.01-57-60.01Z"/>
          <path class="cls-1" d="M64.01,0l-16,15.9,16,15.9,16-15.9L64.01,0Z"/>
        </g>
      </g>
      <g>
        <path class="cls-4" d="M175.68,102.74c-3.13,0-5.96-.51-8.5-1.52-2.53-1.01-4.71-2.44-6.54-4.28-1.83-1.84-3.22-3.99-4.19-6.47-.97-2.51-1.45-5.23-1.45-8.16s.5-5.61,1.51-8.05c1.04-2.48,2.51-4.63,4.42-6.47,1.9-1.84,4.14-3.26,6.71-4.28,2.61-1.01,5.44-1.52,8.5-1.52,2.16,0,4.19.28,6.09.84,1.94.56,3.69,1.33,5.25,2.31,1.57.98,2.89,2.1,3.97,3.38l-5.76,6.13c-.93-.9-1.9-1.65-2.91-2.25-.97-.6-2.01-1.07-3.13-1.41-1.12-.38-2.31-.56-3.58-.56-1.64,0-3.15.3-4.53.9-1.34.6-2.53,1.44-3.58,2.53-1.01,1.05-1.79,2.31-2.35,3.77-.56,1.43-.84,2.98-.84,4.67s.3,3.26.89,4.73c.6,1.46,1.42,2.74,2.46,3.83,1.04,1.05,2.27,1.89,3.69,2.53,1.45.6,3,.9,4.64.9,1.15,0,2.24-.19,3.24-.56,1.04-.38,1.94-.88,2.68-1.52.74-.64,1.34-1.39,1.79-2.25.45-.9.67-1.86.67-2.87v-1.46l1.23,1.91h-10.79v-7.48h18.39c.08.41.13.98.17,1.69.04.71.06,1.41.06,2.08.04.68.06,1.18.06,1.52,0,2.55-.47,4.89-1.4,7.03-.9,2.1-2.16,3.92-3.8,5.46-1.64,1.54-3.58,2.74-5.81,3.6-2.24.86-4.66,1.29-7.27,1.29Z"/>
        <path class="cls-4" d="M200.29,102.18v-29.88h8.49l.39,9.73-1.68-1.86c.45-1.61,1.17-3.06,2.18-4.33,1.04-1.28,2.25-2.29,3.63-3.04,1.38-.75,2.85-1.13,4.42-1.13.67,0,1.29.06,1.85.17.6.11,1.14.24,1.62.39l-2.46,9.96c-.41-.26-.97-.47-1.68-.62-.67-.19-1.38-.28-2.12-.28-.82,0-1.58.15-2.29.45-.71.26-1.3.66-1.79,1.18-.49.53-.88,1.14-1.17,1.86-.26.71-.39,1.52-.39,2.42v14.97h-9Z"/>
        <path class="cls-4" d="M235.84,102.8c-2.2,0-4.08-.47-5.65-1.41-1.53-.97-2.72-2.36-3.58-4.16-.82-1.8-1.23-3.96-1.23-6.47v-18.45h9v17.22c0,1.2.19,2.23.56,3.09.37.86.93,1.54,1.68,2.03.75.45,1.64.68,2.68.68.78,0,1.49-.13,2.12-.39.67-.26,1.23-.62,1.68-1.07.48-.49.86-1.03,1.12-1.63.26-.64.39-1.33.39-2.08v-17.84h9v29.88h-8.44l-.39-6.13,1.68-.68c-.45,1.43-1.19,2.7-2.24,3.83-1.04,1.09-2.29,1.97-3.74,2.64-1.45.64-3,.96-4.64.96Z"/>
        <path class="cls-4" d="M261.58,114.56v-42.25h8.5l.34,6.7-1.68-.51c.26-1.24.89-2.36,1.9-3.38,1.01-1.01,2.27-1.82,3.8-2.42,1.57-.64,3.2-.96,4.92-.96,2.53,0,4.79.68,6.76,2.03,1.97,1.31,3.52,3.13,4.64,5.46,1.15,2.29,1.73,4.95,1.73,7.99s-.58,5.66-1.73,7.99c-1.12,2.33-2.68,4.16-4.69,5.51-1.98,1.31-4.25,1.97-6.82,1.97-1.68,0-3.28-.32-4.81-.96-1.53-.64-2.81-1.5-3.86-2.59-1.04-1.09-1.73-2.27-2.07-3.54l2.07-.79v19.75h-9ZM277.07,95.09c1.34,0,2.52-.32,3.52-.96,1.01-.68,1.79-1.59,2.35-2.76.56-1.16.84-2.55.84-4.16s-.28-2.94-.84-4.11c-.56-1.2-1.34-2.12-2.35-2.76-.97-.68-2.14-1.01-3.52-1.01s-2.57.32-3.58.96c-1.01.64-1.79,1.56-2.35,2.76s-.84,2.59-.84,4.16.28,3,.84,4.16c.56,1.16,1.34,2.08,2.35,2.76,1.01.64,2.2.96,3.58.96Z"/>
        <path class="cls-4" d="M312.4,102.74c-3.09,0-5.85-.68-8.27-2.03-2.38-1.35-4.29-3.19-5.7-5.51-1.38-2.33-2.07-4.99-2.07-7.99s.69-5.66,2.07-7.99c1.42-2.33,3.32-4.16,5.7-5.51,2.42-1.35,5.18-2.03,8.27-2.03s5.83.68,8.22,2.03c2.42,1.35,4.32,3.19,5.7,5.51,1.38,2.33,2.07,4.99,2.07,7.99s-.69,5.66-2.07,7.99c-1.38,2.33-3.28,4.16-5.7,5.51-2.39,1.35-5.12,2.03-8.22,2.03ZM312.4,94.98c1.34,0,2.53-.34,3.58-1.01,1.04-.68,1.86-1.59,2.46-2.76.6-1.16.88-2.49.84-3.99.04-1.5-.24-2.83-.84-3.99-.6-1.2-1.42-2.14-2.46-2.81s-2.24-1.01-3.58-1.01-2.55.34-3.63,1.01c-1.04.68-1.86,1.61-2.46,2.81-.6,1.16-.88,2.49-.84,3.99-.04,1.5.24,2.83.84,3.99.6,1.16,1.42,2.08,2.46,2.76,1.08.68,2.29,1.01,3.63,1.01Z"/>
        <path class="cls-4" d="M196.75,119.05v39.39h-9.22s.34-22.96.42-23.74l-9.08,14.17h-3.69l-8.86-14.03c.06.64.42,23.6.42,23.6h-9.23v-39.39h8.5l11.21,18.37,11.37-18.37h8.16Z"/>
        <path class="cls-4" d="M232.69,143.02c.07-2.17-.23-4.18-.9-6.02-.67-1.83-1.64-3.43-2.9-4.78-1.27-1.35-2.78-2.4-4.53-3.15-1.71-.75-3.61-1.13-5.7-1.13-2.2,0-4.23.4-6.09,1.19-1.83.75-3.41,1.83-4.75,3.26-1.35,1.39-2.39,3.04-3.13,4.95-.75,1.91-1.12,4.01-1.12,6.3,0,2.97.67,5.61,2.01,7.94,1.34,2.28,3.22,4.1,5.65,5.45,2.42,1.32,5.27,1.97,8.55,1.97,1.34,0,2.68-.17,4.02-.5,1.38-.3,2.72-.77,4.03-1.41,1.3-.64,2.53-1.46,3.68-2.48l-4.19-5.96c-1.15.9-2.23,1.54-3.24,1.91-.97.38-2.09.57-3.35.57-1.83,0-3.41-.34-4.75-1.02-1.31-.67-2.31-1.61-3.02-2.81-.31-.58-.55-1.2-.72-1.86h20.39l.06-2.42ZM212.22,140.38c.13-.53.3-1.02.51-1.46.53-1.13,1.29-1.97,2.3-2.54,1.04-.6,2.29-.9,3.74-.9,1.04,0,1.98.21,2.8.62.81.42,1.47,1,1.95,1.75.52.71.82,1.53.9,2.47v.06h-12.2Z"/>
        <path class="cls-4" d="M266.39,140.1v18.34h-9v-17.61c0-1.2-.17-2.2-.5-2.98-.34-.79-.86-1.37-1.57-1.75-.67-.41-1.51-.6-2.51-.56-.79,0-1.51.13-2.18.39-.67.23-1.25.59-1.74,1.07-.48.45-.87.98-1.17,1.58-.26.6-.39,1.26-.39,1.97v17.89h-8.94v-29.88h8.49l.17,3.66c.16-.19.32-.38.5-.56,1.08-1.13,2.37-2.03,3.86-2.7,1.49-.68,3.05-1.02,4.69-1.02,2.24,0,4.12.47,5.65,1.41,1.53.9,2.68,2.27,3.46,4.11.79,1.8,1.18,4.01,1.18,6.64Z"/>
        <path class="cls-4" d="M283.87,159.01c-2.91,0-5.48-.47-7.71-1.41-2.2-.94-3.95-2.19-5.25-3.77l5.42-4.73c1.15,1.16,2.46,2.03,3.91,2.59,1.45.52,2.83.79,4.14.79.52,0,.99-.06,1.4-.17.41-.11.74-.26,1.01-.45.3-.23.52-.47.67-.73.15-.3.22-.64.22-1.01,0-.75-.33-1.33-1.01-1.74-.34-.19-.89-.41-1.68-.68-.78-.26-1.79-.56-3.02-.9-1.75-.45-3.28-.98-4.58-1.58-1.27-.64-2.31-1.37-3.13-2.19-.74-.79-1.32-1.65-1.73-2.59-.41-.98-.61-2.06-.61-3.26,0-1.39.32-2.64.95-3.77.67-1.13,1.55-2.1,2.63-2.93,1.12-.82,2.39-1.44,3.8-1.86,1.45-.45,2.94-.68,4.47-.68,1.64,0,3.2.19,4.7.56,1.49.38,2.87.9,4.14,1.57,1.3.68,2.46,1.48,3.46,2.42l-4.7,5.29c-.67-.64-1.43-1.2-2.29-1.69-.82-.53-1.68-.94-2.57-1.24-.89-.3-1.71-.45-2.46-.45-.56,0-1.06.06-1.51.17-.41.08-.76.23-1.06.45-.3.19-.52.43-.67.73-.15.26-.22.58-.22.96s.09.73.28,1.07c.22.34.52.62.9.84.37.22.97.49,1.79.79.82.26,1.94.6,3.35,1.01,1.75.49,3.26,1.03,4.53,1.63,1.27.6,2.27,1.31,3.02,2.14.6.64,1.04,1.39,1.34,2.25.3.82.45,1.72.45,2.7,0,1.91-.54,3.62-1.62,5.12-1.04,1.46-2.5,2.62-4.36,3.49-1.86.83-3.99,1.24-6.37,1.24Z"/>
        <path class="cls-4" d="M314.56,159.01c-2.87,0-5.44-.68-7.71-2.03-2.27-1.35-4.08-3.19-5.42-5.51-1.31-2.36-1.96-5.03-1.96-7.99s.65-5.61,1.96-7.93c1.34-2.36,3.15-4.22,5.42-5.57,2.27-1.35,4.85-2.03,7.71-2.03,2.65,0,5.07.47,7.27,1.41,2.24.94,4.01,2.25,5.31,3.94l-4.86,5.85c-.52-.6-1.14-1.16-1.84-1.69-.71-.53-1.49-.94-2.35-1.24-.86-.3-1.75-.45-2.68-.45-1.42,0-2.66.34-3.74,1.01-1.08.64-1.92,1.54-2.52,2.7-.6,1.16-.89,2.49-.89,3.99s.3,2.72.89,3.88c.63,1.16,1.49,2.08,2.57,2.76,1.08.68,2.31,1.01,3.69,1.01.97,0,1.86-.11,2.68-.34.82-.26,1.56-.64,2.24-1.12.71-.49,1.36-1.09,1.96-1.8l4.81,5.91c-1.27,1.61-3.04,2.89-5.31,3.83-2.24.94-4.64,1.41-7.21,1.41Z"/>
        <path class="cls-4" d="M332,158.44v-41.63h8.78v17.83l-1.79.68c.41-1.35,1.14-2.57,2.18-3.66,1.08-1.12,2.37-2.02,3.86-2.7,1.49-.68,3.06-1.01,4.7-1.01,2.23,0,4.12.47,5.64,1.41,1.53.9,2.68,2.27,3.46,4.11.78,1.8,1.17,4.01,1.17,6.64v18.34h-9v-17.61c0-1.2-.17-2.19-.5-2.98-.33-.79-.86-1.37-1.56-1.74-.67-.41-1.51-.6-2.52-.56-.78,0-1.51.13-2.18.39-.67.22-1.25.58-1.73,1.07-.48.45-.88.97-1.17,1.57-.26.6-.39,1.26-.39,1.97v17.89h-8.94Z"/>
        <path class="cls-4" d="M384,150.96c0,4.51-3.47,8.05-7.98,8.05s-8.02-3.54-8.02-8.05,3.56-7.95,8.02-7.95,7.98,3.54,7.98,7.95ZM369.99,150.96c0,3.54,2.56,6.35,6.08,6.35s5.93-2.81,5.93-6.3-2.52-6.4-5.98-6.4-6.03,2.86-6.03,6.35h0ZM374.79,155.13h-1.8v-7.95c.71-.15,1.71-.24,2.99-.24,1.47,0,2.14.24,2.71.58.43.34.76.97.76,1.75,0,.87-.66,1.55-1.61,1.84v.1c.76.29,1.19.87,1.42,1.94.24,1.21.38,1.7.57,1.99h-1.95c-.24-.29-.38-1.02-.62-1.94-.14-.87-.62-1.26-1.61-1.26h-.86v3.2h0ZM374.84,150.62h.85c1,0,1.8-.34,1.8-1.16,0-.73-.52-1.21-1.66-1.21-.48,0-.81.05-1,.1v2.28h0Z"/>
      </g>
    </g>
  </g>
</svg>