<?xml version="1.0" encoding="UTF-8"?>
<svg id="Camada_2" data-name="Camada 2" xmlns="http://www.w3.org/2000/svg" xmlns:xlink="http://www.w3.org/1999/xlink" viewBox="0 0 567.83 157.8">
  <defs>
    <clipPath id="clippath">
      <rect width="127.02" height="157.35" style="fill: none;"/>
    </clipPath>
  </defs>
  <g id="Camada_1-2" data-name="Camada 1">
    <g>
      <g style="clip-path: url(#clippath);">
        <g>
          <path d="M0,31.47v19.23c59.34,0,107.61,47.83,107.61,106.65h19.41C127.02,87.84,70.14,31.47,0,31.47Z" style="fill: #f50;"/>
          <path d="M127.02,31.47v19.23c-59.34,0-107.61,47.83-107.61,106.65H0C0,87.84,56.87,31.47,127.02,31.47Z" style="fill: #f50;"/>
          <path d="M0,97.91v-19.23c27.93,0,52.07,18.1,63.51,44.34,11.44-26.25,35.58-44.34,63.51-44.34v19.23c-29.39,0-53.31,26.66-53.31,59.44h-20.39c0-32.78-23.92-59.44-53.31-59.44Z" style="fill: #f50; fill-rule: evenodd;"/>
          <path d="M63.52,0l-15.88,15.74,15.88,15.74,15.88-15.74L63.52,0Z" style="fill: #f50;"/>
        </g>
      </g>
      <path d="M158.56,100.48v-31.85h6.92l11.6,18.88-4.96-.05,11.74-18.84h6.64v31.85h-7.51v-9.92c0-2.73.06-5.19.18-7.37.15-2.18.39-4.35.73-6.51l.86,2.37-8.83,13.69h-3l-8.64-13.6.86-2.46c.33,2.03.56,4.13.68,6.28.15,2.12.23,4.66.23,7.6v9.92h-7.51ZM198.5,100.48v-31.85h22.2v6.6h-14.7v18.65h15.15v6.6h-22.66ZM202.14,87.42v-6.28h16.52v6.28h-16.52ZM227.83,100.48v-31.85h6.92l16.7,22.75-1.5-.23c-.15-1-.27-1.96-.36-2.87-.09-.91-.18-1.8-.27-2.68-.06-.88-.12-1.77-.18-2.68-.03-.91-.06-1.9-.09-2.96v-11.33h7.51v31.85h-7.01l-17.43-23.48,2.32.32c.15,1.46.27,2.7.36,3.73.12,1,.21,1.9.27,2.68.09.79.15,1.5.18,2.14.03.64.05,1.27.05,1.91.03.61.05,1.29.05,2.05v10.65h-7.51ZM275.09,100.93c-2.09,0-3.99-.24-5.69-.73-1.67-.52-3.15-1.24-4.46-2.18-1.3-.97-2.47-2.11-3.5-3.41l4.69-5.32c1.52,2.03,3.03,3.4,4.55,4.09,1.55.7,3.14,1.05,4.78,1.05.82,0,1.56-.11,2.23-.32s1.18-.52,1.55-.91c.36-.42.55-.94.55-1.55,0-.45-.12-.86-.36-1.23-.21-.36-.52-.68-.91-.96-.39-.27-.86-.52-1.41-.73-.55-.24-1.12-.44-1.73-.59-.61-.18-1.23-.33-1.87-.45-1.76-.39-3.29-.88-4.6-1.46-1.3-.58-2.4-1.27-3.28-2.09-.85-.85-1.49-1.8-1.91-2.87-.42-1.09-.64-2.31-.64-3.64,0-1.43.32-2.73.96-3.91.67-1.21,1.55-2.24,2.64-3.09,1.12-.88,2.41-1.55,3.87-2,1.46-.49,2.97-.73,4.55-.73,2.09,0,3.88.23,5.37.68,1.52.42,2.81,1.05,3.87,1.87,1.09.82,2.02,1.8,2.78,2.96l-4.78,4.6c-.64-.79-1.33-1.44-2.09-1.96-.73-.52-1.52-.91-2.37-1.18-.82-.27-1.67-.41-2.55-.41s-1.7.12-2.37.36c-.64.21-1.14.53-1.5.96-.36.39-.55.88-.55,1.46,0,.52.15.96.45,1.32s.71.7,1.23,1c.52.27,1.11.52,1.77.73.67.18,1.36.33,2.09.45,1.67.33,3.17.77,4.5,1.32,1.36.55,2.53,1.21,3.5,2,1,.79,1.76,1.73,2.27,2.82.55,1.06.82,2.31.82,3.73,0,2.21-.55,4.09-1.64,5.64-1.06,1.52-2.53,2.68-4.41,3.5-1.85.79-3.99,1.18-6.42,1.18ZM307.83,100.93c-2.4,0-4.61-.39-6.64-1.18-2-.82-3.75-1.96-5.23-3.41-1.49-1.49-2.64-3.23-3.46-5.23-.79-2.03-1.18-4.26-1.18-6.69s.42-4.55,1.27-6.55,2.02-3.73,3.5-5.19c1.52-1.49,3.29-2.64,5.32-3.46,2.06-.82,4.31-1.23,6.73-1.23,1.52,0,3,.2,4.46.59s2.81.99,4.05,1.77c1.27.76,2.37,1.67,3.28,2.73l-4.73,5.41c-.64-.67-1.32-1.24-2.05-1.73-.7-.52-1.47-.91-2.32-1.18-.85-.27-1.76-.41-2.73-.41-1.21,0-2.37.23-3.46.68-1.06.42-2,1.05-2.82,1.87-.79.79-1.41,1.76-1.87,2.91-.45,1.15-.68,2.44-.68,3.87s.23,2.67.68,3.82c.45,1.12,1.09,2.09,1.91,2.91s1.8,1.44,2.96,1.87c1.18.42,2.49.64,3.91.64.97,0,1.9-.14,2.78-.41.88-.27,1.68-.64,2.41-1.09.76-.49,1.43-1.03,2-1.64l3.73,5.91c-.76.85-1.77,1.61-3.05,2.27-1.24.67-2.64,1.2-4.19,1.59-1.52.36-3.05.55-4.6.55ZM344.7,100.48v-31.85h7.73v31.85h-7.73ZM324.96,100.48v-31.85h7.73v31.85h-7.73ZM327.96,88.05l.05-6.92h20.79v6.92h-20.84Z" style="fill: #1a2228;"/>
      <path d="M165.48,157.35v-25.02h-9.46v-6.82h26.89v6.82h-9.69v25.02h-7.73ZM188.38,157.35v-31.85h14.33c2.03,0,3.87.44,5.51,1.32,1.67.88,2.97,2.09,3.91,3.64.94,1.52,1.41,3.25,1.41,5.19s-.47,3.81-1.41,5.41c-.94,1.58-2.23,2.82-3.87,3.73-1.64.91-3.49,1.36-5.55,1.36h-6.96v11.19h-7.37ZM206.03,157.35l-8.1-14.38,7.92-1.14,9.01,15.51h-8.83ZM195.75,140.24h6.28c.79,0,1.47-.17,2.05-.5.61-.36,1.06-.86,1.36-1.5.33-.64.5-1.36.5-2.18s-.18-1.53-.55-2.14c-.36-.64-.89-1.12-1.59-1.46-.67-.33-1.49-.5-2.46-.5h-5.6v8.28ZM220.32,157.35v-31.85h22.2v6.6h-14.7v18.65h15.15v6.6h-22.66ZM223.96,144.29v-6.28h16.52v6.28h-16.52ZM249.01,157.35v-6.51h5.37v-18.84h-5.37v-6.51h18.52v6.51h-5.41v18.84h5.41v6.51h-18.52ZM274.88,157.35v-31.85h6.92l16.7,22.75-1.5-.23c-.15-1-.27-1.96-.36-2.87-.09-.91-.18-1.8-.27-2.68-.06-.88-.12-1.77-.18-2.68-.03-.91-.06-1.9-.09-2.96v-11.33h7.51v31.85h-7.01l-17.43-23.48,2.32.32c.15,1.46.27,2.7.36,3.73.12,1,.21,1.9.27,2.68.09.79.15,1.5.18,2.14.03.64.05,1.27.05,1.91.03.61.05,1.29.05,2.05v10.65h-7.51ZM307.54,157.35l12.6-31.85h6.55l12.51,31.85h-7.83l-6.01-16.15c-.24-.64-.49-1.32-.73-2.05-.24-.73-.49-1.47-.73-2.23-.24-.79-.49-1.55-.73-2.27-.21-.76-.39-1.46-.55-2.09l1.36-.05c-.18.76-.39,1.5-.64,2.23-.21.73-.44,1.46-.68,2.18-.21.7-.45,1.41-.73,2.14-.27.7-.53,1.43-.77,2.18l-6.01,16.11h-7.64ZM313.54,151.25l2.41-5.82h14.65l2.37,5.82h-19.43ZM343.18,157.35v-31.85h6.92l11.6,18.88-4.96-.05,11.74-18.84h6.64v31.85h-7.51v-9.92c0-2.73.06-5.19.18-7.37.15-2.18.39-4.35.73-6.51l.86,2.37-8.83,13.69h-3l-8.64-13.6.86-2.46c.33,2.03.56,4.13.68,6.28.15,2.12.23,4.66.23,7.6v9.92h-7.51ZM383.12,157.35v-31.85h22.2v6.6h-14.7v18.65h15.15v6.6h-22.66ZM386.76,144.29v-6.28h16.52v6.28h-16.52ZM412.44,157.35v-31.85h6.92l16.7,22.75-1.5-.23c-.15-1-.27-1.96-.36-2.87-.09-.91-.18-1.8-.27-2.68-.06-.88-.12-1.77-.18-2.68-.03-.91-.06-1.9-.09-2.96v-11.33h7.51v31.85h-7.01l-17.43-23.48,2.32.32c.15,1.46.27,2.7.36,3.73.12,1,.21,1.9.27,2.68.09.79.15,1.5.18,2.14.03.64.05,1.27.05,1.91.03.61.05,1.29.05,2.05v10.65h-7.51ZM456.06,157.35v-25.02h-9.46v-6.82h26.89v6.82h-9.69v25.02h-7.73ZM492.09,157.8c-2.43,0-4.64-.41-6.64-1.23s-3.75-1.97-5.23-3.46c-1.49-1.49-2.64-3.23-3.46-5.23s-1.23-4.2-1.23-6.6.41-4.6,1.23-6.6,1.97-3.75,3.46-5.23c1.49-1.49,3.23-2.64,5.23-3.46,2-.82,4.2-1.23,6.6-1.23s4.6.41,6.6,1.23c2,.82,3.75,1.97,5.23,3.46,1.49,1.49,2.62,3.23,3.41,5.23.82,2,1.23,4.2,1.23,6.6s-.41,4.56-1.23,6.6c-.79,2-1.93,3.75-3.41,5.23-1.49,1.49-3.23,2.64-5.23,3.46s-4.19,1.23-6.55,1.23ZM492.05,150.52c1.24,0,2.38-.23,3.41-.68,1.06-.45,1.97-1.09,2.73-1.91.79-.85,1.4-1.84,1.82-2.96s.64-2.35.64-3.69-.21-2.56-.64-3.69-1.03-2.09-1.82-2.91c-.76-.85-1.67-1.5-2.73-1.96-1.03-.45-2.17-.68-3.41-.68s-2.4.23-3.46.68c-1.03.45-1.94,1.11-2.73,1.96-.79.82-1.4,1.79-1.82,2.91-.39,1.12-.59,2.35-.59,3.69s.2,2.58.59,3.73c.42,1.12,1.03,2.09,1.82,2.91.79.82,1.7,1.46,2.73,1.91,1.06.45,2.21.68,3.46.68ZM525.06,157.8c-2.09,0-3.99-.24-5.69-.73-1.67-.52-3.15-1.24-4.46-2.18-1.3-.97-2.47-2.11-3.5-3.41l4.69-5.32c1.52,2.03,3.03,3.4,4.55,4.09,1.55.7,3.14,1.05,4.78,1.05.82,0,1.56-.11,2.23-.32s1.18-.52,1.55-.91c.36-.42.55-.94.55-1.55,0-.45-.12-.86-.36-1.23-.21-.36-.52-.68-.91-.96-.39-.27-.86-.52-1.41-.73-.55-.24-1.12-.44-1.73-.59-.61-.18-1.23-.33-1.87-.45-1.76-.39-3.29-.88-4.6-1.46-1.3-.58-2.4-1.27-3.28-2.09-.85-.85-1.49-1.8-1.91-2.87-.42-1.09-.64-2.31-.64-3.64,0-1.43.32-2.73.96-3.91.67-1.21,1.55-2.24,2.64-3.09,1.12-.88,2.41-1.55,3.87-2,1.46-.49,2.97-.73,4.55-.73,2.09,0,3.88.23,5.37.68,1.52.42,2.81,1.05,3.87,1.87,1.09.82,2.02,1.8,2.78,2.96l-4.78,4.6c-.64-.79-1.33-1.44-2.09-1.96-.73-.52-1.52-.91-2.37-1.18-.82-.27-1.67-.41-2.55-.41s-1.7.12-2.37.36c-.64.21-1.14.53-1.5.96-.36.39-.55.88-.55,1.46,0,.52.15.96.45,1.32s.71.7,1.23,1c.52.27,1.11.52,1.77.73.67.18,1.36.33,2.09.45,1.67.33,3.17.77,4.5,1.32,1.36.55,2.53,1.21,3.5,2,1,.79,1.76,1.73,2.27,2.82.55,1.06.82,2.31.82,3.73,0,2.21-.55,4.09-1.64,5.64-1.06,1.52-2.53,2.68-4.41,3.5-1.85.79-3.99,1.18-6.42,1.18Z" style="fill: #f50;"/>
      <path d="M567.83,149.72c0,4.27-3.29,7.63-7.56,7.63s-7.61-3.36-7.61-7.63,3.37-7.54,7.61-7.54,7.56,3.36,7.56,7.54ZM554.56,149.72c0,3.35,2.43,6.02,5.76,6.02s5.62-2.67,5.62-5.98-2.38-6.07-5.67-6.07-5.72,2.71-5.72,6.02h0ZM559.1,153.67h-1.71v-7.54c.67-.14,1.62-.23,2.83-.23,1.4,0,2.02.23,2.56.55.41.32.72.92.72,1.65,0,.83-.63,1.47-1.53,1.75v.09c.72.27,1.12.83,1.35,1.84.23,1.15.36,1.61.54,1.88h-1.84c-.23-.28-.36-.96-.59-1.84-.13-.83-.59-1.19-1.53-1.19h-.81v3.03h0ZM559.15,149.4h.81c.94,0,1.71-.32,1.71-1.1,0-.69-.49-1.15-1.58-1.15-.45,0-.77.05-.95.09v2.16h0Z" style="fill: #1a2228;"/>
    </g>
  </g>
</svg>