<?xml version="1.0" encoding="UTF-8"?>
<svg id="Camada_2" data-name="Camada 2" xmlns="http://www.w3.org/2000/svg" xmlns:xlink="http://www.w3.org/1999/xlink" viewBox="0 0 525.09 160.56">
  <defs>
    <clipPath id="clippath">
      <rect width="129.01" height="159.81" style="fill: none;"/>
    </clipPath>
  </defs>
  <g id="Camada_1-2" data-name="Camada 1">
    <g>
      <g style="clip-path: url(#clippath);">
        <g>
          <path d="M0,31.96v19.53c60.27,0,109.3,48.58,109.3,108.32h19.71C129.01,89.21,71.24,31.96,0,31.96Z" style="fill: #00d19f;"/>
          <path d="M129.01,31.96v19.53c-60.27,0-109.3,48.58-109.3,108.32H0C0,89.21,57.77,31.96,129.01,31.96Z" style="fill: #00d19f;"/>
          <path d="M0,99.44v-19.53c28.37,0,52.89,18.38,64.5,45.04,11.62-26.66,36.14-45.04,64.5-45.04v19.53c-29.85,0-54.15,27.08-54.15,60.37h-20.71c0-33.29-24.3-60.37-54.15-60.37Z" style="fill: #00d19f; fill-rule: evenodd;"/>
          <path d="M64.52,0l-16.13,15.98,16.13,15.98,16.13-15.98L64.52,0Z" style="fill: #00d19f;"/>
        </g>
      </g>
      <path d="M160.03,44.58V12.23h7.02l11.78,19.18-5.04-.05,11.92-19.13h6.75v32.35h-7.62v-10.07c0-2.77.06-5.27.18-7.49.15-2.22.4-4.42.74-6.61l.88,2.4-8.97,13.91h-3.05l-8.78-13.82.88-2.5c.34,2.06.57,4.19.69,6.38.15,2.16.23,4.73.23,7.72v10.07h-7.62ZM200.6,44.58V12.23h22.55v6.7h-14.93v18.95h15.39v6.7h-23.01ZM204.29,31.31v-6.38h16.78v6.38h-16.78ZM230.38,44.58V12.23h7.02l16.96,23.11-1.52-.23c-.15-1.02-.28-1.99-.37-2.91-.09-.92-.19-1.83-.28-2.73-.06-.89-.12-1.8-.19-2.73-.03-.92-.06-1.93-.09-3v-11.51h7.63v32.35h-7.12l-17.7-23.84,2.36.32c.15,1.48.28,2.74.37,3.79.12,1.02.22,1.93.28,2.73.09.8.15,1.52.18,2.17s.05,1.29.05,1.94c.03.62.05,1.31.05,2.08v10.81h-7.62ZM278.38,45.04c-2.13,0-4.05-.25-5.78-.74-1.69-.52-3.21-1.26-4.53-2.22-1.33-.99-2.51-2.14-3.56-3.47l4.76-5.41c1.54,2.06,3.08,3.45,4.62,4.16,1.57.71,3.19,1.06,4.85,1.06.83,0,1.59-.11,2.26-.32.68-.22,1.2-.52,1.57-.92.37-.43.56-.96.56-1.57,0-.46-.12-.88-.37-1.25-.22-.37-.52-.69-.92-.97s-.88-.52-1.43-.74c-.56-.25-1.14-.45-1.76-.6-.62-.18-1.25-.34-1.89-.46-1.79-.4-3.34-.89-4.67-1.48s-2.43-1.29-3.33-2.13c-.86-.86-1.51-1.83-1.94-2.91-.43-1.11-.65-2.34-.65-3.7,0-1.45.32-2.77.97-3.97.68-1.23,1.57-2.28,2.68-3.14,1.14-.89,2.45-1.57,3.93-2.03,1.48-.49,3.02-.74,4.62-.74,2.12,0,3.94.23,5.45.69,1.54.43,2.85,1.06,3.93,1.89,1.11.83,2.05,1.83,2.82,3l-4.85,4.67c-.65-.8-1.36-1.46-2.13-1.99-.74-.52-1.54-.92-2.4-1.2-.83-.28-1.69-.42-2.59-.42s-1.73.12-2.4.37c-.65.22-1.15.54-1.52.97-.37.4-.56.89-.56,1.48,0,.52.15.97.46,1.34s.72.71,1.25,1.02c.52.28,1.12.52,1.8.74.68.18,1.39.34,2.13.46,1.69.34,3.22.79,4.58,1.34,1.39.55,2.57,1.23,3.56,2.03,1.02.8,1.79,1.76,2.31,2.86.56,1.08.83,2.34.83,3.79,0,2.25-.56,4.16-1.66,5.73-1.08,1.54-2.57,2.73-4.48,3.56-1.88.8-4.05,1.2-6.52,1.2ZM311.64,45.04c-2.43,0-4.68-.4-6.75-1.2-2.03-.83-3.8-1.99-5.31-3.47-1.51-1.51-2.68-3.28-3.51-5.31-.8-2.06-1.2-4.33-1.2-6.79s.43-4.62,1.29-6.65c.86-2.03,2.05-3.79,3.56-5.27,1.54-1.51,3.34-2.68,5.41-3.51,2.1-.83,4.37-1.25,6.84-1.25,1.54,0,3.05.2,4.53.6,1.48.4,2.85,1,4.11,1.8,1.29.77,2.41,1.69,3.33,2.77l-4.81,5.5c-.65-.68-1.34-1.26-2.08-1.76-.71-.52-1.49-.92-2.36-1.2-.86-.28-1.79-.42-2.77-.42-1.23,0-2.4.23-3.51.69-1.08.43-2.03,1.06-2.86,1.89-.8.8-1.43,1.79-1.89,2.96-.46,1.17-.69,2.48-.69,3.93s.23,2.71.69,3.88c.46,1.14,1.11,2.13,1.94,2.96.83.83,1.83,1.46,3,1.89,1.2.43,2.53.65,3.98.65.98,0,1.92-.14,2.82-.42.89-.28,1.71-.65,2.45-1.11.77-.49,1.45-1.05,2.03-1.66l3.79,6.01c-.77.86-1.8,1.63-3.1,2.31-1.26.68-2.68,1.22-4.25,1.62-1.54.37-3.1.55-4.67.55ZM349.09,44.58V12.23h7.86v32.35h-7.86ZM329.03,44.58V12.23h7.86v32.35h-7.86ZM332.08,31.96l.04-7.02h21.12v7.02h-21.16Z" style="fill: #1a2228;"/>
      <path d="M159.38,106.19v-6.61h5.45v-19.13h-5.45v-6.61h18.81v6.61h-5.5v19.13h5.5v6.61h-18.81ZM185.66,106.19v-32.35h7.02l16.96,23.11-1.52-.23c-.15-1.02-.28-1.99-.37-2.91-.09-.92-.19-1.83-.28-2.73-.06-.89-.12-1.8-.18-2.73-.03-.92-.06-1.93-.09-3v-11.51h7.62v32.35h-7.11l-17.7-23.84,2.36.32c.15,1.48.28,2.74.37,3.79.12,1.02.22,1.93.28,2.73.09.8.15,1.52.18,2.17.03.65.05,1.29.05,1.94.03.62.05,1.31.05,2.08v10.81h-7.62ZM229.96,106.19v-25.42h-9.61v-6.93h27.31v6.93h-9.84v25.42h-7.86ZM253.22,106.19v-32.35h22.55v6.7h-14.93v18.95h15.39v6.7h-23.01ZM256.91,92.93v-6.38h16.77v6.38h-16.77ZM283,106.19v-32.35h7.86v25.42h14.42v6.93h-22.27ZM310.51,106.19v-6.61h5.45v-19.13h-5.45v-6.61h18.81v6.61h-5.5v19.13h5.5v6.61h-18.81ZM351.13,106.65c-2.59,0-4.93-.42-7.02-1.25-2.1-.83-3.9-2-5.41-3.51-1.51-1.51-2.66-3.28-3.46-5.31-.8-2.06-1.2-4.3-1.2-6.7s.42-4.61,1.25-6.61c.86-2.03,2.08-3.8,3.65-5.31,1.57-1.51,3.42-2.68,5.54-3.51,2.16-.83,4.5-1.25,7.02-1.25,1.79,0,3.47.23,5.04.69,1.6.46,3.05,1.09,4.34,1.89,1.29.8,2.39,1.73,3.28,2.77l-4.76,5.04c-.77-.74-1.57-1.36-2.4-1.85-.8-.49-1.66-.88-2.59-1.16-.92-.31-1.91-.46-2.96-.46-1.35,0-2.6.25-3.74.74-1.11.49-2.1,1.19-2.96,2.08-.83.86-1.48,1.89-1.94,3.1-.46,1.17-.69,2.45-.69,3.84s.25,2.68.74,3.88c.49,1.2,1.17,2.25,2.03,3.14.86.86,1.88,1.56,3.05,2.08,1.2.49,2.48.74,3.83.74.96,0,1.85-.15,2.68-.46.86-.31,1.6-.72,2.22-1.25.61-.52,1.11-1.14,1.48-1.85.37-.74.56-1.52.56-2.36v-1.2l1.02,1.57h-8.92v-6.15h15.2c.06.34.11.8.14,1.39.03.59.04,1.16.04,1.71.03.55.05.97.05,1.25,0,2.09-.38,4.02-1.15,5.78-.74,1.73-1.79,3.22-3.14,4.48-1.36,1.26-2.96,2.25-4.81,2.96-1.85.71-3.85,1.06-6.01,1.06ZM372.26,106.19v-32.35h22.55v6.7h-14.93v18.95h15.39v6.7h-23.01ZM375.96,92.93v-6.38h16.77v6.38h-16.77ZM377.9,71.35l-2.26-2.63,6.28-4.9h4.16l6.29,4.9-2.26,2.63-6.79-3.28h1.39l-6.79,3.28ZM402.05,106.19v-32.35h7.02l16.96,23.11-1.52-.23c-.15-1.02-.28-1.99-.37-2.91-.09-.92-.18-1.83-.28-2.73-.06-.89-.12-1.8-.18-2.73-.03-.92-.06-1.93-.09-3v-11.51h7.62v32.35h-7.11l-17.7-23.84,2.36.32c.15,1.48.28,2.74.37,3.79.12,1.02.21,1.93.28,2.73.09.8.15,1.52.19,2.17.03.65.05,1.29.05,1.94.03.62.05,1.31.05,2.08v10.81h-7.63ZM454.02,106.65c-2.43,0-4.68-.4-6.75-1.2-2.03-.83-3.81-1.99-5.31-3.47-1.51-1.51-2.68-3.28-3.51-5.31-.8-2.06-1.2-4.33-1.2-6.79s.43-4.62,1.29-6.65c.86-2.03,2.05-3.79,3.56-5.27,1.54-1.51,3.34-2.68,5.41-3.51,2.1-.83,4.38-1.25,6.84-1.25,1.54,0,3.05.2,4.53.6,1.48.4,2.85,1,4.11,1.8,1.29.77,2.4,1.69,3.33,2.77l-4.81,5.5c-.65-.68-1.34-1.26-2.08-1.76-.71-.52-1.49-.92-2.36-1.2s-1.79-.42-2.77-.42c-1.23,0-2.4.23-3.51.69-1.08.43-2.03,1.06-2.86,1.89-.8.8-1.43,1.79-1.89,2.96-.46,1.17-.69,2.48-.69,3.93s.23,2.71.69,3.88c.46,1.14,1.11,2.13,1.94,2.96.83.83,1.83,1.46,3,1.89,1.2.43,2.53.65,3.97.65.99,0,1.93-.14,2.82-.42.89-.28,1.71-.65,2.45-1.11.77-.49,1.45-1.05,2.04-1.66l3.79,6.01c-.77.86-1.8,1.63-3.09,2.31-1.26.68-2.68,1.22-4.25,1.62-1.54.37-3.09.55-4.67.55ZM470.76,106.19v-6.61h5.45v-19.13h-5.45v-6.61h18.81v6.61h-5.5v19.13h5.5v6.61h-18.81ZM492.93,106.19l12.8-32.35h6.65l12.71,32.35h-7.95l-6.1-16.4c-.25-.65-.49-1.34-.74-2.08-.25-.74-.49-1.49-.74-2.26-.25-.8-.49-1.57-.74-2.31-.22-.77-.4-1.48-.56-2.13l1.39-.05c-.19.77-.4,1.52-.65,2.26-.21.74-.44,1.48-.69,2.22-.21.71-.46,1.43-.74,2.17-.28.71-.54,1.45-.79,2.22l-6.1,16.36h-7.77ZM499.03,100l2.45-5.92h14.88l2.4,5.92h-19.73Z" style="fill: #00d19f;"/>
      <path d="M160.03,160.1v-32.35h22.55v6.7h-14.93v18.95h15.39v6.7h-23.01ZM163.72,146.84v-6.38h16.77v6.38h-16.77ZM189.81,160.1v-32.35h7.02l11.79,19.18-5.04-.05,11.92-19.13h6.75v32.35h-7.63v-10.07c0-2.77.06-5.27.19-7.49.15-2.22.4-4.42.74-6.61l.88,2.4-8.97,13.91h-3.05l-8.78-13.82.88-2.5c.34,2.06.57,4.19.69,6.38.15,2.16.23,4.73.23,7.72v10.07h-7.63ZM245.12,160.56c-2.46,0-4.71-.42-6.75-1.25s-3.81-2-5.31-3.51-2.68-3.28-3.51-5.31c-.83-2.03-1.25-4.27-1.25-6.7s.42-4.67,1.25-6.7c.83-2.03,2-3.8,3.51-5.31,1.51-1.51,3.28-2.68,5.31-3.51,2.03-.83,4.27-1.25,6.7-1.25s4.67.42,6.7,1.25c2.03.83,3.8,2,5.31,3.51,1.51,1.51,2.66,3.28,3.46,5.31.83,2.03,1.25,4.27,1.25,6.7s-.42,4.64-1.25,6.7c-.8,2.03-1.96,3.8-3.46,5.31-1.51,1.51-3.28,2.68-5.31,3.51-2.03.83-4.25,1.25-6.65,1.25ZM245.08,153.17c1.26,0,2.42-.23,3.47-.69,1.08-.46,2-1.11,2.77-1.94.8-.86,1.42-1.86,1.85-3s.65-2.39.65-3.74-.22-2.6-.65-3.74c-.43-1.14-1.05-2.13-1.85-2.96-.77-.86-1.69-1.52-2.77-1.99-1.05-.46-2.2-.69-3.47-.69s-2.43.23-3.51.69c-1.05.46-1.97,1.12-2.77,1.99-.8.83-1.42,1.82-1.85,2.96-.4,1.14-.6,2.39-.6,3.74s.2,2.62.6,3.79c.43,1.14,1.05,2.13,1.85,2.96.8.83,1.73,1.48,2.77,1.94,1.08.46,2.25.69,3.51.69ZM282.58,160.56c-2.43,0-4.68-.4-6.75-1.2-2.03-.83-3.81-1.99-5.31-3.47-1.51-1.51-2.68-3.28-3.51-5.31-.8-2.06-1.2-4.33-1.2-6.79s.43-4.62,1.29-6.65c.86-2.03,2.05-3.79,3.56-5.27,1.54-1.51,3.34-2.68,5.41-3.51,2.1-.83,4.38-1.25,6.84-1.25,1.54,0,3.05.2,4.53.6,1.48.4,2.85,1,4.11,1.8,1.29.77,2.4,1.69,3.32,2.77l-4.81,5.5c-.65-.68-1.34-1.26-2.08-1.76-.71-.52-1.49-.92-2.36-1.2-.86-.28-1.79-.42-2.77-.42-1.23,0-2.41.23-3.51.69-1.08.43-2.03,1.06-2.86,1.89-.8.8-1.43,1.79-1.89,2.96-.46,1.17-.69,2.48-.69,3.93s.23,2.71.69,3.88c.46,1.14,1.11,2.13,1.94,2.96.83.83,1.83,1.46,3,1.89,1.2.43,2.53.65,3.97.65.99,0,1.92-.14,2.82-.42.89-.28,1.71-.65,2.45-1.11.77-.49,1.45-1.05,2.03-1.66l3.79,6.01c-.77.86-1.8,1.63-3.09,2.31-1.26.68-2.68,1.22-4.25,1.62-1.54.37-3.09.55-4.67.55ZM299.32,160.1v-6.61h5.45v-19.13h-5.45v-6.61h18.81v6.61h-5.5v19.13h5.5v6.61h-18.81ZM339.67,160.56c-2.47,0-4.71-.42-6.75-1.25-2.03-.83-3.81-2-5.31-3.51-1.51-1.51-2.68-3.28-3.51-5.31-.83-2.03-1.25-4.27-1.25-6.7s.42-4.67,1.25-6.7c.83-2.03,2-3.8,3.51-5.31,1.51-1.51,3.28-2.68,5.31-3.51,2.03-.83,4.27-1.25,6.7-1.25s4.67.42,6.7,1.25c2.03.83,3.81,2,5.31,3.51,1.51,1.51,2.67,3.28,3.47,5.31.83,2.03,1.25,4.27,1.25,6.7s-.42,4.64-1.25,6.7c-.8,2.03-1.96,3.8-3.47,5.31-1.51,1.51-3.28,2.68-5.31,3.51s-4.25,1.25-6.65,1.25ZM339.62,153.17c1.26,0,2.42-.23,3.46-.69,1.08-.46,2-1.11,2.77-1.94.8-.86,1.42-1.86,1.85-3,.43-1.14.65-2.39.65-3.74s-.21-2.6-.65-3.74c-.43-1.14-1.05-2.13-1.85-2.96-.77-.86-1.69-1.52-2.77-1.99-1.05-.46-2.2-.69-3.46-.69s-2.43.23-3.51.69c-1.05.46-1.97,1.12-2.77,1.99-.8.83-1.42,1.82-1.85,2.96-.4,1.14-.6,2.39-.6,3.74s.2,2.62.6,3.79c.43,1.14,1.05,2.13,1.85,2.96s1.73,1.48,2.77,1.94c1.08.46,2.25.69,3.51.69ZM362.43,160.1v-32.35h7.02l16.96,23.11-1.52-.23c-.15-1.02-.28-1.99-.37-2.91-.09-.92-.18-1.83-.28-2.73-.06-.89-.12-1.8-.19-2.73-.03-.92-.06-1.93-.09-3v-11.51h7.63v32.35h-7.12l-17.7-23.84,2.36.32c.15,1.48.28,2.74.37,3.79.12,1.02.21,1.93.28,2.73.09.8.15,1.52.18,2.17.03.65.05,1.29.05,1.94.03.62.05,1.31.05,2.08v10.81h-7.62ZM395.59,160.1l12.8-32.35h6.65l12.71,32.35h-7.95l-6.1-16.4c-.25-.65-.49-1.34-.74-2.08-.25-.74-.49-1.49-.74-2.26-.25-.8-.49-1.57-.74-2.31-.21-.77-.4-1.48-.56-2.13l1.39-.05c-.18.77-.4,1.52-.65,2.26-.22.74-.45,1.48-.69,2.22-.21.71-.46,1.43-.74,2.17-.28.71-.54,1.45-.79,2.22l-6.1,16.36h-7.76ZM401.69,153.91l2.45-5.91h14.88l2.4,5.91h-19.73ZM431.79,160.1v-32.35h7.86v25.42h14.42v6.93h-22.27Z" style="fill: #00d19f;"/>
      <path d="M479.44,152.06c0,4.34-3.34,7.75-7.68,7.75s-7.72-3.41-7.72-7.75,3.43-7.66,7.72-7.66,7.68,3.41,7.68,7.66ZM465.96,152.06c0,3.41,2.47,6.11,5.85,6.11s5.71-2.71,5.71-6.07-2.42-6.16-5.76-6.16-5.8,2.75-5.8,6.11h0ZM470.57,156.08h-1.74v-7.66c.68-.14,1.65-.23,2.88-.23,1.42,0,2.06.23,2.61.56.41.33.73.93.73,1.68,0,.84-.64,1.49-1.56,1.77v.09c.73.28,1.14.84,1.37,1.87.23,1.17.37,1.63.55,1.91h-1.87c-.23-.28-.37-.98-.59-1.87-.14-.84-.59-1.21-1.56-1.21h-.82v3.08h0ZM470.62,151.74h.82c.96,0,1.74-.33,1.74-1.12,0-.7-.5-1.17-1.6-1.17-.46,0-.78.05-.96.09v2.19h0Z" style="fill: #1a2228;"/>
    </g>
  </g>
</svg>