<?xml version="1.0" encoding="UTF-8"?>
<svg id="Camada_2" data-name="Camada 2" xmlns="http://www.w3.org/2000/svg" xmlns:xlink="http://www.w3.org/1999/xlink" viewBox="0 0 350.08 157.19">
  <defs>
    <clipPath id="clippath">
      <rect width="126.53" height="156.74" style="fill: none;"/>
    </clipPath>
  </defs>
  <g id="Camada_1-2" data-name="Camada 1">
    <g>
      <g style="clip-path: url(#clippath);">
        <g>
          <path d="M0,31.35v19.16c59.12,0,107.2,47.65,107.2,106.24h19.33C126.53,87.5,69.87,31.35,0,31.35Z" style="fill: #8821b0;"/>
          <path d="M126.53,31.35v19.16c-59.12,0-107.2,47.65-107.2,106.24H0C0,87.5,56.66,31.35,126.53,31.35Z" style="fill: #8821b0;"/>
          <path d="M0,97.53v-19.16c27.82,0,51.87,18.03,63.26,44.17,11.39-26.15,35.44-44.17,63.26-44.17v19.16c-29.28,0-53.11,26.56-53.11,59.21h-20.31c0-32.65-23.83-59.21-53.11-59.21Z" style="fill: #8821b0; fill-rule: evenodd;"/>
          <path d="M63.27,0l-15.82,15.68,15.82,15.68,15.82-15.68L63.27,0Z" style="fill: #8821b0;"/>
        </g>
      </g>
      <g>
        <path d="M156.95,100.09v-31.73h6.89l11.56,18.81-4.94-.05,11.69-18.76h6.62v31.73h-7.48v-9.88c0-2.72.06-5.17.18-7.34.15-2.18.39-4.34.73-6.48l.86,2.36-8.79,13.64h-2.99l-8.61-13.55.86-2.45c.33,2.02.56,4.11.68,6.25.15,2.12.23,4.64.23,7.57v9.88h-7.48ZM196.74,100.09v-31.73h22.12v6.57h-14.64v18.58h15.09v6.57h-22.57ZM200.37,87.08v-6.25h16.45v6.25h-16.45ZM225.95,100.09v-31.73h6.89l16.63,22.66-1.5-.23c-.15-1-.27-1.95-.36-2.86-.09-.91-.18-1.8-.27-2.67-.06-.88-.12-1.77-.18-2.67-.03-.91-.06-1.89-.09-2.95v-11.29h7.48v31.73h-6.98l-17.36-23.39,2.31.32c.15,1.45.27,2.69.36,3.72.12,1,.21,1.89.27,2.67.09.79.15,1.5.18,2.13.03.63.05,1.27.05,1.9.03.6.05,1.28.05,2.04v10.61h-7.48ZM273.03,100.54c-2.08,0-3.97-.24-5.67-.73-1.66-.51-3.14-1.24-4.44-2.18-1.3-.97-2.46-2.1-3.49-3.4l4.67-5.3c1.51,2.02,3.02,3.38,4.53,4.08,1.54.69,3.13,1.04,4.76,1.04.82,0,1.56-.11,2.22-.32s1.18-.51,1.54-.91c.36-.42.54-.94.54-1.54,0-.45-.12-.86-.36-1.22-.21-.36-.51-.68-.91-.95-.39-.27-.86-.51-1.41-.73-.54-.24-1.12-.44-1.72-.59-.6-.18-1.22-.33-1.86-.45-1.75-.39-3.28-.88-4.58-1.45-1.3-.57-2.39-1.27-3.26-2.08-.85-.85-1.48-1.8-1.9-2.86-.42-1.09-.63-2.3-.63-3.63,0-1.42.32-2.72.95-3.9.66-1.21,1.54-2.24,2.63-3.08,1.12-.88,2.4-1.54,3.85-1.99,1.45-.48,2.96-.73,4.53-.73,2.08,0,3.87.23,5.35.68,1.51.42,2.79,1.04,3.85,1.86,1.09.82,2.01,1.8,2.76,2.95l-4.76,4.58c-.63-.79-1.33-1.44-2.08-1.95-.73-.51-1.51-.91-2.36-1.18-.82-.27-1.66-.41-2.54-.41s-1.69.12-2.36.36c-.63.21-1.13.53-1.5.95-.36.39-.54.88-.54,1.45,0,.51.15.95.45,1.31s.71.69,1.22,1c.51.27,1.1.51,1.77.73.66.18,1.36.33,2.08.45,1.66.33,3.16.77,4.49,1.31,1.36.54,2.52,1.21,3.49,1.99,1,.79,1.75,1.72,2.27,2.81.54,1.06.82,2.3.82,3.72,0,2.21-.54,4.08-1.63,5.62-1.06,1.51-2.52,2.67-4.4,3.49-1.84.79-3.97,1.18-6.39,1.18ZM305.65,100.54c-2.39,0-4.59-.39-6.62-1.18-1.99-.82-3.73-1.95-5.21-3.4-1.48-1.48-2.63-3.22-3.44-5.21-.79-2.02-1.18-4.25-1.18-6.66s.42-4.53,1.27-6.53,2.01-3.72,3.49-5.17c1.51-1.48,3.28-2.63,5.3-3.44,2.05-.82,4.29-1.22,6.71-1.22,1.51,0,2.99.2,4.44.59s2.79.98,4.03,1.77c1.27.76,2.36,1.66,3.26,2.72l-4.71,5.39c-.63-.66-1.31-1.24-2.04-1.72-.69-.51-1.47-.91-2.31-1.18-.85-.27-1.75-.41-2.72-.41-1.21,0-2.36.23-3.44.68-1.06.42-1.99,1.04-2.81,1.86-.79.79-1.41,1.75-1.86,2.9-.45,1.15-.68,2.43-.68,3.85s.23,2.66.68,3.81c.45,1.12,1.09,2.08,1.9,2.9s1.8,1.44,2.95,1.86c1.18.42,2.48.63,3.9.63.97,0,1.89-.14,2.76-.41.88-.27,1.68-.63,2.4-1.09.76-.48,1.42-1.03,1.99-1.63l3.72,5.89c-.76.85-1.77,1.6-3.04,2.27-1.24.66-2.63,1.19-4.17,1.59-1.51.36-3.04.54-4.58.54ZM342.38,100.09v-31.73h7.7v31.73h-7.7ZM322.71,100.09v-31.73h7.7v31.73h-7.7ZM325.7,87.71l.05-6.89h20.71v6.89h-20.76Z" style="fill: #1a2228;"/>
        <path d="M162.66,156.74l-9.52-31.73h7.84l4.76,16.68c.21.76.39,1.53.54,2.31.18.76.32,1.48.41,2.18.12.69.21,1.34.27,1.95.06.57.12,1.06.18,1.45h-1c.18-1.12.33-2.12.45-2.99.15-.88.32-1.69.5-2.45.18-.79.41-1.6.68-2.45l4.71-12.55h6.16l4.62,12.55c.36,1,.66,1.93.91,2.81.24.88.42,1.72.54,2.54.15.79.27,1.57.36,2.36l-.91.14c.06-.54.11-1.04.14-1.5.03-.48.06-.94.09-1.36.06-.45.12-.92.18-1.4.06-.48.15-1.01.27-1.59.12-.6.29-1.28.5-2.04l4.71-16.63h7.66l-9.52,31.73h-5.89l-7.52-18.26.86.09-6.93,18.17h-6.07ZM201.33,156.74v-6.48h5.35v-18.76h-5.35v-6.48h18.45v6.48h-5.39v18.76h5.39v6.48h-18.45ZM237.62,157.19c-2.08,0-3.97-.24-5.67-.73-1.66-.51-3.14-1.24-4.44-2.18-1.3-.97-2.46-2.1-3.49-3.4l4.67-5.3c1.51,2.02,3.02,3.38,4.53,4.08,1.54.69,3.13,1.04,4.76,1.04.82,0,1.56-.11,2.22-.32s1.18-.51,1.54-.91c.36-.42.54-.94.54-1.54,0-.45-.12-.86-.36-1.22-.21-.36-.51-.68-.91-.95-.39-.27-.86-.51-1.41-.73-.54-.24-1.12-.44-1.72-.59-.6-.18-1.22-.33-1.86-.45-1.75-.39-3.28-.88-4.58-1.45-1.3-.57-2.39-1.27-3.26-2.08-.85-.85-1.48-1.8-1.9-2.86-.42-1.09-.63-2.3-.63-3.63,0-1.42.32-2.72.95-3.9.66-1.21,1.54-2.24,2.63-3.08,1.12-.88,2.4-1.54,3.85-1.99,1.45-.48,2.96-.73,4.53-.73,2.08,0,3.87.23,5.35.68,1.51.42,2.79,1.04,3.85,1.86,1.09.82,2.01,1.8,2.76,2.95l-4.76,4.58c-.63-.79-1.33-1.44-2.08-1.95-.73-.51-1.51-.91-2.36-1.18-.82-.27-1.66-.41-2.54-.41s-1.69.12-2.36.36c-.63.21-1.13.53-1.5.95-.36.39-.54.88-.54,1.45,0,.51.15.95.45,1.31s.71.69,1.22,1c.51.27,1.1.51,1.77.73.66.18,1.36.33,2.08.45,1.66.33,3.16.77,4.49,1.31,1.36.54,2.52,1.21,3.49,1.99,1,.79,1.75,1.72,2.27,2.81.54,1.06.82,2.3.82,3.72,0,2.21-.54,4.08-1.63,5.62-1.06,1.51-2.52,2.67-4.4,3.49-1.84.79-3.97,1.18-6.39,1.18ZM255.83,156.74v-31.73h22.12v6.57h-14.64v18.58h15.09v6.57h-22.57ZM259.45,143.73v-6.25h16.45v6.25h-16.45Z" style="fill: #8821b0;"/>
        <path d="M304.04,149.14c0,4.26-3.27,7.6-7.53,7.6s-7.58-3.34-7.58-7.6,3.36-7.51,7.58-7.51,7.53,3.34,7.53,7.51ZM290.81,149.14c0,3.34,2.42,6,5.74,6s5.6-2.66,5.6-5.95-2.38-6.04-5.65-6.04-5.69,2.7-5.69,6h0ZM295.34,153.08h-1.7v-7.51c.67-.14,1.61-.23,2.82-.23,1.39,0,2.02.23,2.56.55.4.32.72.91.72,1.65,0,.83-.63,1.47-1.52,1.74v.09c.72.27,1.12.82,1.34,1.83.22,1.14.36,1.6.54,1.88h-1.84c-.22-.28-.36-.96-.58-1.83-.13-.82-.58-1.19-1.52-1.19h-.81v3.02h0ZM295.39,148.82h.81c.94,0,1.7-.32,1.7-1.1,0-.69-.49-1.14-1.57-1.14-.45,0-.76.05-.94.09v2.15h0Z" style="fill: #1a2228;"/>
      </g>
    </g>
  </g>
</svg>