<?xml version="1.0" encoding="UTF-8"?>
<svg id="Camada_2" data-name="Camada 2" xmlns="http://www.w3.org/2000/svg" viewBox="0 0 373.31 159.89">
  <g id="Camada_1-2" data-name="Camada 1">
    <g id="Camada_1-2" data-name="Camada 1-2">
      <g>
        <g>
          <path d="M0,31.98v19.54c60.3,0,109.35,48.6,109.35,108.37h19.71C129.06,89.26,71.26,31.98,0,31.98Z" style="fill: #f76861;"/>
          <path d="M129.06,31.98v19.54c-60.3,0-109.35,48.6-109.35,108.37H0C0,89.26,57.79,31.98,129.06,31.98Z" style="fill: #f76861;"/>
          <path d="M0,99.48v-19.54c28.38,0,52.91,18.38,64.53,45.06,11.62-26.68,36.15-45.06,64.53-45.06v19.54c-29.87,0-54.17,27.09-54.17,60.4h-20.72c0-33.3-24.3-60.4-54.17-60.4Z" style="fill: #f76861; fill-rule: evenodd;"/>
          <path d="M64.54,0l-16.13,15.99,16.13,15.99,16.13-15.99L64.54,0Z" style="fill: #f76861;"/>
        </g>
        <g>
          <path d="M159.52,112.31v-32.37h8l11.79,19.19-6.24-.05,11.93-19.15h7.72v32.37h-8.83v-8.64c0-2.78.07-5.27.21-7.49.13-2.21.38-4.43.71-6.62l1.02,2.72-8.28,12.8h-3.05l-8.09-12.8,1.02-2.72c.34,2.07.58,4.19.71,6.36.13,2.17.2,4.75.2,7.74v8.64h-8.83,0Z" style="fill: #1a2228;"/>
          <path d="M200.12,112.31v-32.37h23.54v7.54h-14.75v17.3h15.44v7.54h-24.23,0ZM204.47,99.46v-7.13h17.34v7.13h-17.34Z" style="fill: #1a2228;"/>
          <path d="M230.31,112.31v-32.37h8.19l15.73,21.55-1.89-.46c-.16-1.14-.28-2.17-.39-3.1-.11-.93-.2-1.8-.28-2.63-.08-.83-.13-1.66-.19-2.5-.04-.83-.07-1.74-.07-2.72v-10.13h8.83v32.37h-8.28l-16.92-23.12,3.19.79c.15,1.26.28,2.36.39,3.29.11.93.19,1.76.25,2.5s.12,1.45.16,2.12c.04.68.08,1.41.09,2.17.01.78.03,1.65.03,2.63v9.62h-8.84Z" style="fill: #1a2228;"/>
          <path d="M278.73,112.78c-2.31,0-4.37-.27-6.17-.79s-3.39-1.27-4.76-2.27c-1.37-.99-2.6-2.15-3.68-3.46l5.37-6.05c1.54,2,3.13,3.34,4.76,4,1.64.67,3.22.99,4.76.99.67,0,1.29-.07,1.85-.21.55-.13.98-.38,1.27-.7s.44-.74.44-1.22c0-.43-.12-.81-.38-1.11-.24-.31-.59-.58-1.02-.81-.43-.23-.91-.44-1.44-.63-.52-.19-1.05-.34-1.57-.44s-1.03-.23-1.53-.35c-1.82-.4-3.41-.91-4.76-1.53-1.36-.62-2.5-1.34-3.39-2.2-.91-.85-1.58-1.82-2.04-2.94-.44-1.11-.67-2.36-.67-3.74,0-1.5.35-2.9,1.06-4.16.71-1.26,1.65-2.35,2.82-3.26s2.52-1.6,4.05-2.08,3.13-.71,4.79-.71c2.28,0,4.23.23,5.82.67s2.95,1.09,4.05,1.92,2.04,1.8,2.84,2.91l-5.46,5.27c-.64-.71-1.36-1.29-2.11-1.76-.75-.46-1.53-.81-2.33-1.05-.81-.23-1.62-.35-2.46-.35-.76,0-1.44.08-2.01.23-.58.16-1.01.38-1.31.67s-.46.68-.46,1.18c0,.43.17.81.51,1.13s.76.59,1.29.81c.52.21,1.09.39,1.69.54.6.13,1.15.25,1.64.35,1.69.34,3.25.78,4.64,1.32,1.4.54,2.63,1.22,3.68,2.04,1.05.82,1.85,1.81,2.4,2.98s.83,2.54.83,4.12c0,2.31-.58,4.27-1.73,5.85s-2.71,2.79-4.67,3.61c-1.96.82-4.17,1.22-6.63,1.22v.03Z" style="fill: #1a2228;"/>
          <path d="M312.29,112.78c-2.52,0-4.86-.42-6.98-1.25s-3.97-2-5.53-3.49c-1.56-1.49-2.76-3.26-3.61-5.31s-1.27-4.31-1.27-6.78.44-4.68,1.31-6.72c.87-2.05,2.11-3.82,3.68-5.34s3.44-2.68,5.6-3.52,4.52-1.25,7.07-1.25c1.54,0,3.05.19,4.51.58s2.84.95,4.13,1.69,2.46,1.66,3.46,2.78l-5.5,6.39c-.52-.59-1.11-1.11-1.76-1.57s-1.38-.82-2.2-1.09-1.72-.39-2.71-.39c-1.14,0-2.21.19-3.22.58s-1.88.95-2.62,1.69-1.31,1.64-1.73,2.68-.63,2.25-.63,3.61.2,2.46.63,3.49c.42,1.03,1.02,1.91,1.8,2.63.79.72,1.73,1.29,2.82,1.69,1.09.4,2.32.6,3.68.6.95,0,1.85-.13,2.71-.42s1.62-.64,2.33-1.11c.71-.46,1.34-.97,1.89-1.53l4.35,6.88c-.76.86-1.81,1.64-3.13,2.31-1.31.68-2.76,1.21-4.35,1.6-1.58.39-3.18.58-4.79.58h.05Z" style="fill: #1a2228;"/>
          <path d="M328.98,112.31v-32.37h9.15v32.37h-9.15ZM332.44,100.19l.04-8.05h21.13v8.05h-21.17ZM348.58,112.31v-32.37h9.15v32.37h-9.15Z" style="fill: #1a2228;"/>
        </g>
        <g>
          <path d="M160.15,159.87v-31.92h9.03v31.92h-9.03ZM163.57,147.92l.04-7.93h20.84v7.93s-20.88,0-20.88,0ZM179.48,159.87v-31.92h9.03v31.92h-9.03Z" style="fill: #f76861;"/>
          <path d="M195.81,159.87v-31.92h23.2v7.43h-14.55v17.05h15.23v7.43h-23.88ZM200.09,147.19v-7.02h17.1v7.02h-17.1Z" style="fill: #f76861;"/>
          <path d="M221.26,159.87l12.72-31.92h7.3l12.63,31.92h-8.98l-5.47-14.81c-.31-.82-.58-1.58-.82-2.28-.24-.7-.47-1.38-.68-2.05-.21-.67-.42-1.36-.62-2.05-.2-.7-.38-1.46-.52-2.28l1.46-.04c-.19.89-.38,1.68-.56,2.38-.2.7-.4,1.37-.62,2.01s-.44,1.3-.71,2.01c-.25.7-.54,1.48-.85,2.32l-5.47,14.81h-8.8,0ZM227.45,154.58l2.68-6.39h14.77l2.51,6.39h-19.97,0Z" style="fill: #f76861;"/>
          <path d="M256.85,159.87v-31.92h9.03v24.11h13.9v7.8h-22.93Z" style="fill: #f76861;"/>
          <path d="M288,159.87v-24.11h-9.66v-7.8h28.68v7.8h-9.98v24.11h-9.03Z" style="fill: #f76861;"/>
          <path d="M311.94,159.87v-31.92h9.03v31.92h-9.03ZM315.36,147.92l.04-7.93h20.84v7.93s-20.88,0-20.88,0ZM331.27,159.87v-31.92h9.03v31.92h-9.03Z" style="fill: #f76861;"/>
        </g>
        <path d="M373.31,152.14c0,4.35-3.34,7.76-7.69,7.76s-7.73-3.41-7.73-7.76,3.44-7.66,7.73-7.66,7.69,3.41,7.69,7.66ZM359.83,152.14c0,3.41,2.47,6.12,5.85,6.12s5.72-2.71,5.72-6.07-2.43-6.16-5.76-6.16-5.81,2.75-5.81,6.12h0ZM364.44,156.15h-1.73v-7.66c.68-.13,1.65-.23,2.88-.23,1.42,0,2.05.23,2.6.56.42.32.74.93.74,1.68,0,.85-.64,1.49-1.56,1.77v.09c.74.28,1.14.85,1.37,1.87.23,1.17.36,1.64.55,1.92h-1.88c-.23-.28-.36-.98-.59-1.87-.13-.85-.59-1.21-1.56-1.21h-.82v3.09h-.01ZM364.48,151.8h.82c.95,0,1.73-.32,1.73-1.13,0-.7-.5-1.17-1.6-1.17-.46,0-.78.04-.97.09v2.2h.01Z" style="fill: #1a2228;"/>
      </g>
    </g>
  </g>
</svg>