<?xml version="1.0" encoding="UTF-8"?>
<svg id="Camada_2" data-name="Camada 2" xmlns="http://www.w3.org/2000/svg" viewBox="0 0 129.06 159.88">
  <g id="Camada_1-2" data-name="Camada 1">
    <g>
      <path d="M0,31.98v19.54c60.3,0,109.35,48.6,109.35,108.37h19.71C129.06,89.26,71.26,31.98,0,31.98Z" style="fill: #f76861;"/>
      <path d="M129.06,31.98v19.54c-60.3,0-109.35,48.6-109.35,108.37H0C0,89.26,57.79,31.98,129.06,31.98Z" style="fill: #f76861;"/>
      <path d="M0,99.48v-19.54c28.38,0,52.91,18.38,64.53,45.06,11.62-26.68,36.15-45.06,64.53-45.06v19.54c-29.87,0-54.17,27.09-54.17,60.4h-20.72c0-33.3-24.3-60.4-54.17-60.4Z" style="fill: #f76861; fill-rule: evenodd;"/>
      <path d="M64.54,0l-16.13,15.99,16.13,15.99,16.13-15.99L64.54,0Z" style="fill: #f76861;"/>
    </g>
  </g>
</svg>