<?xml version="1.0" encoding="UTF-8"?>
<svg id="Camada_2" data-name="Camada 2" xmlns="http://www.w3.org/2000/svg" xmlns:xlink="http://www.w3.org/1999/xlink" viewBox="0 0 127.83 158.35">
  <defs>
    <clipPath id="clippath">
      <rect width="127.83" height="158.35" style="fill: none;"/>
    </clipPath>
  </defs>
  <g id="Camada_1-2" data-name="Camada 1">
    <g style="clip-path: url(#clippath);">
      <g>
        <path d="M0,31.67v19.35c59.72,0,108.3,48.14,108.3,107.33h19.53C127.83,88.4,70.59,31.67,0,31.67Z" style="fill: #ffa51e;"/>
        <path d="M127.83,31.67v19.35c-59.72,0-108.3,48.14-108.3,107.33H0C0,88.4,57.24,31.67,127.83,31.67Z" style="fill: #ffa51e;"/>
        <path d="M0,98.53v-19.35c28.11,0,52.4,18.21,63.91,44.63,11.51-26.42,35.81-44.63,63.91-44.63v19.35c-29.58,0-53.65,26.83-53.65,59.82h-20.52c0-32.99-24.07-59.82-53.65-59.82Z" style="fill: #ffa51e; fill-rule: evenodd;"/>
        <path d="M63.92,0l-15.98,15.84,15.98,15.84,15.98-15.84L63.92,0Z" style="fill: #ffa51e;"/>
      </g>
    </g>
  </g>
</svg>