<?xml version="1.0" encoding="UTF-8"?>
<svg id="Camada_2" data-name="Camada 2" xmlns="http://www.w3.org/2000/svg" viewBox="0 0 129.57 160.51">
  <g id="Camada_1-2" data-name="Camada 1">
    <g>
      <path d="M0,32.11v19.62c60.54,0,109.78,48.79,109.78,108.79h19.8c-.01-70.91-58.03-128.41-129.57-128.41Z" style="fill: #06aafc;"/>
      <path d="M129.56,32.11v19.62c-60.54,0-109.78,48.79-109.78,108.79H0C0,89.61,58.02,32.11,129.56,32.11Z" style="fill: #06aafc;"/>
      <path d="M0,99.88v-19.62c28.49,0,53.11,18.45,64.78,45.23,11.67-26.77,36.29-45.23,64.78-45.23v19.62c-29.98,0-54.38,27.2-54.38,60.64h-20.81c0-33.44-24.4-60.64-54.38-60.64Z" style="fill: #06aafc; fill-rule: evenodd;"/>
      <path d="M64.79,0l-16.2,16.06,16.2,16.06,16.2-16.06L64.79,0Z" style="fill: #06aafc;"/>
    </g>
  </g>
</svg>