<?xml version="1.0" encoding="UTF-8"?>
<svg id="Camada_1" data-name="Camada 1" xmlns="http://www.w3.org/2000/svg" xmlns:xlink="http://www.w3.org/1999/xlink" viewBox="0 0 64 64">
  <defs>
    <style>
      .cls-1 {
        fill: #b93446;
      }

      .cls-2 {
        fill: #8b0625;
      }

      .cls-3 {
        fill: none;
      }

      .cls-4 {
        clip-path: url(#clippath);
      }
    </style>

    <style>
      #base {
        rx: 8px;
        animation: aproxima 1s infinite ease-in-out alternate;
      }

      #corpo { 
        animation: aproxima2 1s infinite ease-in-out alternate;
      }

      @keyframes aproxima {
        to { rx: 0; ry: 0;}
      }

      @keyframes aproxima2 {
        to { 
          transform: scale(1, 0.8);
        }
      }
    </style>

    <clipPath id="clippath">
      <rect id="corte" class="cls-3" width="64" height="64"/>
    </clipPath>
  </defs>
  <g class="cls-4">
    <ellipse id="base" class="cls-1" cx="32" cy="50.79" rx="7.04" ry="5.21"/>
    <g id="corpo">
      <path class="cls-1" d="M37.93,22.8c0,3.06-2.66,5.55-5.93,5.55-2.04,0-3.85-.97-4.91-2.44,1.02.78,2.32,1.24,3.74,1.24,3.28,0,5.93-2.48,5.93-5.55,0-1.15-.38-2.22-1.02-3.11,1.34,1.02,2.19,2.57,2.19,4.31Z"/>
      <path class="cls-2" d="M32.24,8c-8.86-.12-16.09,6.56-16.09,14.82,0,3.53,1.31,6.76,3.51,9.31,3.25,3.77,6.2,7.75,8.63,12.02l3.71,6.51,3.69-6.48c2.44-4.29,5.41-8.28,8.67-12.06,2.24-2.61,3.56-5.95,3.49-9.57-.16-7.94-7.12-14.43-15.61-14.54ZM32,28.34c-3.28,0-5.93-2.48-5.93-5.55s2.66-5.55,5.93-5.55,5.93,2.48,5.93,5.55-2.66,5.55-5.93,5.55Z"/>
    </g>
  </g>
</svg>