<?xml version="1.0" encoding="UTF-8"?>
<svg id="Camada_2" data-name="Camada 2" xmlns="http://www.w3.org/2000/svg" viewBox="0 0 48 48">
  <defs>
    <style>
      .cls-1 {
        fill-rule: evenodd;
      }

      .cls-1, .cls-2 {
        fill: #f4f1f8;
      }

      .cls-3 {
        fill: #ffa51e;
      }
    </style>
  </defs>
  <g id="Camada_1-2" data-name="Camada 1">
    <g>
      <path class="cls-3" d="M24,0L0,24l24,24,24-24L24,0Z"/>
      <g>
        <path class="cls-2" d="M15.67,17.79v2.53c7.78,0,14.12,6.29,14.12,14.03h2.55c0-9.14-7.46-16.56-16.66-16.56Z"/>
        <path class="cls-2" d="M32.33,17.79v2.53c-7.78,0-14.12,6.29-14.12,14.03h-2.55c0-9.14,7.46-16.56,16.66-16.56Z"/>
        <path class="cls-1" d="M15.67,26.53v-2.53c3.67,0,6.84,2.39,8.33,5.86,1.49-3.47,4.66-5.86,8.33-5.86v2.53c-3.85,0-7.42,3.5-7.42,7.81h0s-1.82,0-1.82,0h0c0-4.32-3.57-7.82-7.42-7.82Z"/>
        <path class="cls-2" d="M24,13.65l-2.08,2.07,2.08,2.07,2.08-2.07-2.08-2.07Z"/>
      </g>
    </g>
  </g>
</svg>