<?xml version="1.0" encoding="UTF-8"?>
<svg id="Camada_2" data-name="Camada 2" xmlns="http://www.w3.org/2000/svg" xmlns:xlink="http://www.w3.org/1999/xlink" viewBox="0 0 570.45 158.82">
  <defs>
    <style>
      .cls-1 {
        fill: #1a2228;
      }

      .cls-2 {
        fill: none;
      }

      .cls-3 {
        fill-rule: evenodd;
      }

      .cls-3, .cls-4 {
        fill: #ffa51e;
      }

      .cls-5 {
        clip-path: url(#clippath);
      }
    </style>
    <clipPath id="clippath">
      <rect class="cls-2" y="0" width="127.83" height="158.35"/>
    </clipPath>
  </defs>
  <g id="Camada_1-2" data-name="Camada 1">
    <g>
      <g class="cls-5">
        <g>
          <path class="cls-4" d="M0,31.68v19.35c59.72,0,108.3,48.14,108.3,107.33h19.53C127.83,88.4,70.59,31.68,0,31.68Z"/>
          <path class="cls-4" d="M127.83,31.68v19.35c-59.72,0-108.3,48.14-108.3,107.33H0C0,88.4,57.24,31.68,127.83,31.68Z"/>
          <path class="cls-3" d="M0,98.54v-19.35c28.11,0,52.4,18.21,63.91,44.63,11.51-26.42,35.81-44.63,63.91-44.63v19.35c-29.58,0-53.65,26.83-53.65,59.82h-20.52c0-32.99-24.07-59.82-53.65-59.82Z"/>
          <path class="cls-4" d="M63.92,0l-15.98,15.84,15.98,15.84,15.98-15.84L63.92,0Z"/>
        </g>
      </g>
      <path class="cls-1" d="M158.57,101.12v-32.05h6.96l11.68,19-4.99-.05,11.81-18.96h6.69v32.05h-7.56v-9.98c0-2.75.06-5.22.18-7.42.15-2.2.4-4.38.73-6.55l.87,2.38-8.88,13.78h-3.02l-8.7-13.69.87-2.47c.34,2.05.56,4.15.69,6.32.15,2.14.23,4.69.23,7.65v9.98h-7.56ZM198.77,101.12v-32.05h22.34v6.64h-14.79v18.77h15.25v6.64h-22.8ZM202.43,87.98v-6.32h16.62v6.32h-16.62ZM228.28,101.12v-32.05h6.96l16.8,22.89-1.51-.23c-.15-1.01-.27-1.97-.37-2.88-.09-.92-.18-1.82-.27-2.7-.06-.89-.12-1.79-.18-2.7-.03-.92-.06-1.91-.09-2.98v-11.4h7.56v32.05h-7.05l-17.54-23.63,2.34.32c.15,1.47.27,2.72.37,3.75.12,1.01.21,1.91.27,2.7.09.79.15,1.51.18,2.15.03.64.05,1.28.05,1.92.03.61.05,1.3.05,2.06v10.71h-7.56ZM275.84,101.58c-2.11,0-4.01-.24-5.72-.73-1.68-.52-3.17-1.25-4.49-2.2-1.31-.98-2.49-2.12-3.53-3.43l4.72-5.36c1.53,2.05,3.05,3.42,4.58,4.12,1.56.7,3.16,1.05,4.81,1.05.82,0,1.57-.11,2.24-.32s1.19-.52,1.56-.92c.37-.43.55-.95.55-1.56,0-.46-.12-.87-.37-1.24-.21-.37-.52-.69-.92-.96-.4-.27-.87-.52-1.42-.73-.55-.24-1.13-.44-1.74-.6-.61-.18-1.24-.34-1.88-.46-1.77-.4-3.31-.89-4.62-1.47-1.31-.58-2.41-1.28-3.3-2.11-.85-.85-1.5-1.82-1.92-2.88-.43-1.1-.64-2.32-.64-3.66,0-1.43.32-2.75.96-3.94.67-1.22,1.56-2.26,2.66-3.11,1.13-.89,2.43-1.56,3.89-2.01,1.47-.49,2.99-.73,4.58-.73,2.11,0,3.91.23,5.4.69,1.53.43,2.82,1.05,3.89,1.88,1.1.82,2.03,1.82,2.79,2.98l-4.81,4.62c-.64-.79-1.34-1.45-2.11-1.97-.73-.52-1.53-.92-2.38-1.19-.82-.27-1.68-.41-2.56-.41s-1.71.12-2.38.37c-.64.21-1.14.53-1.51.96-.37.4-.55.89-.55,1.47,0,.52.15.96.46,1.33s.72.7,1.24,1.01c.52.27,1.11.52,1.79.73.67.18,1.37.34,2.11.46,1.68.34,3.19.78,4.53,1.33,1.37.55,2.55,1.22,3.53,2.01,1.01.79,1.77,1.74,2.29,2.84.55,1.07.82,2.32.82,3.75,0,2.23-.55,4.12-1.65,5.68-1.07,1.53-2.55,2.7-4.44,3.53-1.86.79-4.01,1.19-6.46,1.19ZM308.79,101.58c-2.41,0-4.64-.4-6.69-1.19-2.01-.82-3.77-1.97-5.27-3.43-1.5-1.5-2.66-3.25-3.48-5.27-.79-2.05-1.19-4.29-1.19-6.73s.43-4.58,1.28-6.59,2.03-3.75,3.53-5.22c1.53-1.5,3.31-2.66,5.36-3.48,2.08-.82,4.33-1.24,6.78-1.24,1.53,0,3.02.2,4.49.6s2.82.99,4.08,1.79c1.28.76,2.38,1.68,3.3,2.75l-4.76,5.45c-.64-.67-1.33-1.25-2.06-1.74-.7-.52-1.48-.92-2.34-1.19-.85-.27-1.77-.41-2.75-.41-1.22,0-2.38.23-3.48.69-1.07.43-2.01,1.05-2.84,1.88-.79.79-1.42,1.77-1.88,2.93-.46,1.16-.69,2.46-.69,3.89s.23,2.69.69,3.85c.46,1.13,1.1,2.11,1.92,2.93s1.82,1.45,2.98,1.88c1.19.43,2.5.64,3.94.64.98,0,1.91-.14,2.79-.41.89-.27,1.69-.64,2.43-1.1.76-.49,1.43-1.04,2.01-1.65l3.75,5.95c-.76.85-1.79,1.62-3.07,2.29-1.25.67-2.66,1.21-4.21,1.6-1.53.37-3.07.55-4.62.55ZM345.9,101.12v-32.05h7.78v32.05h-7.78ZM326.03,101.12v-32.05h7.78v32.05h-7.78ZM329.05,88.62l.05-6.96h20.93v6.96h-20.97Z"/>
      <path class="cls-4" d="M158.57,158.36v-32.05h22.34v6.64h-14.79v18.77h15.25v6.64h-22.8ZM162.23,145.22v-6.32h16.62v6.32h-16.62ZM188.08,158.36v-32.05h6.96l16.8,22.89-1.51-.23c-.15-1.01-.27-1.97-.37-2.88-.09-.92-.18-1.82-.27-2.7-.06-.89-.12-1.79-.18-2.7-.03-.92-.06-1.91-.09-2.98v-11.4h7.56v32.05h-7.05l-17.54-23.63,2.34.32c.15,1.47.27,2.72.37,3.75.12,1.01.21,1.91.27,2.7.09.79.15,1.51.18,2.15.03.64.05,1.28.05,1.92.03.61.05,1.3.05,2.06v10.71h-7.56ZM225.01,158.36v-32.05h22.34v6.64h-14.79v18.77h15.25v6.64h-22.8ZM228.68,145.22v-6.32h16.62v6.32h-16.62ZM254.53,158.36v-32.05h14.42c2.05,0,3.89.44,5.54,1.33,1.68.89,2.99,2.11,3.94,3.66.95,1.53,1.42,3.27,1.42,5.22s-.47,3.83-1.42,5.45c-.95,1.59-2.24,2.84-3.89,3.75-1.65.92-3.51,1.37-5.59,1.37h-7.01v11.26h-7.42ZM272.29,158.36l-8.15-14.47,7.97-1.14,9.07,15.61h-8.88ZM261.94,141.14h6.32c.79,0,1.48-.17,2.06-.5.61-.37,1.07-.87,1.37-1.51.34-.64.5-1.37.5-2.2s-.18-1.54-.55-2.15c-.37-.64-.9-1.13-1.6-1.47-.67-.34-1.5-.5-2.47-.5h-5.63v8.33ZM301.11,158.82c-2.56,0-4.88-.41-6.96-1.24-2.08-.82-3.86-1.98-5.36-3.48-1.5-1.5-2.64-3.25-3.43-5.27-.79-2.05-1.19-4.26-1.19-6.64s.41-4.56,1.24-6.55c.85-2.01,2.06-3.77,3.62-5.27,1.56-1.5,3.39-2.66,5.49-3.48,2.14-.82,4.46-1.24,6.96-1.24,1.77,0,3.43.23,4.99.69,1.59.46,3.02,1.08,4.3,1.88s2.37,1.71,3.25,2.75l-4.72,4.99c-.76-.73-1.56-1.34-2.38-1.83-.79-.49-1.65-.87-2.56-1.14-.92-.31-1.89-.46-2.93-.46-1.34,0-2.58.24-3.71.73-1.1.49-2.08,1.18-2.93,2.06-.82.85-1.47,1.88-1.92,3.07-.46,1.16-.69,2.43-.69,3.8s.24,2.66.73,3.85,1.16,2.23,2.01,3.11c.85.85,1.86,1.54,3.02,2.06,1.19.49,2.46.73,3.8.73.95,0,1.83-.15,2.66-.46.85-.31,1.59-.72,2.2-1.24.61-.52,1.1-1.13,1.47-1.83.37-.73.55-1.51.55-2.34v-1.19l1.01,1.56h-8.84v-6.09h15.06c.06.34.11.79.14,1.37.03.58.05,1.14.05,1.69.03.55.05.96.05,1.24,0,2.08-.38,3.98-1.14,5.72-.73,1.71-1.77,3.19-3.11,4.44-1.34,1.25-2.93,2.23-4.76,2.93-1.83.7-3.82,1.05-5.95,1.05ZM320.96,158.36v-6.55h5.4v-18.96h-5.4v-6.55h18.64v6.55h-5.45v18.96h5.45v6.55h-18.64ZM342.92,158.36l12.68-32.05h6.59l12.59,32.05h-7.88l-6.04-16.26c-.24-.64-.49-1.33-.73-2.06-.24-.73-.49-1.48-.73-2.24-.24-.79-.49-1.56-.73-2.29-.21-.76-.4-1.47-.55-2.11l1.37-.05c-.18.76-.4,1.51-.64,2.24-.21.73-.44,1.47-.69,2.2-.21.7-.46,1.42-.73,2.15-.27.7-.53,1.43-.78,2.2l-6.04,16.21h-7.69ZM348.97,152.22l2.43-5.86h14.74l2.38,5.86h-19.55ZM404.08,158.82c-2.11,0-4.01-.24-5.72-.73-1.68-.52-3.17-1.25-4.49-2.2-1.31-.98-2.49-2.12-3.53-3.43l4.72-5.36c1.53,2.05,3.05,3.42,4.58,4.12,1.56.7,3.16,1.05,4.81,1.05.82,0,1.57-.11,2.24-.32.67-.21,1.19-.52,1.56-.92.37-.43.55-.95.55-1.56,0-.46-.12-.87-.37-1.24-.21-.37-.52-.69-.92-.96-.4-.27-.87-.52-1.42-.73-.55-.24-1.13-.44-1.74-.6-.61-.18-1.24-.34-1.88-.46-1.77-.4-3.31-.89-4.62-1.47-1.31-.58-2.41-1.28-3.3-2.11-.85-.85-1.5-1.82-1.92-2.88-.43-1.1-.64-2.32-.64-3.66,0-1.43.32-2.75.96-3.94.67-1.22,1.56-2.26,2.66-3.11,1.13-.89,2.43-1.56,3.89-2.01,1.47-.49,2.99-.73,4.58-.73,2.11,0,3.91.23,5.4.69,1.53.43,2.82,1.05,3.89,1.88,1.1.82,2.03,1.82,2.79,2.98l-4.81,4.62c-.64-.79-1.34-1.45-2.11-1.97-.73-.52-1.53-.92-2.38-1.19-.82-.27-1.68-.41-2.56-.41s-1.71.12-2.38.37c-.64.21-1.14.53-1.51.96-.37.4-.55.89-.55,1.47,0,.52.15.96.46,1.33.31.37.72.7,1.24,1.01.52.27,1.11.52,1.79.73.67.18,1.37.34,2.11.46,1.68.34,3.19.78,4.53,1.33,1.37.55,2.55,1.22,3.53,2.01,1.01.79,1.77,1.74,2.29,2.84.55,1.07.82,2.32.82,3.75,0,2.23-.55,4.12-1.65,5.68-1.07,1.53-2.55,2.7-4.44,3.53-1.86.79-4.01,1.19-6.46,1.19ZM437.09,158.82c-2.44,0-4.67-.41-6.69-1.24s-3.77-1.98-5.27-3.48c-1.5-1.5-2.66-3.25-3.48-5.27-.82-2.01-1.24-4.23-1.24-6.64s.41-4.62,1.24-6.64c.82-2.01,1.98-3.77,3.48-5.27,1.5-1.5,3.25-2.66,5.27-3.48,2.01-.82,4.23-1.24,6.64-1.24s4.62.41,6.64,1.24c2.01.82,3.77,1.98,5.27,3.48,1.5,1.5,2.64,3.25,3.43,5.27.82,2.01,1.24,4.23,1.24,6.64s-.41,4.59-1.24,6.64c-.79,2.01-1.94,3.77-3.43,5.27-1.5,1.5-3.25,2.66-5.27,3.48s-4.21,1.24-6.59,1.24ZM437.04,151.49c1.25,0,2.4-.23,3.43-.69,1.07-.46,1.98-1.1,2.75-1.92.79-.85,1.4-1.85,1.83-2.98.43-1.13.64-2.37.64-3.71s-.21-2.58-.64-3.71c-.43-1.13-1.04-2.11-1.83-2.93-.76-.85-1.68-1.51-2.75-1.97-1.04-.46-2.18-.69-3.43-.69s-2.41.23-3.48.69c-1.04.46-1.95,1.11-2.75,1.97-.79.82-1.4,1.8-1.83,2.93-.4,1.13-.6,2.37-.6,3.71s.2,2.59.6,3.75c.43,1.13,1.04,2.11,1.83,2.93.79.82,1.71,1.47,2.75,1.92,1.07.46,2.23.69,3.48.69ZM459.64,158.36v-32.05h7.78v25.18h14.29v6.87h-22.07ZM483.47,158.36l12.68-32.05h6.59l12.59,32.05h-7.88l-6.04-16.26c-.24-.64-.49-1.33-.73-2.06-.24-.73-.49-1.48-.73-2.24-.24-.79-.49-1.56-.73-2.29-.21-.76-.4-1.47-.55-2.11l1.37-.05c-.18.76-.4,1.51-.64,2.24-.21.73-.44,1.47-.69,2.2-.21.7-.46,1.42-.73,2.15-.27.7-.53,1.43-.78,2.2l-6.04,16.21h-7.69ZM489.51,152.22l2.43-5.86h14.74l2.38,5.86h-19.55ZM519.33,158.36v-32.05h14.42c2.05,0,3.89.44,5.54,1.33,1.68.89,2.99,2.11,3.94,3.66.95,1.53,1.42,3.27,1.42,5.22s-.47,3.83-1.42,5.45c-.95,1.59-2.24,2.84-3.89,3.75-1.65.92-3.51,1.37-5.59,1.37h-7.01v11.26h-7.42ZM537.1,158.36l-8.15-14.47,7.97-1.14,9.07,15.61h-8.88ZM526.75,141.14h6.32c.79,0,1.48-.17,2.06-.5.61-.37,1.07-.87,1.37-1.51.34-.64.5-1.37.5-2.2s-.18-1.54-.55-2.15c-.37-.64-.9-1.13-1.6-1.47-.67-.34-1.5-.5-2.47-.5h-5.63v8.33Z"/>
      <path class="cls-1" d="M570.45,150.68c0,4.3-3.31,7.68-7.61,7.68s-7.65-3.38-7.65-7.68,3.4-7.59,7.65-7.59,7.61,3.38,7.61,7.59ZM557.09,150.68c0,3.38,2.45,6.06,5.8,6.06s5.66-2.68,5.66-6.01-2.4-6.11-5.71-6.11-5.75,2.73-5.75,6.06h0ZM561.67,154.66h-1.72v-7.59c.68-.14,1.63-.23,2.85-.23,1.4,0,2.04.23,2.58.56.41.32.73.92.73,1.66,0,.83-.63,1.48-1.54,1.76v.09c.73.28,1.13.83,1.36,1.85.23,1.16.36,1.62.54,1.9h-1.86c-.23-.28-.36-.97-.59-1.85-.14-.83-.59-1.2-1.54-1.2h-.81v3.05h0ZM561.71,150.36h.82c.95,0,1.72-.32,1.72-1.11,0-.69-.5-1.16-1.59-1.16-.45,0-.77.05-.95.09v2.17h0Z"/>
    </g>
  </g>
</svg>